<?xml version="1.0" standalone="no"?>
 <!DOCTYPE svg PUBLIC "-//W3C//DTD SVG 1.1//EN" 
 "http://www.w3.org/Graphics/SVG/1.1/DTD/svg11.dtd"> 
<svg
  xmlns:svg="http://www.w3.org/2000/svg"
  xmlns="http://www.w3.org/2000/svg"
  xmlns:xlink="http://www.w3.org/1999/xlink"
  version="1.1"
  width="297.002200mm" height="210.007200mm" viewBox="0.000000 0.000000 297.002200 210.007200">
<title>SVG Image created as tone_block-B_Mask.svg date 2025/01/03 15:08:53 </title>
  <desc>Image generated by PCBNEW </desc>
<g style="fill:#000000; fill-opacity:1.000000;stroke:#000000; stroke-opacity:1.000000;
stroke-linecap:round; stroke-linejoin:round;"
 transform="translate(0 0) scale(1 1)">
</g>
<g style="fill:#000000; fill-opacity:1.000000; stroke:none;">
<circle cx="226.500000" cy="105.000000" r="1.000000" /> 
</g>
<g style="fill:#000000; fill-opacity:1.000000; stroke:none;">
<circle cx="221.500000" cy="105.000000" r="1.000000" /> 
</g>
<g style="fill:#000000; fill-opacity:1.000000; stroke:none;">
<circle cx="203.000000" cy="110.000000" r="2.250000" /> 
<path style="fill:#000000; fill-opacity:1.000000; stroke:none;fill-rule:evenodd;"
d="M 230.690000,116.650000
232.390000,116.650000
232.390000,118.350000
230.690000,118.350000
Z" /> 
</g>
<g style="fill:#000000; fill-opacity:1.000000; stroke:none;">
<circle cx="229.000000" cy="117.500000" r="0.850000" /> 
<circle cx="226.460000" cy="117.500000" r="0.850000" /> 
<circle cx="245.000000" cy="110.000000" r="2.250000" /> 
<path style="fill:#000000; fill-opacity:1.000000; stroke:none;fill-rule:evenodd;"
d="M 220.690000,116.650000
222.390000,116.650000
222.390000,118.350000
220.690000,118.350000
Z" /> 
</g>
<g style="fill:#000000; fill-opacity:1.000000; stroke:none;">
<circle cx="219.000000" cy="117.500000" r="0.850000" /> 
<circle cx="216.460000" cy="117.500000" r="0.850000" /> 
<path style="fill:#000000; fill-opacity:1.000000; stroke:none;fill-rule:evenodd;"
d="M 222.400000,112.325000
222.388926,112.409116
222.341224,112.511412
222.261412,112.591224
222.159116,112.638926
222.075000,112.650000
221.425000,112.650000
221.340884,112.638926
221.238588,112.591224
221.158776,112.511412
221.111074,112.409116
221.100000,112.325000
221.100000,111.675000
221.111074,111.590884
221.158776,111.488588
221.238588,111.408776
221.340884,111.361074
221.425000,111.350000
222.075000,111.350000
222.159116,111.361074
222.261412,111.408776
222.341224,111.488588
222.388926,111.590884
222.400000,111.675000
Z" /> 
<path style="fill:#000000; fill-opacity:1.000000; stroke:none;fill-rule:evenodd;"
d="M 222.400000,110.325000
222.388926,110.409116
222.341224,110.511412
222.261412,110.591224
222.159116,110.638926
222.075000,110.650000
221.425000,110.650000
221.340884,110.638926
221.238588,110.591224
221.158776,110.511412
221.111074,110.409116
221.100000,110.325000
221.100000,109.675000
221.111074,109.590884
221.158776,109.488588
221.238588,109.408776
221.340884,109.361074
221.425000,109.350000
222.075000,109.350000
222.159116,109.361074
222.261412,109.408776
222.341224,109.488588
222.388926,109.590884
222.400000,109.675000
Z" /> 
<path style="fill:#000000; fill-opacity:1.000000; stroke:none;fill-rule:evenodd;"
d="M 222.400000,108.325000
222.388926,108.409116
222.341224,108.511412
222.261412,108.591224
222.159116,108.638926
222.075000,108.650000
221.425000,108.650000
221.340884,108.638926
221.238588,108.591224
221.158776,108.511412
221.111074,108.409116
221.100000,108.325000
221.100000,107.675000
221.111074,107.590884
221.158776,107.488588
221.238588,107.408776
221.340884,107.361074
221.425000,107.350000
222.075000,107.350000
222.159116,107.361074
222.261412,107.408776
222.341224,107.488588
222.388926,107.590884
222.400000,107.675000
Z" /> 
<path style="fill:#000000; fill-opacity:1.000000; stroke:none;fill-rule:evenodd;"
d="M 226.900000,112.325000
226.888926,112.409116
226.841224,112.511412
226.761412,112.591224
226.659116,112.638926
226.575000,112.650000
225.925000,112.650000
225.840884,112.638926
225.738588,112.591224
225.658776,112.511412
225.611074,112.409116
225.600000,112.325000
225.600000,111.675000
225.611074,111.590884
225.658776,111.488588
225.738588,111.408776
225.840884,111.361074
225.925000,111.350000
226.575000,111.350000
226.659116,111.361074
226.761412,111.408776
226.841224,111.488588
226.888926,111.590884
226.900000,111.675000
Z" /> 
<path style="fill:#000000; fill-opacity:1.000000; stroke:none;fill-rule:evenodd;"
d="M 226.900000,110.325000
226.888926,110.409116
226.841224,110.511412
226.761412,110.591224
226.659116,110.638926
226.575000,110.650000
225.925000,110.650000
225.840884,110.638926
225.738588,110.591224
225.658776,110.511412
225.611074,110.409116
225.600000,110.325000
225.600000,109.675000
225.611074,109.590884
225.658776,109.488588
225.738588,109.408776
225.840884,109.361074
225.925000,109.350000
226.575000,109.350000
226.659116,109.361074
226.761412,109.408776
226.841224,109.488588
226.888926,109.590884
226.900000,109.675000
Z" /> 
<path style="fill:#000000; fill-opacity:1.000000; stroke:none;fill-rule:evenodd;"
d="M 226.900000,108.325000
226.888926,108.409116
226.841224,108.511412
226.761412,108.591224
226.659116,108.638926
226.575000,108.650000
225.925000,108.650000
225.840884,108.638926
225.738588,108.591224
225.658776,108.511412
225.611074,108.409116
225.600000,108.325000
225.600000,107.675000
225.611074,107.590884
225.658776,107.488588
225.738588,107.408776
225.840884,107.361074
225.925000,107.350000
226.575000,107.350000
226.659116,107.361074
226.761412,107.408776
226.841224,107.488588
226.888926,107.590884
226.900000,107.675000
Z" /> 
<path style="fill:#000000; fill-opacity:1.000000; stroke:none;fill-rule:evenodd;"
d="M 239.400000,113.100000
239.400000,114.900000
237.600000,114.900000
237.600000,113.100000
Z" /> 
<path style="fill:#000000; fill-opacity:1.000000; stroke:none;fill-rule:evenodd;"
d="M 236.900000,113.100000
236.900000,114.900000
235.100000,114.900000
235.100000,113.100000
Z" /> 
<path style="fill:#000000; fill-opacity:1.000000; stroke:none;fill-rule:evenodd;"
d="M 234.400000,113.100000
234.400000,114.900000
232.600000,114.900000
232.600000,113.100000
Z" /> 
<path style="fill:#000000; fill-opacity:1.000000; stroke:none;fill-rule:evenodd;"
d="M 242.250000,105.500000
242.250000,108.500000
239.750000,108.500000
239.750000,105.500000
Z" /> 
<path style="fill:#000000; fill-opacity:1.000000; stroke:none;fill-rule:evenodd;"
d="M 232.250000,105.500000
232.250000,108.500000
229.750000,108.500000
229.750000,105.500000
Z" /> 
<path style="fill:#000000; fill-opacity:1.000000; stroke:none;fill-rule:evenodd;"
d="M 215.400000,113.100000
215.400000,114.900000
213.600000,114.900000
213.600000,113.100000
Z" /> 
<path style="fill:#000000; fill-opacity:1.000000; stroke:none;fill-rule:evenodd;"
d="M 212.900000,113.100000
212.900000,114.900000
211.100000,114.900000
211.100000,113.100000
Z" /> 
<path style="fill:#000000; fill-opacity:1.000000; stroke:none;fill-rule:evenodd;"
d="M 210.400000,113.100000
210.400000,114.900000
208.600000,114.900000
208.600000,113.100000
Z" /> 
<path style="fill:#000000; fill-opacity:1.000000; stroke:none;fill-rule:evenodd;"
d="M 218.250000,105.500000
218.250000,108.500000
215.750000,108.500000
215.750000,105.500000
Z" /> 
<path style="fill:#000000; fill-opacity:1.000000; stroke:none;fill-rule:evenodd;"
d="M 208.250000,105.500000
208.250000,108.500000
205.750000,108.500000
205.750000,105.500000
Z" /> 
</g> 
</svg>
