<?xml version="1.0" standalone="no"?>
 <!DOCTYPE svg PUBLIC "-//W3C//DTD SVG 1.1//EN" 
 "http://www.w3.org/Graphics/SVG/1.1/DTD/svg11.dtd"> 
<svg
  xmlns:svg="http://www.w3.org/2000/svg"
  xmlns="http://www.w3.org/2000/svg"
  xmlns:xlink="http://www.w3.org/1999/xlink"
  version="1.1"
  width="297.002200mm" height="210.007200mm" viewBox="0.000000 0.000000 297.002200 210.007200">
<title>SVG Image created as tone_block-F_Mask.svg date 2025/01/03 15:08:53 </title>
  <desc>Image generated by PCBNEW </desc>
<g style="fill:#000000; fill-opacity:1.000000;stroke:#000000; stroke-opacity:1.000000;
stroke-linecap:round; stroke-linejoin:round;"
 transform="translate(0 0) scale(1 1)">
<path style="fill:#000000; fill-opacity:1.000000; stroke:none;fill-rule:evenodd;"
d="M 213.630000,110.660000
213.576424,110.649343
213.531005,110.618995
213.500657,110.573576
213.490000,110.520000
213.490000,110.240000
213.500657,110.186424
213.531005,110.141005
213.576424,110.110657
213.630000,110.100000
213.970000,110.100000
214.023576,110.110657
214.068995,110.141005
214.099343,110.186424
214.110000,110.240000
214.110000,110.520000
214.099343,110.573576
214.068995,110.618995
214.023576,110.649343
213.970000,110.660000
Z" /> 
<path style="fill:#000000; fill-opacity:1.000000; stroke:none;fill-rule:evenodd;"
d="M 213.630000,109.700000
213.576424,109.689343
213.531005,109.658995
213.500657,109.613576
213.490000,109.560000
213.490000,109.280000
213.500657,109.226424
213.531005,109.181005
213.576424,109.150657
213.630000,109.140000
213.970000,109.140000
214.023576,109.150657
214.068995,109.181005
214.099343,109.226424
214.110000,109.280000
214.110000,109.560000
214.099343,109.613576
214.068995,109.658995
214.023576,109.689343
213.970000,109.700000
Z" /> 
<path style="fill:#000000; fill-opacity:1.000000; stroke:none;fill-rule:evenodd;"
d="M 219.475000,109.650000
219.570671,109.669030
219.651777,109.723223
219.705970,109.804329
219.725000,109.900000
219.725000,110.400000
219.705970,110.495671
219.651777,110.576777
219.570671,110.630970
219.475000,110.650000
218.525000,110.650000
218.429329,110.630970
218.348223,110.576777
218.294030,110.495671
218.275000,110.400000
218.275000,109.900000
218.294030,109.804329
218.348223,109.723223
218.429329,109.669030
218.525000,109.650000
Z" /> 
<path style="fill:#000000; fill-opacity:1.000000; stroke:none;fill-rule:evenodd;"
d="M 219.475000,111.550000
219.570671,111.569030
219.651777,111.623223
219.705970,111.704329
219.725000,111.800000
219.725000,112.300000
219.705970,112.395671
219.651777,112.476777
219.570671,112.530970
219.475000,112.550000
218.525000,112.550000
218.429329,112.530970
218.348223,112.476777
218.294030,112.395671
218.275000,112.300000
218.275000,111.800000
218.294030,111.704329
218.348223,111.623223
218.429329,111.569030
218.525000,111.550000
Z" /> 
</g>
<g style="fill:#000000; fill-opacity:1.000000; stroke:none;">
<circle cx="226.500000" cy="105.000000" r="1.000000" /> 
</g>
<g style="fill:#000000; fill-opacity:1.000000; stroke:none;">
<circle cx="221.500000" cy="105.000000" r="1.000000" /> 
<path style="fill:#000000; fill-opacity:1.000000; stroke:none;fill-rule:evenodd;"
d="M 206.485000,102.510000
206.536662,102.520276
206.580459,102.549541
206.609724,102.593338
206.620000,102.645000
206.620000,102.915000
206.609724,102.966662
206.580459,103.010459
206.536662,103.039724
206.485000,103.050000
206.115000,103.050000
206.063338,103.039724
206.019541,103.010459
205.990276,102.966662
205.980000,102.915000
205.980000,102.645000
205.990276,102.593338
206.019541,102.549541
206.063338,102.520276
206.115000,102.510000
Z" /> 
<path style="fill:#000000; fill-opacity:1.000000; stroke:none;fill-rule:evenodd;"
d="M 206.485000,103.530000
206.536662,103.540276
206.580459,103.569541
206.609724,103.613338
206.620000,103.665000
206.620000,103.935000
206.609724,103.986662
206.580459,104.030459
206.536662,104.059724
206.485000,104.070000
206.115000,104.070000
206.063338,104.059724
206.019541,104.030459
205.990276,103.986662
205.980000,103.935000
205.980000,103.665000
205.990276,103.613338
206.019541,103.569541
206.063338,103.540276
206.115000,103.530000
Z" /> 
<path style="fill:#000000; fill-opacity:1.000000; stroke:none;fill-rule:evenodd;"
d="M 233.475000,110.425000
233.490224,110.348463
233.533579,110.283579
233.598463,110.240224
233.675000,110.225000
234.075000,110.225000
234.151537,110.240224
234.216421,110.283579
234.259776,110.348463
234.275000,110.425000
234.275000,110.975000
234.259776,111.051537
234.216421,111.116421
234.151537,111.159776
234.075000,111.175000
233.675000,111.175000
233.598463,111.159776
233.533579,111.116421
233.490224,111.051537
233.475000,110.975000
Z" /> 
<path style="fill:#000000; fill-opacity:1.000000; stroke:none;fill-rule:evenodd;"
d="M 235.125000,110.425000
235.140224,110.348463
235.183579,110.283579
235.248463,110.240224
235.325000,110.225000
235.725000,110.225000
235.801537,110.240224
235.866421,110.283579
235.909776,110.348463
235.925000,110.425000
235.925000,110.975000
235.909776,111.051537
235.866421,111.116421
235.801537,111.159776
235.725000,111.175000
235.325000,111.175000
235.248463,111.159776
235.183579,111.116421
235.140224,111.051537
235.125000,110.975000
Z" /> 
<path style="fill:#000000; fill-opacity:1.000000; stroke:none;fill-rule:evenodd;"
d="M 214.325000,112.075000
214.309776,112.151537
214.266421,112.216421
214.201537,112.259776
214.125000,112.275000
213.725000,112.275000
213.648463,112.259776
213.583579,112.216421
213.540224,112.151537
213.525000,112.075000
213.525000,111.525000
213.540224,111.448463
213.583579,111.383579
213.648463,111.340224
213.725000,111.325000
214.125000,111.325000
214.201537,111.340224
214.266421,111.383579
214.309776,111.448463
214.325000,111.525000
Z" /> 
<path style="fill:#000000; fill-opacity:1.000000; stroke:none;fill-rule:evenodd;"
d="M 212.675000,112.075000
212.659776,112.151537
212.616421,112.216421
212.551537,112.259776
212.475000,112.275000
212.075000,112.275000
211.998463,112.259776
211.933579,112.216421
211.890224,112.151537
211.875000,112.075000
211.875000,111.525000
211.890224,111.448463
211.933579,111.383579
211.998463,111.340224
212.075000,111.325000
212.475000,111.325000
212.551537,111.340224
212.616421,111.383579
212.659776,111.448463
212.675000,111.525000
Z" /> 
<path style="fill:#000000; fill-opacity:1.000000; stroke:none;fill-rule:evenodd;"
d="M 207.975000,109.625000
207.990224,109.548463
208.033579,109.483579
208.098463,109.440224
208.175000,109.425000
208.575000,109.425000
208.651537,109.440224
208.716421,109.483579
208.759776,109.548463
208.775000,109.625000
208.775000,110.175000
208.759776,110.251537
208.716421,110.316421
208.651537,110.359776
208.575000,110.375000
208.175000,110.375000
208.098463,110.359776
208.033579,110.316421
207.990224,110.251537
207.975000,110.175000
Z" /> 
<path style="fill:#000000; fill-opacity:1.000000; stroke:none;fill-rule:evenodd;"
d="M 209.625000,109.625000
209.640224,109.548463
209.683579,109.483579
209.748463,109.440224
209.825000,109.425000
210.225000,109.425000
210.301537,109.440224
210.366421,109.483579
210.409776,109.548463
210.425000,109.625000
210.425000,110.175000
210.409776,110.251537
210.366421,110.316421
210.301537,110.359776
210.225000,110.375000
209.825000,110.375000
209.748463,110.359776
209.683579,110.316421
209.640224,110.251537
209.625000,110.175000
Z" /> 
</g>
<g style="fill:#000000; fill-opacity:1.000000; stroke:none;">
<circle cx="203.000000" cy="110.000000" r="2.250000" /> 
<path style="fill:#000000; fill-opacity:1.000000; stroke:none;fill-rule:evenodd;"
d="M 207.715000,104.070000
207.663338,104.059724
207.619541,104.030459
207.590276,103.986662
207.580000,103.935000
207.580000,103.665000
207.590276,103.613338
207.619541,103.569541
207.663338,103.540276
207.715000,103.530000
208.085000,103.530000
208.136662,103.540276
208.180459,103.569541
208.209724,103.613338
208.220000,103.665000
208.220000,103.935000
208.209724,103.986662
208.180459,104.030459
208.136662,104.059724
208.085000,104.070000
Z" /> 
<path style="fill:#000000; fill-opacity:1.000000; stroke:none;fill-rule:evenodd;"
d="M 207.715000,103.050000
207.663338,103.039724
207.619541,103.010459
207.590276,102.966662
207.580000,102.915000
207.580000,102.645000
207.590276,102.593338
207.619541,102.549541
207.663338,102.520276
207.715000,102.510000
208.085000,102.510000
208.136662,102.520276
208.180459,102.549541
208.209724,102.593338
208.220000,102.645000
208.220000,102.915000
208.209724,102.966662
208.180459,103.010459
208.136662,103.039724
208.085000,103.050000
Z" /> 
<path style="fill:#000000; fill-opacity:1.000000; stroke:none;fill-rule:evenodd;"
d="M 207.925000,119.450000
207.829329,119.430970
207.748223,119.376777
207.694030,119.295671
207.675000,119.200000
207.675000,118.700000
207.694030,118.604329
207.748223,118.523223
207.829329,118.469030
207.925000,118.450000
208.875000,118.450000
208.970671,118.469030
209.051777,118.523223
209.105970,118.604329
209.125000,118.700000
209.125000,119.200000
209.105970,119.295671
209.051777,119.376777
208.970671,119.430970
208.875000,119.450000
Z" /> 
<path style="fill:#000000; fill-opacity:1.000000; stroke:none;fill-rule:evenodd;"
d="M 207.925000,117.550000
207.829329,117.530970
207.748223,117.476777
207.694030,117.395671
207.675000,117.300000
207.675000,116.800000
207.694030,116.704329
207.748223,116.623223
207.829329,116.569030
207.925000,116.550000
208.875000,116.550000
208.970671,116.569030
209.051777,116.623223
209.105970,116.704329
209.125000,116.800000
209.125000,117.300000
209.105970,117.395671
209.051777,117.476777
208.970671,117.530970
208.875000,117.550000
Z" /> 
<path style="fill:#000000; fill-opacity:1.000000; stroke:none;fill-rule:evenodd;"
d="M 213.375000,119.100000
213.363582,119.157403
213.331066,119.206066
213.282403,119.238582
213.225000,119.250000
212.050000,119.250000
211.992597,119.238582
211.943934,119.206066
211.911418,119.157403
211.900000,119.100000
211.900000,118.800000
211.911418,118.742597
211.943934,118.693934
211.992597,118.661418
212.050000,118.650000
213.225000,118.650000
213.282403,118.661418
213.331066,118.693934
213.363582,118.742597
213.375000,118.800000
Z" /> 
<path style="fill:#000000; fill-opacity:1.000000; stroke:none;fill-rule:evenodd;"
d="M 213.375000,117.200000
213.363582,117.257403
213.331066,117.306066
213.282403,117.338582
213.225000,117.350000
212.050000,117.350000
211.992597,117.338582
211.943934,117.306066
211.911418,117.257403
211.900000,117.200000
211.900000,116.900000
211.911418,116.842597
211.943934,116.793934
211.992597,116.761418
212.050000,116.750000
213.225000,116.750000
213.282403,116.761418
213.331066,116.793934
213.363582,116.842597
213.375000,116.900000
Z" /> 
<path style="fill:#000000; fill-opacity:1.000000; stroke:none;fill-rule:evenodd;"
d="M 211.500000,118.150000
211.488582,118.207403
211.456066,118.256066
211.407403,118.288582
211.350000,118.300000
210.175000,118.300000
210.117597,118.288582
210.068934,118.256066
210.036418,118.207403
210.025000,118.150000
210.025000,117.850000
210.036418,117.792597
210.068934,117.743934
210.117597,117.711418
210.175000,117.700000
211.350000,117.700000
211.407403,117.711418
211.456066,117.743934
211.488582,117.792597
211.500000,117.850000
Z" /> 
<path style="fill:#000000; fill-opacity:1.000000; stroke:none;fill-rule:evenodd;"
d="M 230.690000,116.650000
232.390000,116.650000
232.390000,118.350000
230.690000,118.350000
Z" /> 
</g>
<g style="fill:#000000; fill-opacity:1.000000; stroke:none;">
<circle cx="229.000000" cy="117.500000" r="0.850000" /> 
<circle cx="226.460000" cy="117.500000" r="0.850000" /> 
<circle cx="245.000000" cy="110.000000" r="2.250000" /> 
<path style="fill:#000000; fill-opacity:1.000000; stroke:none;fill-rule:evenodd;"
d="M 229.385000,109.420000
229.436662,109.430276
229.480459,109.459541
229.509724,109.503338
229.520000,109.555000
229.520000,109.825000
229.509724,109.876662
229.480459,109.920459
229.436662,109.949724
229.385000,109.960000
229.015000,109.960000
228.963338,109.949724
228.919541,109.920459
228.890276,109.876662
228.880000,109.825000
228.880000,109.555000
228.890276,109.503338
228.919541,109.459541
228.963338,109.430276
229.015000,109.420000
Z" /> 
<path style="fill:#000000; fill-opacity:1.000000; stroke:none;fill-rule:evenodd;"
d="M 229.385000,110.440000
229.436662,110.450276
229.480459,110.479541
229.509724,110.523338
229.520000,110.575000
229.520000,110.845000
229.509724,110.896662
229.480459,110.940459
229.436662,110.969724
229.385000,110.980000
229.015000,110.980000
228.963338,110.969724
228.919541,110.940459
228.890276,110.896662
228.880000,110.845000
228.880000,110.575000
228.890276,110.523338
228.919541,110.479541
228.963338,110.450276
229.015000,110.440000
Z" /> 
<path style="fill:#000000; fill-opacity:1.000000; stroke:none;fill-rule:evenodd;"
d="M 213.950000,101.825000
214.007403,101.836418
214.056066,101.868934
214.088582,101.917597
214.100000,101.975000
214.100000,103.625000
214.088582,103.682403
214.056066,103.731066
214.007403,103.763582
213.950000,103.775000
213.650000,103.775000
213.592597,103.763582
213.543934,103.731066
213.511418,103.682403
213.500000,103.625000
213.500000,101.975000
213.511418,101.917597
213.543934,101.868934
213.592597,101.836418
213.650000,101.825000
Z" /> 
<path style="fill:#000000; fill-opacity:1.000000; stroke:none;fill-rule:evenodd;"
d="M 212.680000,101.825000
212.737403,101.836418
212.786066,101.868934
212.818582,101.917597
212.830000,101.975000
212.830000,103.625000
212.818582,103.682403
212.786066,103.731066
212.737403,103.763582
212.680000,103.775000
212.380000,103.775000
212.322597,103.763582
212.273934,103.731066
212.241418,103.682403
212.230000,103.625000
212.230000,101.975000
212.241418,101.917597
212.273934,101.868934
212.322597,101.836418
212.380000,101.825000
Z" /> 
<path style="fill:#000000; fill-opacity:1.000000; stroke:none;fill-rule:evenodd;"
d="M 211.410000,101.825000
211.467403,101.836418
211.516066,101.868934
211.548582,101.917597
211.560000,101.975000
211.560000,103.625000
211.548582,103.682403
211.516066,103.731066
211.467403,103.763582
211.410000,103.775000
211.110000,103.775000
211.052597,103.763582
211.003934,103.731066
210.971418,103.682403
210.960000,103.625000
210.960000,101.975000
210.971418,101.917597
211.003934,101.868934
211.052597,101.836418
211.110000,101.825000
Z" /> 
<path style="fill:#000000; fill-opacity:1.000000; stroke:none;fill-rule:evenodd;"
d="M 210.140000,101.825000
210.197403,101.836418
210.246066,101.868934
210.278582,101.917597
210.290000,101.975000
210.290000,103.625000
210.278582,103.682403
210.246066,103.731066
210.197403,103.763582
210.140000,103.775000
209.840000,103.775000
209.782597,103.763582
209.733934,103.731066
209.701418,103.682403
209.690000,103.625000
209.690000,101.975000
209.701418,101.917597
209.733934,101.868934
209.782597,101.836418
209.840000,101.825000
Z" /> 
<path style="fill:#000000; fill-opacity:1.000000; stroke:none;fill-rule:evenodd;"
d="M 210.140000,106.775000
210.197403,106.786418
210.246066,106.818934
210.278582,106.867597
210.290000,106.925000
210.290000,108.575000
210.278582,108.632403
210.246066,108.681066
210.197403,108.713582
210.140000,108.725000
209.840000,108.725000
209.782597,108.713582
209.733934,108.681066
209.701418,108.632403
209.690000,108.575000
209.690000,106.925000
209.701418,106.867597
209.733934,106.818934
209.782597,106.786418
209.840000,106.775000
Z" /> 
<path style="fill:#000000; fill-opacity:1.000000; stroke:none;fill-rule:evenodd;"
d="M 211.410000,106.775000
211.467403,106.786418
211.516066,106.818934
211.548582,106.867597
211.560000,106.925000
211.560000,108.575000
211.548582,108.632403
211.516066,108.681066
211.467403,108.713582
211.410000,108.725000
211.110000,108.725000
211.052597,108.713582
211.003934,108.681066
210.971418,108.632403
210.960000,108.575000
210.960000,106.925000
210.971418,106.867597
211.003934,106.818934
211.052597,106.786418
211.110000,106.775000
Z" /> 
<path style="fill:#000000; fill-opacity:1.000000; stroke:none;fill-rule:evenodd;"
d="M 212.680000,106.775000
212.737403,106.786418
212.786066,106.818934
212.818582,106.867597
212.830000,106.925000
212.830000,108.575000
212.818582,108.632403
212.786066,108.681066
212.737403,108.713582
212.680000,108.725000
212.380000,108.725000
212.322597,108.713582
212.273934,108.681066
212.241418,108.632403
212.230000,108.575000
212.230000,106.925000
212.241418,106.867597
212.273934,106.818934
212.322597,106.786418
212.380000,106.775000
Z" /> 
<path style="fill:#000000; fill-opacity:1.000000; stroke:none;fill-rule:evenodd;"
d="M 213.950000,106.775000
214.007403,106.786418
214.056066,106.818934
214.088582,106.867597
214.100000,106.925000
214.100000,108.575000
214.088582,108.632403
214.056066,108.681066
214.007403,108.713582
213.950000,108.725000
213.650000,108.725000
213.592597,108.713582
213.543934,108.681066
213.511418,108.632403
213.500000,108.575000
213.500000,106.925000
213.511418,106.867597
213.543934,106.818934
213.592597,106.786418
213.650000,106.775000
Z" /> 
<path style="fill:#000000; fill-opacity:1.000000; stroke:none;fill-rule:evenodd;"
d="M 220.690000,116.650000
222.390000,116.650000
222.390000,118.350000
220.690000,118.350000
Z" /> 
</g>
<g style="fill:#000000; fill-opacity:1.000000; stroke:none;">
<circle cx="219.000000" cy="117.500000" r="0.850000" /> 
<circle cx="216.460000" cy="117.500000" r="0.850000" /> 
<path style="fill:#000000; fill-opacity:1.000000; stroke:none;fill-rule:evenodd;"
d="M 227.915000,110.980000
227.863338,110.969724
227.819541,110.940459
227.790276,110.896662
227.780000,110.845000
227.780000,110.575000
227.790276,110.523338
227.819541,110.479541
227.863338,110.450276
227.915000,110.440000
228.285000,110.440000
228.336662,110.450276
228.380459,110.479541
228.409724,110.523338
228.420000,110.575000
228.420000,110.845000
228.409724,110.896662
228.380459,110.940459
228.336662,110.969724
228.285000,110.980000
Z" /> 
<path style="fill:#000000; fill-opacity:1.000000; stroke:none;fill-rule:evenodd;"
d="M 227.915000,109.960000
227.863338,109.949724
227.819541,109.920459
227.790276,109.876662
227.780000,109.825000
227.780000,109.555000
227.790276,109.503338
227.819541,109.459541
227.863338,109.430276
227.915000,109.420000
228.285000,109.420000
228.336662,109.430276
228.380459,109.459541
228.409724,109.503338
228.420000,109.555000
228.420000,109.825000
228.409724,109.876662
228.380459,109.920459
228.336662,109.949724
228.285000,109.960000
Z" /> 
<path style="fill:#000000; fill-opacity:1.000000; stroke:none;fill-rule:evenodd;"
d="M 233.250000,108.325000
233.269030,108.229329
233.323223,108.148223
233.404329,108.094030
233.500000,108.075000
234.000000,108.075000
234.095671,108.094030
234.176777,108.148223
234.230970,108.229329
234.250000,108.325000
234.250000,109.275000
234.230970,109.370671
234.176777,109.451777
234.095671,109.505970
234.000000,109.525000
233.500000,109.525000
233.404329,109.505970
233.323223,109.451777
233.269030,109.370671
233.250000,109.275000
Z" /> 
<path style="fill:#000000; fill-opacity:1.000000; stroke:none;fill-rule:evenodd;"
d="M 235.150000,108.325000
235.169030,108.229329
235.223223,108.148223
235.304329,108.094030
235.400000,108.075000
235.900000,108.075000
235.995671,108.094030
236.076777,108.148223
236.130970,108.229329
236.150000,108.325000
236.150000,109.275000
236.130970,109.370671
236.076777,109.451777
235.995671,109.505970
235.900000,109.525000
235.400000,109.525000
235.304329,109.505970
235.223223,109.451777
235.169030,109.370671
235.150000,109.275000
Z" /> 
<path style="fill:#000000; fill-opacity:1.000000; stroke:none;fill-rule:evenodd;"
d="M 207.750000,111.325000
207.769030,111.229329
207.823223,111.148223
207.904329,111.094030
208.000000,111.075000
208.500000,111.075000
208.595671,111.094030
208.676777,111.148223
208.730970,111.229329
208.750000,111.325000
208.750000,112.275000
208.730970,112.370671
208.676777,112.451777
208.595671,112.505970
208.500000,112.525000
208.000000,112.525000
207.904329,112.505970
207.823223,112.451777
207.769030,112.370671
207.750000,112.275000
Z" /> 
<path style="fill:#000000; fill-opacity:1.000000; stroke:none;fill-rule:evenodd;"
d="M 209.650000,111.325000
209.669030,111.229329
209.723223,111.148223
209.804329,111.094030
209.900000,111.075000
210.400000,111.075000
210.495671,111.094030
210.576777,111.148223
210.630970,111.229329
210.650000,111.325000
210.650000,112.275000
210.630970,112.370671
210.576777,112.451777
210.495671,112.505970
210.400000,112.525000
209.900000,112.525000
209.804329,112.505970
209.723223,112.451777
209.669030,112.370671
209.650000,112.275000
Z" /> 
<path style="fill:#000000; fill-opacity:1.000000; stroke:none;fill-rule:evenodd;"
d="M 222.400000,112.325000
222.388926,112.409116
222.341224,112.511412
222.261412,112.591224
222.159116,112.638926
222.075000,112.650000
221.425000,112.650000
221.340884,112.638926
221.238588,112.591224
221.158776,112.511412
221.111074,112.409116
221.100000,112.325000
221.100000,111.675000
221.111074,111.590884
221.158776,111.488588
221.238588,111.408776
221.340884,111.361074
221.425000,111.350000
222.075000,111.350000
222.159116,111.361074
222.261412,111.408776
222.341224,111.488588
222.388926,111.590884
222.400000,111.675000
Z" /> 
<path style="fill:#000000; fill-opacity:1.000000; stroke:none;fill-rule:evenodd;"
d="M 222.400000,110.325000
222.388926,110.409116
222.341224,110.511412
222.261412,110.591224
222.159116,110.638926
222.075000,110.650000
221.425000,110.650000
221.340884,110.638926
221.238588,110.591224
221.158776,110.511412
221.111074,110.409116
221.100000,110.325000
221.100000,109.675000
221.111074,109.590884
221.158776,109.488588
221.238588,109.408776
221.340884,109.361074
221.425000,109.350000
222.075000,109.350000
222.159116,109.361074
222.261412,109.408776
222.341224,109.488588
222.388926,109.590884
222.400000,109.675000
Z" /> 
<path style="fill:#000000; fill-opacity:1.000000; stroke:none;fill-rule:evenodd;"
d="M 222.400000,108.325000
222.388926,108.409116
222.341224,108.511412
222.261412,108.591224
222.159116,108.638926
222.075000,108.650000
221.425000,108.650000
221.340884,108.638926
221.238588,108.591224
221.158776,108.511412
221.111074,108.409116
221.100000,108.325000
221.100000,107.675000
221.111074,107.590884
221.158776,107.488588
221.238588,107.408776
221.340884,107.361074
221.425000,107.350000
222.075000,107.350000
222.159116,107.361074
222.261412,107.408776
222.341224,107.488588
222.388926,107.590884
222.400000,107.675000
Z" /> 
<path style="fill:#000000; fill-opacity:1.000000; stroke:none;fill-rule:evenodd;"
d="M 226.900000,112.325000
226.888926,112.409116
226.841224,112.511412
226.761412,112.591224
226.659116,112.638926
226.575000,112.650000
225.925000,112.650000
225.840884,112.638926
225.738588,112.591224
225.658776,112.511412
225.611074,112.409116
225.600000,112.325000
225.600000,111.675000
225.611074,111.590884
225.658776,111.488588
225.738588,111.408776
225.840884,111.361074
225.925000,111.350000
226.575000,111.350000
226.659116,111.361074
226.761412,111.408776
226.841224,111.488588
226.888926,111.590884
226.900000,111.675000
Z" /> 
<path style="fill:#000000; fill-opacity:1.000000; stroke:none;fill-rule:evenodd;"
d="M 226.900000,110.325000
226.888926,110.409116
226.841224,110.511412
226.761412,110.591224
226.659116,110.638926
226.575000,110.650000
225.925000,110.650000
225.840884,110.638926
225.738588,110.591224
225.658776,110.511412
225.611074,110.409116
225.600000,110.325000
225.600000,109.675000
225.611074,109.590884
225.658776,109.488588
225.738588,109.408776
225.840884,109.361074
225.925000,109.350000
226.575000,109.350000
226.659116,109.361074
226.761412,109.408776
226.841224,109.488588
226.888926,109.590884
226.900000,109.675000
Z" /> 
<path style="fill:#000000; fill-opacity:1.000000; stroke:none;fill-rule:evenodd;"
d="M 226.900000,108.325000
226.888926,108.409116
226.841224,108.511412
226.761412,108.591224
226.659116,108.638926
226.575000,108.650000
225.925000,108.650000
225.840884,108.638926
225.738588,108.591224
225.658776,108.511412
225.611074,108.409116
225.600000,108.325000
225.600000,107.675000
225.611074,107.590884
225.658776,107.488588
225.738588,107.408776
225.840884,107.361074
225.925000,107.350000
226.575000,107.350000
226.659116,107.361074
226.761412,107.408776
226.841224,107.488588
226.888926,107.590884
226.900000,107.675000
Z" /> 
<path style="fill:#000000; fill-opacity:1.000000; stroke:none;fill-rule:evenodd;"
d="M 239.400000,113.100000
239.400000,114.900000
237.600000,114.900000
237.600000,113.100000
Z" /> 
<path style="fill:#000000; fill-opacity:1.000000; stroke:none;fill-rule:evenodd;"
d="M 236.900000,113.100000
236.900000,114.900000
235.100000,114.900000
235.100000,113.100000
Z" /> 
<path style="fill:#000000; fill-opacity:1.000000; stroke:none;fill-rule:evenodd;"
d="M 234.400000,113.100000
234.400000,114.900000
232.600000,114.900000
232.600000,113.100000
Z" /> 
<path style="fill:#000000; fill-opacity:1.000000; stroke:none;fill-rule:evenodd;"
d="M 242.250000,105.500000
242.250000,108.500000
239.750000,108.500000
239.750000,105.500000
Z" /> 
<path style="fill:#000000; fill-opacity:1.000000; stroke:none;fill-rule:evenodd;"
d="M 232.250000,105.500000
232.250000,108.500000
229.750000,108.500000
229.750000,105.500000
Z" /> 
<path style="fill:#000000; fill-opacity:1.000000; stroke:none;fill-rule:evenodd;"
d="M 215.400000,113.100000
215.400000,114.900000
213.600000,114.900000
213.600000,113.100000
Z" /> 
<path style="fill:#000000; fill-opacity:1.000000; stroke:none;fill-rule:evenodd;"
d="M 212.900000,113.100000
212.900000,114.900000
211.100000,114.900000
211.100000,113.100000
Z" /> 
<path style="fill:#000000; fill-opacity:1.000000; stroke:none;fill-rule:evenodd;"
d="M 210.400000,113.100000
210.400000,114.900000
208.600000,114.900000
208.600000,113.100000
Z" /> 
<path style="fill:#000000; fill-opacity:1.000000; stroke:none;fill-rule:evenodd;"
d="M 218.250000,105.500000
218.250000,108.500000
215.750000,108.500000
215.750000,105.500000
Z" /> 
<path style="fill:#000000; fill-opacity:1.000000; stroke:none;fill-rule:evenodd;"
d="M 208.250000,105.500000
208.250000,108.500000
205.750000,108.500000
205.750000,105.500000
Z" /> 
</g> 
</svg>
