<?xml version="1.0" standalone="no"?>
 <!DOCTYPE svg PUBLIC "-//W3C//DTD SVG 1.1//EN" 
 "http://www.w3.org/Graphics/SVG/1.1/DTD/svg11.dtd"> 
<svg
  xmlns:svg="http://www.w3.org/2000/svg"
  xmlns="http://www.w3.org/2000/svg"
  xmlns:xlink="http://www.w3.org/1999/xlink"
  version="1.1"
  width="297.002200mm" height="210.007200mm" viewBox="0.000000 0.000000 297.002200 210.007200">
<title>SVG Image created as tone_block-F_Silkscreen.svg date 2025/01/03 15:08:53 </title>
  <desc>Image generated by PCBNEW </desc>
<g style="fill:#000000; fill-opacity:1.000000;stroke:#000000; stroke-opacity:1.000000;
stroke-linecap:round; stroke-linejoin:round;"
 transform="translate(0 0) scale(1 1)">
</g>
<g style="fill:none; 
stroke:#000000; stroke-width:0.150000; stroke-opacity:1; 
stroke-linecap:round; stroke-linejoin:round;">
<text x="236.000000" y="101.500000"
textLength="4.154762" font-size="1.333333" lengthAdjust="spacingAndGlyphs"
text-anchor="middle" opacity="0" stroke-opacity="0">RESO</text>
<g class="stroked-text"><desc>RESO</desc>
<path d="M234.857142 101.454819
L234.523809 100.978628
" />
<path d="M234.285714 101.454819
L234.285714 100.454819
" />
<path d="M234.285714 100.454819
L234.666666 100.454819
" />
<path d="M234.666666 100.454819
L234.761904 100.502438
" />
<path d="M234.761904 100.502438
L234.809523 100.550057
" />
<path d="M234.809523 100.550057
L234.857142 100.645295
" />
<path d="M234.857142 100.645295
L234.857142 100.788152
" />
<path d="M234.857142 100.788152
L234.809523 100.883390
" />
<path d="M234.809523 100.883390
L234.761904 100.931009
" />
<path d="M234.761904 100.931009
L234.666666 100.978628
" />
<path d="M234.666666 100.978628
L234.285714 100.978628
" />
<path d="M235.285714 100.931009
L235.619047 100.931009
" />
<path d="M235.761904 101.454819
L235.285714 101.454819
" />
<path d="M235.285714 101.454819
L235.285714 100.454819
" />
<path d="M235.285714 100.454819
L235.761904 100.454819
" />
<path d="M236.142857 101.407200
L236.285714 101.454819
" />
<path d="M236.285714 101.454819
L236.523809 101.454819
" />
<path d="M236.523809 101.454819
L236.619047 101.407200
" />
<path d="M236.619047 101.407200
L236.666666 101.359580
" />
<path d="M236.666666 101.359580
L236.714285 101.264342
" />
<path d="M236.714285 101.264342
L236.714285 101.169104
" />
<path d="M236.714285 101.169104
L236.666666 101.073866
" />
<path d="M236.666666 101.073866
L236.619047 101.026247
" />
<path d="M236.619047 101.026247
L236.523809 100.978628
" />
<path d="M236.523809 100.978628
L236.333333 100.931009
" />
<path d="M236.333333 100.931009
L236.238095 100.883390
" />
<path d="M236.238095 100.883390
L236.190476 100.835771
" />
<path d="M236.190476 100.835771
L236.142857 100.740533
" />
<path d="M236.142857 100.740533
L236.142857 100.645295
" />
<path d="M236.142857 100.645295
L236.190476 100.550057
" />
<path d="M236.190476 100.550057
L236.238095 100.502438
" />
<path d="M236.238095 100.502438
L236.333333 100.454819
" />
<path d="M236.333333 100.454819
L236.571428 100.454819
" />
<path d="M236.571428 100.454819
L236.714285 100.502438
" />
<path d="M237.333333 100.454819
L237.523809 100.454819
" />
<path d="M237.523809 100.454819
L237.619047 100.502438
" />
<path d="M237.619047 100.502438
L237.714285 100.597676
" />
<path d="M237.714285 100.597676
L237.761904 100.788152
" />
<path d="M237.761904 100.788152
L237.761904 101.121485
" />
<path d="M237.761904 101.121485
L237.714285 101.311961
" />
<path d="M237.714285 101.311961
L237.619047 101.407200
" />
<path d="M237.619047 101.407200
L237.523809 101.454819
" />
<path d="M237.523809 101.454819
L237.333333 101.454819
" />
<path d="M237.333333 101.454819
L237.238095 101.407200
" />
<path d="M237.238095 101.407200
L237.142857 101.311961
" />
<path d="M237.142857 101.311961
L237.095238 101.121485
" />
<path d="M237.095238 101.121485
L237.095238 100.788152
" />
<path d="M237.095238 100.788152
L237.142857 100.597676
" />
<path d="M237.142857 100.597676
L237.238095 100.502438
" />
<path d="M237.238095 100.502438
L237.333333 100.454819
" />
</g><g transform="rotate(-90.000000 216.450000 114.876190)">
<text x="216.450000" y="115.276190"
textLength="2.575714" font-size="1.066666" lengthAdjust="spacingAndGlyphs"
text-anchor="middle" opacity="0" stroke-opacity="0">OUT</text>
</g>
<g class="stroked-text"><desc>OUT</desc>
<path d="M216.012295 115.676189
L216.012295 115.523808
" />
<path d="M216.012295 115.523808
L216.050390 115.447618
" />
<path d="M216.050390 115.447618
L216.126580 115.371427
" />
<path d="M216.126580 115.371427
L216.278961 115.333332
" />
<path d="M216.278961 115.333332
L216.545628 115.333332
" />
<path d="M216.545628 115.333332
L216.698009 115.371427
" />
<path d="M216.698009 115.371427
L216.774200 115.447618
" />
<path d="M216.774200 115.447618
L216.812295 115.523808
" />
<path d="M216.812295 115.523808
L216.812295 115.676189
" />
<path d="M216.812295 115.676189
L216.774200 115.752380
" />
<path d="M216.774200 115.752380
L216.698009 115.828570
" />
<path d="M216.698009 115.828570
L216.545628 115.866666
" />
<path d="M216.545628 115.866666
L216.278961 115.866666
" />
<path d="M216.278961 115.866666
L216.126580 115.828570
" />
<path d="M216.126580 115.828570
L216.050390 115.752380
" />
<path d="M216.050390 115.752380
L216.012295 115.676189
" />
<path d="M216.012295 114.990475
L216.659914 114.990475
" />
<path d="M216.659914 114.990475
L216.736104 114.952380
" />
<path d="M216.736104 114.952380
L216.774200 114.914285
" />
<path d="M216.774200 114.914285
L216.812295 114.838094
" />
<path d="M216.812295 114.838094
L216.812295 114.685713
" />
<path d="M216.812295 114.685713
L216.774200 114.609523
" />
<path d="M216.774200 114.609523
L216.736104 114.571428
" />
<path d="M216.736104 114.571428
L216.659914 114.533332
" />
<path d="M216.659914 114.533332
L216.012295 114.533332
" />
<path d="M216.012295 114.266666
L216.012295 113.809523
" />
<path d="M216.812295 114.038095
L216.012295 114.038095
" />
</g></g>
<g style="fill:none; 
stroke:#000000; stroke-width:0.125000; stroke-opacity:1; 
stroke-linecap:round; stroke-linejoin:round;">
<text x="243.500000" y="119.250000"
textLength="6.370235" font-size="0.666666" lengthAdjust="spacingAndGlyphs"
text-anchor="middle" opacity="0" stroke-opacity="0">Tone Block v3.0</text>
<g class="stroked-text"><desc>Tone Block v3.0</desc>
<path d="M240.500002 118.724809
L240.785716 118.724809
" />
<path d="M240.642859 119.224809
L240.642859 118.724809
" />
<path d="M241.023811 119.224809
L240.976192 119.201000
" />
<path d="M240.976192 119.201000
L240.952382 119.177190
" />
<path d="M240.952382 119.177190
L240.928573 119.129571
" />
<path d="M240.928573 119.129571
L240.928573 118.986714
" />
<path d="M240.928573 118.986714
L240.952382 118.939095
" />
<path d="M240.952382 118.939095
L240.976192 118.915285
" />
<path d="M240.976192 118.915285
L241.023811 118.891476
" />
<path d="M241.023811 118.891476
L241.095239 118.891476
" />
<path d="M241.095239 118.891476
L241.142858 118.915285
" />
<path d="M241.142858 118.915285
L241.166668 118.939095
" />
<path d="M241.166668 118.939095
L241.190477 118.986714
" />
<path d="M241.190477 118.986714
L241.190477 119.129571
" />
<path d="M241.190477 119.129571
L241.166668 119.177190
" />
<path d="M241.166668 119.177190
L241.142858 119.201000
" />
<path d="M241.142858 119.201000
L241.095239 119.224809
" />
<path d="M241.095239 119.224809
L241.023811 119.224809
" />
<path d="M241.404763 118.891476
L241.404763 119.224809
" />
<path d="M241.404763 118.939095
L241.428573 118.915285
" />
<path d="M241.428573 118.915285
L241.476192 118.891476
" />
<path d="M241.476192 118.891476
L241.547620 118.891476
" />
<path d="M241.547620 118.891476
L241.595239 118.915285
" />
<path d="M241.595239 118.915285
L241.619049 118.962904
" />
<path d="M241.619049 118.962904
L241.619049 119.224809
" />
<path d="M242.047620 119.201000
L242.000001 119.224809
" />
<path d="M242.000001 119.224809
L241.904763 119.224809
" />
<path d="M241.904763 119.224809
L241.857144 119.201000
" />
<path d="M241.857144 119.201000
L241.833335 119.153380
" />
<path d="M241.833335 119.153380
L241.833335 118.962904
" />
<path d="M241.833335 118.962904
L241.857144 118.915285
" />
<path d="M241.857144 118.915285
L241.904763 118.891476
" />
<path d="M241.904763 118.891476
L242.000001 118.891476
" />
<path d="M242.000001 118.891476
L242.047620 118.915285
" />
<path d="M242.047620 118.915285
L242.071430 118.962904
" />
<path d="M242.071430 118.962904
L242.071430 119.010523
" />
<path d="M242.071430 119.010523
L241.833335 119.058142
" />
<path d="M242.833334 118.962904
L242.904762 118.986714
" />
<path d="M242.904762 118.986714
L242.928572 119.010523
" />
<path d="M242.928572 119.010523
L242.952381 119.058142
" />
<path d="M242.952381 119.058142
L242.952381 119.129571
" />
<path d="M242.952381 119.129571
L242.928572 119.177190
" />
<path d="M242.928572 119.177190
L242.904762 119.201000
" />
<path d="M242.904762 119.201000
L242.857143 119.224809
" />
<path d="M242.857143 119.224809
L242.666667 119.224809
" />
<path d="M242.666667 119.224809
L242.666667 118.724809
" />
<path d="M242.666667 118.724809
L242.833334 118.724809
" />
<path d="M242.833334 118.724809
L242.880953 118.748619
" />
<path d="M242.880953 118.748619
L242.904762 118.772428
" />
<path d="M242.904762 118.772428
L242.928572 118.820047
" />
<path d="M242.928572 118.820047
L242.928572 118.867666
" />
<path d="M242.928572 118.867666
L242.904762 118.915285
" />
<path d="M242.904762 118.915285
L242.880953 118.939095
" />
<path d="M242.880953 118.939095
L242.833334 118.962904
" />
<path d="M242.833334 118.962904
L242.666667 118.962904
" />
<path d="M243.238096 119.224809
L243.190477 119.201000
" />
<path d="M243.190477 119.201000
L243.166667 119.153380
" />
<path d="M243.166667 119.153380
L243.166667 118.724809
" />
<path d="M243.500001 119.224809
L243.452382 119.201000
" />
<path d="M243.452382 119.201000
L243.428572 119.177190
" />
<path d="M243.428572 119.177190
L243.404763 119.129571
" />
<path d="M243.404763 119.129571
L243.404763 118.986714
" />
<path d="M243.404763 118.986714
L243.428572 118.939095
" />
<path d="M243.428572 118.939095
L243.452382 118.915285
" />
<path d="M243.452382 118.915285
L243.500001 118.891476
" />
<path d="M243.500001 118.891476
L243.571429 118.891476
" />
<path d="M243.571429 118.891476
L243.619048 118.915285
" />
<path d="M243.619048 118.915285
L243.642858 118.939095
" />
<path d="M243.642858 118.939095
L243.666667 118.986714
" />
<path d="M243.666667 118.986714
L243.666667 119.129571
" />
<path d="M243.666667 119.129571
L243.642858 119.177190
" />
<path d="M243.642858 119.177190
L243.619048 119.201000
" />
<path d="M243.619048 119.201000
L243.571429 119.224809
" />
<path d="M243.571429 119.224809
L243.500001 119.224809
" />
<path d="M244.095239 119.201000
L244.047620 119.224809
" />
<path d="M244.047620 119.224809
L243.952382 119.224809
" />
<path d="M243.952382 119.224809
L243.904763 119.201000
" />
<path d="M243.904763 119.201000
L243.880953 119.177190
" />
<path d="M243.880953 119.177190
L243.857144 119.129571
" />
<path d="M243.857144 119.129571
L243.857144 118.986714
" />
<path d="M243.857144 118.986714
L243.880953 118.939095
" />
<path d="M243.880953 118.939095
L243.904763 118.915285
" />
<path d="M243.904763 118.915285
L243.952382 118.891476
" />
<path d="M243.952382 118.891476
L244.047620 118.891476
" />
<path d="M244.047620 118.891476
L244.095239 118.915285
" />
<path d="M244.309524 119.224809
L244.309524 118.724809
" />
<path d="M244.357143 119.034333
L244.500000 119.224809
" />
<path d="M244.500000 118.891476
L244.309524 119.081952
" />
<path d="M245.047619 118.891476
L245.166667 119.224809
" />
<path d="M245.166667 119.224809
L245.285714 118.891476
" />
<path d="M245.428571 118.724809
L245.738095 118.724809
" />
<path d="M245.738095 118.724809
L245.571428 118.915285
" />
<path d="M245.571428 118.915285
L245.642857 118.915285
" />
<path d="M245.642857 118.915285
L245.690476 118.939095
" />
<path d="M245.690476 118.939095
L245.714285 118.962904
" />
<path d="M245.714285 118.962904
L245.738095 119.010523
" />
<path d="M245.738095 119.010523
L245.738095 119.129571
" />
<path d="M245.738095 119.129571
L245.714285 119.177190
" />
<path d="M245.714285 119.177190
L245.690476 119.201000
" />
<path d="M245.690476 119.201000
L245.642857 119.224809
" />
<path d="M245.642857 119.224809
L245.500000 119.224809
" />
<path d="M245.500000 119.224809
L245.452381 119.201000
" />
<path d="M245.452381 119.201000
L245.428571 119.177190
" />
<path d="M245.952380 119.177190
L245.976190 119.201000
" />
<path d="M245.976190 119.201000
L245.952380 119.224809
" />
<path d="M245.952380 119.224809
L245.928571 119.201000
" />
<path d="M245.928571 119.201000
L245.952380 119.177190
" />
<path d="M245.952380 119.177190
L245.952380 119.224809
" />
<path d="M246.285713 118.724809
L246.333332 118.724809
" />
<path d="M246.333332 118.724809
L246.380951 118.748619
" />
<path d="M246.380951 118.748619
L246.404761 118.772428
" />
<path d="M246.404761 118.772428
L246.428570 118.820047
" />
<path d="M246.428570 118.820047
L246.452380 118.915285
" />
<path d="M246.452380 118.915285
L246.452380 119.034333
" />
<path d="M246.452380 119.034333
L246.428570 119.129571
" />
<path d="M246.428570 119.129571
L246.404761 119.177190
" />
<path d="M246.404761 119.177190
L246.380951 119.201000
" />
<path d="M246.380951 119.201000
L246.333332 119.224809
" />
<path d="M246.333332 119.224809
L246.285713 119.224809
" />
<path d="M246.285713 119.224809
L246.238094 119.201000
" />
<path d="M246.238094 119.201000
L246.214285 119.177190
" />
<path d="M246.214285 119.177190
L246.190475 119.129571
" />
<path d="M246.190475 119.129571
L246.166666 119.034333
" />
<path d="M246.166666 119.034333
L246.166666 118.915285
" />
<path d="M246.166666 118.915285
L246.190475 118.820047
" />
<path d="M246.190475 118.820047
L246.214285 118.772428
" />
<path d="M246.214285 118.772428
L246.238094 118.748619
" />
<path d="M246.238094 118.748619
L246.285713 118.724809
" />
</g></g>
<g style="fill:none; 
stroke:#000000; stroke-width:0.150000; stroke-opacity:1; 
stroke-linecap:round; stroke-linejoin:round;">
<g transform="rotate(-90.000000 229.000000 114.800000)">
<text x="229.000000" y="115.200000"
textLength="2.728095" font-size="1.066666" lengthAdjust="spacingAndGlyphs"
text-anchor="middle" opacity="0" stroke-opacity="0">GND</text>
</g>
<g class="stroked-text"><desc>GND</desc>
<path d="M228.600390 115.409523
L228.562295 115.485713
" />
<path d="M228.562295 115.485713
L228.562295 115.599999
" />
<path d="M228.562295 115.599999
L228.600390 115.714285
" />
<path d="M228.600390 115.714285
L228.676580 115.790475
" />
<path d="M228.676580 115.790475
L228.752771 115.828570
" />
<path d="M228.752771 115.828570
L228.905152 115.866666
" />
<path d="M228.905152 115.866666
L229.019438 115.866666
" />
<path d="M229.019438 115.866666
L229.171819 115.828570
" />
<path d="M229.171819 115.828570
L229.248009 115.790475
" />
<path d="M229.248009 115.790475
L229.324200 115.714285
" />
<path d="M229.324200 115.714285
L229.362295 115.599999
" />
<path d="M229.362295 115.599999
L229.362295 115.523808
" />
<path d="M229.362295 115.523808
L229.324200 115.409523
" />
<path d="M229.324200 115.409523
L229.286104 115.371427
" />
<path d="M229.286104 115.371427
L229.019438 115.371427
" />
<path d="M229.019438 115.371427
L229.019438 115.523808
" />
<path d="M229.362295 115.028570
L228.562295 115.028570
" />
<path d="M228.562295 115.028570
L229.362295 114.571427
" />
<path d="M229.362295 114.571427
L228.562295 114.571427
" />
<path d="M229.362295 114.190475
L228.562295 114.190475
" />
<path d="M228.562295 114.190475
L228.562295 113.999999
" />
<path d="M228.562295 113.999999
L228.600390 113.885713
" />
<path d="M228.600390 113.885713
L228.676580 113.809523
" />
<path d="M228.676580 113.809523
L228.752771 113.771428
" />
<path d="M228.752771 113.771428
L228.905152 113.733332
" />
<path d="M228.905152 113.733332
L229.019438 113.733332
" />
<path d="M229.019438 113.733332
L229.171819 113.771428
" />
<path d="M229.171819 113.771428
L229.248009 113.809523
" />
<path d="M229.248009 113.809523
L229.324200 113.885713
" />
<path d="M229.324200 113.885713
L229.362295 113.999999
" />
<path d="M229.362295 113.999999
L229.362295 114.190475
" />
</g><g transform="rotate(-90.000000 219.000000 114.800000)">
<text x="219.000000" y="115.200000"
textLength="2.728095" font-size="1.066666" lengthAdjust="spacingAndGlyphs"
text-anchor="middle" opacity="0" stroke-opacity="0">GND</text>
</g>
<g class="stroked-text"><desc>GND</desc>
<path d="M218.600390 115.409523
L218.562295 115.485713
" />
<path d="M218.562295 115.485713
L218.562295 115.599999
" />
<path d="M218.562295 115.599999
L218.600390 115.714285
" />
<path d="M218.600390 115.714285
L218.676580 115.790475
" />
<path d="M218.676580 115.790475
L218.752771 115.828570
" />
<path d="M218.752771 115.828570
L218.905152 115.866666
" />
<path d="M218.905152 115.866666
L219.019438 115.866666
" />
<path d="M219.019438 115.866666
L219.171819 115.828570
" />
<path d="M219.171819 115.828570
L219.248009 115.790475
" />
<path d="M219.248009 115.790475
L219.324200 115.714285
" />
<path d="M219.324200 115.714285
L219.362295 115.599999
" />
<path d="M219.362295 115.599999
L219.362295 115.523808
" />
<path d="M219.362295 115.523808
L219.324200 115.409523
" />
<path d="M219.324200 115.409523
L219.286104 115.371427
" />
<path d="M219.286104 115.371427
L219.019438 115.371427
" />
<path d="M219.019438 115.371427
L219.019438 115.523808
" />
<path d="M219.362295 115.028570
L218.562295 115.028570
" />
<path d="M218.562295 115.028570
L219.362295 114.571427
" />
<path d="M219.362295 114.571427
L218.562295 114.571427
" />
<path d="M219.362295 114.190475
L218.562295 114.190475
" />
<path d="M218.562295 114.190475
L218.562295 113.999999
" />
<path d="M218.562295 113.999999
L218.600390 113.885713
" />
<path d="M218.600390 113.885713
L218.676580 113.809523
" />
<path d="M218.676580 113.809523
L218.752771 113.771428
" />
<path d="M218.752771 113.771428
L218.905152 113.733332
" />
<path d="M218.905152 113.733332
L219.019438 113.733332
" />
<path d="M219.019438 113.733332
L219.171819 113.771428
" />
<path d="M219.171819 113.771428
L219.248009 113.809523
" />
<path d="M219.248009 113.809523
L219.324200 113.885713
" />
<path d="M219.324200 113.885713
L219.362295 113.999999
" />
<path d="M219.362295 113.999999
L219.362295 114.190475
" />
</g><g transform="rotate(-90.000000 231.550000 115.180952)">
<text x="231.550000" y="115.580952"
textLength="1.966190" font-size="1.066666" lengthAdjust="spacingAndGlyphs"
text-anchor="middle" opacity="0" stroke-opacity="0">V+</text>
</g>
<g class="stroked-text"><desc>V+</desc>
<path d="M231.112295 115.942856
L231.912295 115.676189
" />
<path d="M231.912295 115.676189
L231.112295 115.409523
" />
<path d="M231.607533 115.142856
L231.607533 114.533333
" />
<path d="M231.912295 114.838094
L231.302771 114.838094
" />
</g><g transform="rotate(-90.000000 226.450000 115.409524)">
<text x="226.450000" y="115.809524"
textLength="1.509047" font-size="1.066666" lengthAdjust="spacingAndGlyphs"
text-anchor="middle" opacity="0" stroke-opacity="0">IN</text>
</g>
<g class="stroked-text"><desc>IN</desc>
<path d="M226.812295 115.828570
L226.012295 115.828570
" />
<path d="M226.812295 115.447618
L226.012295 115.447618
" />
<path d="M226.012295 115.447618
L226.812295 114.990475
" />
<path d="M226.812295 114.990475
L226.012295 114.990475
" />
</g><g transform="rotate(-90.000000 221.550000 115.180952)">
<text x="221.550000" y="115.580952"
textLength="1.966190" font-size="1.066666" lengthAdjust="spacingAndGlyphs"
text-anchor="middle" opacity="0" stroke-opacity="0">V+</text>
</g>
<g class="stroked-text"><desc>V+</desc>
<path d="M221.112295 115.942856
L221.912295 115.676189
" />
<path d="M221.912295 115.676189
L221.112295 115.409523
" />
<path d="M221.607533 115.142856
L221.607533 114.533333
" />
<path d="M221.912295 114.838094
L221.302771 114.838094
" />
</g><text x="212.000000" y="101.500000"
textLength="4.059524" font-size="1.333333" lengthAdjust="spacingAndGlyphs"
text-anchor="middle" opacity="0" stroke-opacity="0">FREQ</text>
<g class="stroked-text"><desc>FREQ</desc>
<path d="M210.666666 100.931009
L210.333333 100.931009
" />
<path d="M210.333333 101.454819
L210.333333 100.454819
" />
<path d="M210.333333 100.454819
L210.809523 100.454819
" />
<path d="M211.761904 101.454819
L211.428571 100.978628
" />
<path d="M211.190476 101.454819
L211.190476 100.454819
" />
<path d="M211.190476 100.454819
L211.571428 100.454819
" />
<path d="M211.571428 100.454819
L211.666666 100.502438
" />
<path d="M211.666666 100.502438
L211.714285 100.550057
" />
<path d="M211.714285 100.550057
L211.761904 100.645295
" />
<path d="M211.761904 100.645295
L211.761904 100.788152
" />
<path d="M211.761904 100.788152
L211.714285 100.883390
" />
<path d="M211.714285 100.883390
L211.666666 100.931009
" />
<path d="M211.666666 100.931009
L211.571428 100.978628
" />
<path d="M211.571428 100.978628
L211.190476 100.978628
" />
<path d="M212.190476 100.931009
L212.523809 100.931009
" />
<path d="M212.666666 101.454819
L212.190476 101.454819
" />
<path d="M212.190476 101.454819
L212.190476 100.454819
" />
<path d="M212.190476 100.454819
L212.666666 100.454819
" />
<path d="M213.761904 101.550057
L213.666666 101.502438
" />
<path d="M213.666666 101.502438
L213.571428 101.407200
" />
<path d="M213.571428 101.407200
L213.428571 101.264342
" />
<path d="M213.428571 101.264342
L213.333333 101.216723
" />
<path d="M213.333333 101.216723
L213.238095 101.216723
" />
<path d="M213.285714 101.454819
L213.190476 101.407200
" />
<path d="M213.190476 101.407200
L213.095238 101.311961
" />
<path d="M213.095238 101.311961
L213.047619 101.121485
" />
<path d="M213.047619 101.121485
L213.047619 100.788152
" />
<path d="M213.047619 100.788152
L213.095238 100.597676
" />
<path d="M213.095238 100.597676
L213.190476 100.502438
" />
<path d="M213.190476 100.502438
L213.285714 100.454819
" />
<path d="M213.285714 100.454819
L213.476190 100.454819
" />
<path d="M213.476190 100.454819
L213.571428 100.502438
" />
<path d="M213.571428 100.502438
L213.666666 100.597676
" />
<path d="M213.666666 100.597676
L213.714285 100.788152
" />
<path d="M213.714285 100.788152
L213.714285 101.121485
" />
<path d="M213.714285 101.121485
L213.666666 101.311961
" />
<path d="M213.666666 101.311961
L213.571428 101.407200
" />
<path d="M213.571428 101.407200
L213.476190 101.454819
" />
<path d="M213.476190 101.454819
L213.285714 101.454819
" />
</g></g>
<g style="fill:none; 
stroke:#000000; stroke-width:0.120000; stroke-opacity:1; 
stroke-linecap:round; stroke-linejoin:round;">
<path d="M213.440000 110.007836
L213.440000 109.792164
" />
<path d="M214.160000 110.007836
L214.160000 109.792164
" />
<path d="M218.265000 110.838748
L218.265000 111.361252
" />
<path d="M219.735000 110.838748
L219.735000 111.361252
" />
<path d="M205.920000 103.136359
L205.920000 103.443641
" />
<path d="M206.680000 103.136359
L206.680000 103.443641
" />
<path d="M234.462742 110.177500
L234.937258 110.177500
" />
<path d="M234.462742 111.222500
L234.937258 111.222500
" />
<path d="M213.337258 111.277500
L212.862742 111.277500
" />
<path d="M213.337258 112.322500
L212.862742 112.322500
" />
<path d="M208.962742 109.377500
L209.437258 109.377500
" />
<path d="M208.962742 110.422500
L209.437258 110.422500
" />
<path d="M207.520000 103.443641
L207.520000 103.136359
" />
<path d="M208.280000 103.443641
L208.280000 103.136359
" />
<path d="M207.665000 118.261252
L207.665000 117.738748
" />
<path d="M209.135000 118.261252
L209.135000 117.738748
" />
<path d="M211.700000 116.440000
L211.050000 116.440000
" />
<path d="M211.700000 116.440000
L212.350000 116.440000
" />
<path d="M211.700000 119.560000
L211.050000 119.560000
" />
<path d="M211.700000 119.560000
L212.350000 119.560000
" />
<path style="fill:#000000; fill-opacity:1.000000; 
stroke:#000000; stroke-width:0.120000; stroke-opacity:1; 
stroke-linecap:round; stroke-linejoin:round;fill-rule:evenodd;"
d="M 213.102500,119.840000
212.622500,119.840000
212.862500,119.510000
Z" /> 
</g>
<g style="fill:none; 
stroke:#000000; stroke-width:0.120000; stroke-opacity:1; 
stroke-linecap:round; stroke-linejoin:round;">
<path d="M225.130000 116.170000
L225.130000 118.830000
" />
<path d="M230.270000 116.170000
L225.130000 116.170000
" />
<path d="M230.270000 116.170000
L230.270000 118.830000
" />
<path d="M230.270000 118.830000
L225.130000 118.830000
" />
<path d="M231.540000 116.170000
L232.870000 116.170000
" />
<path d="M232.870000 116.170000
L232.870000 117.500000
" />
<path style="fill:#000000; fill-opacity:1.000000; 
stroke:#000000; stroke-width:0.010000; stroke-opacity:1; 
stroke-linecap:round; stroke-linejoin:round;fill-rule:evenodd;"
d="M 246.427196,116.944375
246.422937,117.012686
246.418036,117.114989
246.412818,117.242951
246.407610,117.388242
246.402740,117.542531
246.400214,117.632292
246.386170,118.156167
245.751894,118.156167
245.764853,117.907459
245.769694,117.805374
245.775268,117.672888
245.781114,117.521915
245.786769,117.364369
245.791541,117.219542
245.805271,116.780334
246.440133,116.780334
Z" /> 
<path style="fill:#000000; fill-opacity:1.000000; 
stroke:#000000; stroke-width:0.010000; stroke-opacity:1; 
stroke-linecap:round; stroke-linejoin:round;fill-rule:evenodd;"
d="M 245.647022,116.974651
245.640917,117.171917
244.620668,117.182500
244.373222,117.185501
244.155546,117.189034
243.969629,117.193039
243.817462,117.197455
243.701035,117.202222
243.622339,117.207278
243.583365,117.212562
243.579647,117.214250
243.562517,117.249356
243.552145,117.298917
243.545417,117.362417
244.974167,117.373563
244.974167,117.754000
243.513667,117.754000
243.513667,118.156167
242.884029,118.156167
242.893366,117.865125
242.901406,117.647314
242.910825,117.467528
242.922507,117.321460
242.937334,117.204806
242.956186,117.113258
242.979947,117.042511
243.009498,116.988260
243.045721,116.946199
243.088463,116.912709
243.126564,116.887884
243.162878,116.866761
243.201054,116.849014
243.244737,116.834317
243.297576,116.822344
243.363218,116.812769
243.445308,116.805267
243.547496,116.799513
243.673428,116.795180
243.826750,116.791943
244.011111,116.789476
244.230158,116.787454
244.487537,116.785551
244.514606,116.785361
245.653128,116.777387
Z" /> 
<path style="fill:#000000; fill-opacity:1.000000; 
stroke:#000000; stroke-width:0.010000; stroke-opacity:1; 
stroke-linecap:round; stroke-linejoin:round;fill-rule:evenodd;"
d="M 237.375334,116.935803
237.374737,116.993642
237.375458,117.041183
237.381265,117.079463
237.395927,117.109517
237.423210,117.132382
237.466883,117.149094
237.530714,117.160688
237.618471,117.168201
237.733921,117.172670
237.880833,117.175129
238.062975,117.176615
238.255948,117.177945
239.047500,117.183973
239.047500,116.780334
239.667871,116.780334
239.652973,117.251292
239.647526,117.394474
239.640706,117.528892
239.633037,117.646846
239.625043,117.740640
239.617247,117.802574
239.614596,117.815567
239.568121,117.918739
239.487987,118.009534
239.382673,118.079636
239.318542,118.105888
239.282004,118.116114
239.237948,118.124490
239.181612,118.131272
239.108239,118.136716
239.013069,118.141081
238.891344,118.144623
238.738304,118.147598
238.549191,118.150264
238.481292,118.151082
237.756334,118.159555
237.756334,117.778655
238.345781,117.771619
238.530044,117.769181
238.676348,117.766196
238.789068,117.761828
238.872575,117.755241
238.931245,117.745599
238.969451,117.732065
238.991567,117.713805
239.001966,117.689981
239.005021,117.659759
239.005167,117.645575
239.005167,117.584667
238.227292,117.584013
237.984361,117.583284
237.779574,117.581341
237.608755,117.577887
237.467724,117.572621
237.352302,117.565248
237.258312,117.555469
237.181575,117.542985
237.117913,117.527499
237.063147,117.508712
237.040928,117.499384
236.934231,117.441836
236.856732,117.373074
236.804747,117.286325
236.774590,117.174819
236.762576,117.031783
236.761965,116.986709
236.761500,116.780334
237.375334,116.780334
Z" /> 
<path style="fill:#000000; fill-opacity:1.000000; 
stroke:#000000; stroke-width:0.010000; stroke-opacity:1; 
stroke-linecap:round; stroke-linejoin:round;fill-rule:evenodd;"
d="M 236.566503,116.976125
236.560417,117.171917
235.425824,117.177391
235.176715,117.178673
234.966530,117.179999
234.791859,117.181492
234.649292,117.183277
234.535420,117.185476
234.446832,117.188214
234.380120,117.191613
234.331874,117.195798
234.298683,117.200892
234.277139,117.207019
234.263832,117.214302
234.257975,117.219724
234.237172,117.264217
234.221009,117.347384
234.210062,117.457667
234.203963,117.553263
234.203180,117.616947
234.208851,117.658934
234.222112,117.689440
234.238318,117.711667
234.281231,117.764584
235.418060,117.771367
236.554888,117.778151
236.542010,117.856034
236.534232,117.925199
236.529519,118.009580
236.528900,118.045042
236.528667,118.156167
235.348625,118.153692
235.125259,118.152897
234.911695,118.151510
234.712222,118.149601
234.531130,118.147240
234.372710,118.144496
234.241249,118.141441
234.141039,118.138144
234.076370,118.134675
234.056759,118.132599
233.908644,118.091407
233.788949,118.023044
233.700568,117.929729
233.647974,117.819085
233.639082,117.760719
233.635815,117.672024
233.637488,117.563127
233.643419,117.444152
233.652924,117.325225
233.665319,117.216472
233.679921,117.128018
233.696045,117.069988
233.698981,117.063697
233.766573,116.971186
233.859090,116.893202
233.925398,116.857370
233.969846,116.841222
234.022251,116.827416
234.086008,116.815782
234.164506,116.806149
234.261139,116.798344
234.379299,116.792198
234.522377,116.787538
234.693767,116.784193
234.896858,116.781992
235.135045,116.780765
235.411719,116.780339
235.451493,116.780334
236.572589,116.780334
Z" /> 
<path style="fill:#000000; fill-opacity:1.000000; 
stroke:#000000; stroke-width:0.010000; stroke-opacity:1; 
stroke-linecap:round; stroke-linejoin:round;fill-rule:evenodd;"
d="M 242.458289,116.782707
242.579643,116.783297
242.669247,116.784247
242.723241,116.785556
242.738007,116.786754
242.750615,116.811575
242.756507,116.874891
242.755822,116.978306
242.755456,116.989252
242.748662,117.182500
241.642195,117.182500
241.396808,117.182572
241.190284,117.182865
241.019152,117.183493
240.879941,117.184573
240.769180,117.186220
240.683400,117.188548
240.619129,117.191674
240.572897,117.195712
240.541233,117.200777
240.520666,117.206986
240.507727,117.214452
240.501437,117.220391
240.480977,117.261294
240.465454,117.335537
240.454005,117.447381
240.453209,117.458516
240.447454,117.553968
240.446959,117.617538
240.452902,117.659480
240.466464,117.690049
240.482335,117.711667
240.525398,117.764584
242.730500,117.778200
242.730500,117.868979
242.727317,117.950662
242.719428,118.039093
242.717040,118.057963
242.703579,118.156167
241.526415,118.154484
241.251761,118.153839
241.016478,118.152705
240.817604,118.151012
240.652178,118.148694
240.517240,118.145682
240.409827,118.141910
240.326980,118.137308
240.265738,118.131810
240.223138,118.125347
240.219468,118.124575
240.098793,118.092132
240.009362,118.051688
239.940134,117.997244
239.900553,117.951258
239.841250,117.873305
239.842493,117.512028
239.843388,117.377630
239.845540,117.278015
239.849744,117.205637
239.856797,117.152949
239.867494,117.112403
239.882630,117.076453
239.889923,117.062018
239.961330,116.962556
240.062060,116.886191
240.190500,116.831128
240.218662,116.822947
240.251395,116.815959
240.292246,116.810043
240.344758,116.805074
240.412477,116.800931
240.498947,116.797490
240.607713,116.794628
240.742320,116.792222
240.906311,116.790150
241.103233,116.788287
241.336629,116.786513
241.510341,116.785343
241.732554,116.784057
241.942316,116.783154
242.135765,116.782632
242.309043,116.782484
Z" /> 
</g>
<g style="fill:none; 
stroke:#000000; stroke-width:0.120000; stroke-opacity:1; 
stroke-linecap:round; stroke-linejoin:round;">
<path d="M228.820000 110.046359
L228.820000 110.353641
" />
<path d="M229.580000 110.046359
L229.580000 110.353641
" />
<path d="M209.335000 105.275000
L209.335000 103.325000
" />
<path d="M209.335000 105.275000
L209.335000 107.225000
" />
<path d="M214.455000 105.275000
L214.455000 103.325000
" />
<path d="M214.455000 105.275000
L214.455000 107.225000
" />
<path style="fill:#000000; fill-opacity:1.000000; 
stroke:#000000; stroke-width:0.120000; stroke-opacity:1; 
stroke-linecap:round; stroke-linejoin:round;fill-rule:evenodd;"
d="M 214.690000,102.815000
214.360000,102.575000
214.690000,102.335000
Z" /> 
</g>
<g style="fill:none; 
stroke:#000000; stroke-width:0.120000; stroke-opacity:1; 
stroke-linecap:round; stroke-linejoin:round;">
<path d="M215.130000 116.170000
L215.130000 118.830000
" />
<path d="M220.270000 116.170000
L215.130000 116.170000
" />
<path d="M220.270000 116.170000
L220.270000 118.830000
" />
<path d="M220.270000 118.830000
L215.130000 118.830000
" />
<path d="M221.540000 116.170000
L222.870000 116.170000
" />
<path d="M222.870000 116.170000
L222.870000 117.500000
" />
<path d="M227.720000 110.353641
L227.720000 110.046359
" />
<path d="M228.480000 110.353641
L228.480000 110.046359
" />
<path d="M234.438748 108.065000
L234.961252 108.065000
" />
<path d="M234.438748 109.535000
L234.961252 109.535000
" />
<path d="M208.938748 111.065000
L209.461252 111.065000
" />
<path d="M208.938748 112.535000
L209.461252 112.535000
" />
</g> 
</svg>
