<?xml version="1.0" standalone="no"?>
 <!DOCTYPE svg PUBLIC "-//W3C//DTD SVG 1.1//EN" 
 "http://www.w3.org/Graphics/SVG/1.1/DTD/svg11.dtd"> 
<svg
  xmlns:svg="http://www.w3.org/2000/svg"
  xmlns="http://www.w3.org/2000/svg"
  xmlns:xlink="http://www.w3.org/1999/xlink"
  version="1.1"
  width="297.002200mm" height="210.007200mm" viewBox="0.000000 0.000000 297.002200 210.007200">
<title>SVG Image created as tone_block-B_Silkscreen.svg date 2025/01/03 15:08:53 </title>
  <desc>Image generated by PCBNEW </desc>
<g style="fill:#000000; fill-opacity:1.000000;stroke:#000000; stroke-opacity:1.000000;
stroke-linecap:round; stroke-linejoin:round;"
 transform="translate(0 0) scale(1 1)">
</g>
<g style="fill:none; 
stroke:#000000; stroke-width:0.125000; stroke-opacity:1; 
stroke-linecap:round; stroke-linejoin:round;">
<text x="236.500000" y="119.250000"
transform="scale(-1 1) translate(-473.000000 0)"
textLength="6.370235" font-size="0.666666" lengthAdjust="spacingAndGlyphs"
text-anchor="middle" opacity="0" stroke-opacity="0">Tone Block v3.0</text>
<g class="stroked-text"><desc>Tone Block v3.0</desc>
<path d="M239.499997 118.724809
L239.214283 118.724809
" />
<path d="M239.357140 119.224809
L239.357140 118.724809
" />
<path d="M238.976188 119.224809
L239.023807 119.201000
" />
<path d="M239.023807 119.201000
L239.047617 119.177190
" />
<path d="M239.047617 119.177190
L239.071426 119.129571
" />
<path d="M239.071426 119.129571
L239.071426 118.986714
" />
<path d="M239.071426 118.986714
L239.047617 118.939095
" />
<path d="M239.047617 118.939095
L239.023807 118.915285
" />
<path d="M239.023807 118.915285
L238.976188 118.891476
" />
<path d="M238.976188 118.891476
L238.904760 118.891476
" />
<path d="M238.904760 118.891476
L238.857141 118.915285
" />
<path d="M238.857141 118.915285
L238.833331 118.939095
" />
<path d="M238.833331 118.939095
L238.809522 118.986714
" />
<path d="M238.809522 118.986714
L238.809522 119.129571
" />
<path d="M238.809522 119.129571
L238.833331 119.177190
" />
<path d="M238.833331 119.177190
L238.857141 119.201000
" />
<path d="M238.857141 119.201000
L238.904760 119.224809
" />
<path d="M238.904760 119.224809
L238.976188 119.224809
" />
<path d="M238.595236 118.891476
L238.595236 119.224809
" />
<path d="M238.595236 118.939095
L238.571426 118.915285
" />
<path d="M238.571426 118.915285
L238.523807 118.891476
" />
<path d="M238.523807 118.891476
L238.452379 118.891476
" />
<path d="M238.452379 118.891476
L238.404760 118.915285
" />
<path d="M238.404760 118.915285
L238.380950 118.962904
" />
<path d="M238.380950 118.962904
L238.380950 119.224809
" />
<path d="M237.952379 119.201000
L237.999998 119.224809
" />
<path d="M237.999998 119.224809
L238.095236 119.224809
" />
<path d="M238.095236 119.224809
L238.142855 119.201000
" />
<path d="M238.142855 119.201000
L238.166664 119.153380
" />
<path d="M238.166664 119.153380
L238.166664 118.962904
" />
<path d="M238.166664 118.962904
L238.142855 118.915285
" />
<path d="M238.142855 118.915285
L238.095236 118.891476
" />
<path d="M238.095236 118.891476
L237.999998 118.891476
" />
<path d="M237.999998 118.891476
L237.952379 118.915285
" />
<path d="M237.952379 118.915285
L237.928569 118.962904
" />
<path d="M237.928569 118.962904
L237.928569 119.010523
" />
<path d="M237.928569 119.010523
L238.166664 119.058142
" />
<path d="M237.166665 118.962904
L237.095237 118.986714
" />
<path d="M237.095237 118.986714
L237.071427 119.010523
" />
<path d="M237.071427 119.010523
L237.047618 119.058142
" />
<path d="M237.047618 119.058142
L237.047618 119.129571
" />
<path d="M237.047618 119.129571
L237.071427 119.177190
" />
<path d="M237.071427 119.177190
L237.095237 119.201000
" />
<path d="M237.095237 119.201000
L237.142856 119.224809
" />
<path d="M237.142856 119.224809
L237.333332 119.224809
" />
<path d="M237.333332 119.224809
L237.333332 118.724809
" />
<path d="M237.333332 118.724809
L237.166665 118.724809
" />
<path d="M237.166665 118.724809
L237.119046 118.748619
" />
<path d="M237.119046 118.748619
L237.095237 118.772428
" />
<path d="M237.095237 118.772428
L237.071427 118.820047
" />
<path d="M237.071427 118.820047
L237.071427 118.867666
" />
<path d="M237.071427 118.867666
L237.095237 118.915285
" />
<path d="M237.095237 118.915285
L237.119046 118.939095
" />
<path d="M237.119046 118.939095
L237.166665 118.962904
" />
<path d="M237.166665 118.962904
L237.333332 118.962904
" />
<path d="M236.761903 119.224809
L236.809522 119.201000
" />
<path d="M236.809522 119.201000
L236.833332 119.153380
" />
<path d="M236.833332 119.153380
L236.833332 118.724809
" />
<path d="M236.499998 119.224809
L236.547617 119.201000
" />
<path d="M236.547617 119.201000
L236.571427 119.177190
" />
<path d="M236.571427 119.177190
L236.595236 119.129571
" />
<path d="M236.595236 119.129571
L236.595236 118.986714
" />
<path d="M236.595236 118.986714
L236.571427 118.939095
" />
<path d="M236.571427 118.939095
L236.547617 118.915285
" />
<path d="M236.547617 118.915285
L236.499998 118.891476
" />
<path d="M236.499998 118.891476
L236.428570 118.891476
" />
<path d="M236.428570 118.891476
L236.380951 118.915285
" />
<path d="M236.380951 118.915285
L236.357141 118.939095
" />
<path d="M236.357141 118.939095
L236.333332 118.986714
" />
<path d="M236.333332 118.986714
L236.333332 119.129571
" />
<path d="M236.333332 119.129571
L236.357141 119.177190
" />
<path d="M236.357141 119.177190
L236.380951 119.201000
" />
<path d="M236.380951 119.201000
L236.428570 119.224809
" />
<path d="M236.428570 119.224809
L236.499998 119.224809
" />
<path d="M235.904760 119.201000
L235.952379 119.224809
" />
<path d="M235.952379 119.224809
L236.047617 119.224809
" />
<path d="M236.047617 119.224809
L236.095236 119.201000
" />
<path d="M236.095236 119.201000
L236.119046 119.177190
" />
<path d="M236.119046 119.177190
L236.142855 119.129571
" />
<path d="M236.142855 119.129571
L236.142855 118.986714
" />
<path d="M236.142855 118.986714
L236.119046 118.939095
" />
<path d="M236.119046 118.939095
L236.095236 118.915285
" />
<path d="M236.095236 118.915285
L236.047617 118.891476
" />
<path d="M236.047617 118.891476
L235.952379 118.891476
" />
<path d="M235.952379 118.891476
L235.904760 118.915285
" />
<path d="M235.690475 119.224809
L235.690475 118.724809
" />
<path d="M235.642856 119.034333
L235.499999 119.224809
" />
<path d="M235.499999 118.891476
L235.690475 119.081952
" />
<path d="M234.952380 118.891476
L234.833332 119.224809
" />
<path d="M234.833332 119.224809
L234.714285 118.891476
" />
<path d="M234.571428 118.724809
L234.261904 118.724809
" />
<path d="M234.261904 118.724809
L234.428571 118.915285
" />
<path d="M234.428571 118.915285
L234.357142 118.915285
" />
<path d="M234.357142 118.915285
L234.309523 118.939095
" />
<path d="M234.309523 118.939095
L234.285714 118.962904
" />
<path d="M234.285714 118.962904
L234.261904 119.010523
" />
<path d="M234.261904 119.010523
L234.261904 119.129571
" />
<path d="M234.261904 119.129571
L234.285714 119.177190
" />
<path d="M234.285714 119.177190
L234.309523 119.201000
" />
<path d="M234.309523 119.201000
L234.357142 119.224809
" />
<path d="M234.357142 119.224809
L234.499999 119.224809
" />
<path d="M234.499999 119.224809
L234.547618 119.201000
" />
<path d="M234.547618 119.201000
L234.571428 119.177190
" />
<path d="M234.047619 119.177190
L234.023809 119.201000
" />
<path d="M234.023809 119.201000
L234.047619 119.224809
" />
<path d="M234.047619 119.224809
L234.071428 119.201000
" />
<path d="M234.071428 119.201000
L234.047619 119.177190
" />
<path d="M234.047619 119.177190
L234.047619 119.224809
" />
<path d="M233.714286 118.724809
L233.666667 118.724809
" />
<path d="M233.666667 118.724809
L233.619048 118.748619
" />
<path d="M233.619048 118.748619
L233.595238 118.772428
" />
<path d="M233.595238 118.772428
L233.571429 118.820047
" />
<path d="M233.571429 118.820047
L233.547619 118.915285
" />
<path d="M233.547619 118.915285
L233.547619 119.034333
" />
<path d="M233.547619 119.034333
L233.571429 119.129571
" />
<path d="M233.571429 119.129571
L233.595238 119.177190
" />
<path d="M233.595238 119.177190
L233.619048 119.201000
" />
<path d="M233.619048 119.201000
L233.666667 119.224809
" />
<path d="M233.666667 119.224809
L233.714286 119.224809
" />
<path d="M233.714286 119.224809
L233.761905 119.201000
" />
<path d="M233.761905 119.201000
L233.785714 119.177190
" />
<path d="M233.785714 119.177190
L233.809524 119.129571
" />
<path d="M233.809524 119.129571
L233.833333 119.034333
" />
<path d="M233.833333 119.034333
L233.833333 118.915285
" />
<path d="M233.833333 118.915285
L233.809524 118.820047
" />
<path d="M233.809524 118.820047
L233.785714 118.772428
" />
<path d="M233.785714 118.772428
L233.761905 118.748619
" />
<path d="M233.761905 118.748619
L233.714286 118.724809
" />
</g></g>
<g style="fill:none; 
stroke:#000000; stroke-width:0.150000; stroke-opacity:1; 
stroke-linecap:round; stroke-linejoin:round;">
<g transform="rotate(-90.000000 229.000000 114.800000)">
<text x="229.000000" y="115.200000"
transform="scale(-1 1) translate(-458.000000 0)"
textLength="2.728095" font-size="1.066666" lengthAdjust="spacingAndGlyphs"
text-anchor="middle" opacity="0" stroke-opacity="0">GND</text>
</g>
<g class="stroked-text"><desc>GND</desc>
<path d="M228.600390 114.190476
L228.562295 114.114286
" />
<path d="M228.562295 114.114286
L228.562295 114.000000
" />
<path d="M228.562295 114.000000
L228.600390 113.885714
" />
<path d="M228.600390 113.885714
L228.676580 113.809524
" />
<path d="M228.676580 113.809524
L228.752771 113.771429
" />
<path d="M228.752771 113.771429
L228.905152 113.733333
" />
<path d="M228.905152 113.733333
L229.019438 113.733333
" />
<path d="M229.019438 113.733333
L229.171819 113.771429
" />
<path d="M229.171819 113.771429
L229.248009 113.809524
" />
<path d="M229.248009 113.809524
L229.324200 113.885714
" />
<path d="M229.324200 113.885714
L229.362295 114.000000
" />
<path d="M229.362295 114.000000
L229.362295 114.076191
" />
<path d="M229.362295 114.076191
L229.324200 114.190476
" />
<path d="M229.324200 114.190476
L229.286104 114.228572
" />
<path d="M229.286104 114.228572
L229.019438 114.228572
" />
<path d="M229.019438 114.228572
L229.019438 114.076191
" />
<path d="M229.362295 114.571429
L228.562295 114.571429
" />
<path d="M228.562295 114.571429
L229.362295 115.028572
" />
<path d="M229.362295 115.028572
L228.562295 115.028572
" />
<path d="M229.362295 115.409524
L228.562295 115.409524
" />
<path d="M228.562295 115.409524
L228.562295 115.600000
" />
<path d="M228.562295 115.600000
L228.600390 115.714286
" />
<path d="M228.600390 115.714286
L228.676580 115.790476
" />
<path d="M228.676580 115.790476
L228.752771 115.828571
" />
<path d="M228.752771 115.828571
L228.905152 115.866667
" />
<path d="M228.905152 115.866667
L229.019438 115.866667
" />
<path d="M229.019438 115.866667
L229.171819 115.828571
" />
<path d="M229.171819 115.828571
L229.248009 115.790476
" />
<path d="M229.248009 115.790476
L229.324200 115.714286
" />
<path d="M229.324200 115.714286
L229.362295 115.600000
" />
<path d="M229.362295 115.600000
L229.362295 115.409524
" />
</g><g transform="rotate(-90.000000 230.100000 102.500000)">
<text x="230.100000" y="103.000000"
transform="scale(-1 1) translate(-460.200000 0)"
textLength="4.154762" font-size="1.333333" lengthAdjust="spacingAndGlyphs"
text-anchor="middle" opacity="0" stroke-opacity="0">RESO</text>
</g>
<g class="stroked-text"><desc>RESO</desc>
<path d="M230.554819 101.357142
L230.078628 101.023809
" />
<path d="M230.554819 100.785714
L229.554819 100.785714
" />
<path d="M229.554819 100.785714
L229.554819 101.166666
" />
<path d="M229.554819 101.166666
L229.602438 101.261904
" />
<path d="M229.602438 101.261904
L229.650057 101.309523
" />
<path d="M229.650057 101.309523
L229.745295 101.357142
" />
<path d="M229.745295 101.357142
L229.888152 101.357142
" />
<path d="M229.888152 101.357142
L229.983390 101.309523
" />
<path d="M229.983390 101.309523
L230.031009 101.261904
" />
<path d="M230.031009 101.261904
L230.078628 101.166666
" />
<path d="M230.078628 101.166666
L230.078628 100.785714
" />
<path d="M230.031009 101.785714
L230.031009 102.119047
" />
<path d="M230.554819 102.261904
L230.554819 101.785714
" />
<path d="M230.554819 101.785714
L229.554819 101.785714
" />
<path d="M229.554819 101.785714
L229.554819 102.261904
" />
<path d="M230.507200 102.642857
L230.554819 102.785714
" />
<path d="M230.554819 102.785714
L230.554819 103.023809
" />
<path d="M230.554819 103.023809
L230.507200 103.119047
" />
<path d="M230.507200 103.119047
L230.459580 103.166666
" />
<path d="M230.459580 103.166666
L230.364342 103.214285
" />
<path d="M230.364342 103.214285
L230.269104 103.214285
" />
<path d="M230.269104 103.214285
L230.173866 103.166666
" />
<path d="M230.173866 103.166666
L230.126247 103.119047
" />
<path d="M230.126247 103.119047
L230.078628 103.023809
" />
<path d="M230.078628 103.023809
L230.031009 102.833333
" />
<path d="M230.031009 102.833333
L229.983390 102.738095
" />
<path d="M229.983390 102.738095
L229.935771 102.690476
" />
<path d="M229.935771 102.690476
L229.840533 102.642857
" />
<path d="M229.840533 102.642857
L229.745295 102.642857
" />
<path d="M229.745295 102.642857
L229.650057 102.690476
" />
<path d="M229.650057 102.690476
L229.602438 102.738095
" />
<path d="M229.602438 102.738095
L229.554819 102.833333
" />
<path d="M229.554819 102.833333
L229.554819 103.071428
" />
<path d="M229.554819 103.071428
L229.602438 103.214285
" />
<path d="M229.554819 103.833333
L229.554819 104.023809
" />
<path d="M229.554819 104.023809
L229.602438 104.119047
" />
<path d="M229.602438 104.119047
L229.697676 104.214285
" />
<path d="M229.697676 104.214285
L229.888152 104.261904
" />
<path d="M229.888152 104.261904
L230.221485 104.261904
" />
<path d="M230.221485 104.261904
L230.411961 104.214285
" />
<path d="M230.411961 104.214285
L230.507200 104.119047
" />
<path d="M230.507200 104.119047
L230.554819 104.023809
" />
<path d="M230.554819 104.023809
L230.554819 103.833333
" />
<path d="M230.554819 103.833333
L230.507200 103.738095
" />
<path d="M230.507200 103.738095
L230.411961 103.642857
" />
<path d="M230.411961 103.642857
L230.221485 103.595238
" />
<path d="M230.221485 103.595238
L229.888152 103.595238
" />
<path d="M229.888152 103.595238
L229.697676 103.642857
" />
<path d="M229.697676 103.642857
L229.602438 103.738095
" />
<path d="M229.602438 103.738095
L229.554819 103.833333
" />
</g><g transform="rotate(-90.000000 221.500000 115.180952)">
<text x="221.500000" y="115.580952"
transform="scale(-1 1) translate(-443.000000 0)"
textLength="1.966190" font-size="1.066666" lengthAdjust="spacingAndGlyphs"
text-anchor="middle" opacity="0" stroke-opacity="0">V+</text>
</g>
<g class="stroked-text"><desc>V+</desc>
<path d="M221.062295 114.419047
L221.862295 114.685714
" />
<path d="M221.862295 114.685714
L221.062295 114.952380
" />
<path d="M221.557533 115.219047
L221.557533 115.828571
" />
<path d="M221.862295 115.523809
L221.252771 115.523809
" />
</g><g transform="rotate(-90.000000 218.000000 102.500000)">
<text x="218.000000" y="103.000000"
transform="scale(-1 1) translate(-436.000000 0)"
textLength="4.059524" font-size="1.333333" lengthAdjust="spacingAndGlyphs"
text-anchor="middle" opacity="0" stroke-opacity="0">FREQ</text>
</g>
<g class="stroked-text"><desc>FREQ</desc>
<path d="M217.931009 101.166666
L217.931009 100.833333
" />
<path d="M218.454819 100.833333
L217.454819 100.833333
" />
<path d="M217.454819 100.833333
L217.454819 101.309523
" />
<path d="M218.454819 102.261904
L217.978628 101.928571
" />
<path d="M218.454819 101.690476
L217.454819 101.690476
" />
<path d="M217.454819 101.690476
L217.454819 102.071428
" />
<path d="M217.454819 102.071428
L217.502438 102.166666
" />
<path d="M217.502438 102.166666
L217.550057 102.214285
" />
<path d="M217.550057 102.214285
L217.645295 102.261904
" />
<path d="M217.645295 102.261904
L217.788152 102.261904
" />
<path d="M217.788152 102.261904
L217.883390 102.214285
" />
<path d="M217.883390 102.214285
L217.931009 102.166666
" />
<path d="M217.931009 102.166666
L217.978628 102.071428
" />
<path d="M217.978628 102.071428
L217.978628 101.690476
" />
<path d="M217.931009 102.690476
L217.931009 103.023809
" />
<path d="M218.454819 103.166666
L218.454819 102.690476
" />
<path d="M218.454819 102.690476
L217.454819 102.690476
" />
<path d="M217.454819 102.690476
L217.454819 103.166666
" />
<path d="M218.550057 104.261904
L218.502438 104.166666
" />
<path d="M218.502438 104.166666
L218.407200 104.071428
" />
<path d="M218.407200 104.071428
L218.264342 103.928571
" />
<path d="M218.264342 103.928571
L218.216723 103.833333
" />
<path d="M218.216723 103.833333
L218.216723 103.738095
" />
<path d="M218.454819 103.785714
L218.407200 103.690476
" />
<path d="M218.407200 103.690476
L218.311961 103.595238
" />
<path d="M218.311961 103.595238
L218.121485 103.547619
" />
<path d="M218.121485 103.547619
L217.788152 103.547619
" />
<path d="M217.788152 103.547619
L217.597676 103.595238
" />
<path d="M217.597676 103.595238
L217.502438 103.690476
" />
<path d="M217.502438 103.690476
L217.454819 103.785714
" />
<path d="M217.454819 103.785714
L217.454819 103.976190
" />
<path d="M217.454819 103.976190
L217.502438 104.071428
" />
<path d="M217.502438 104.071428
L217.597676 104.166666
" />
<path d="M217.597676 104.166666
L217.788152 104.214285
" />
<path d="M217.788152 104.214285
L218.121485 104.214285
" />
<path d="M218.121485 104.214285
L218.311961 104.166666
" />
<path d="M218.311961 104.166666
L218.407200 104.071428
" />
<path d="M218.407200 104.071428
L218.454819 103.976190
" />
<path d="M218.454819 103.976190
L218.454819 103.785714
" />
</g><g transform="rotate(-90.000000 231.500000 115.180952)">
<text x="231.500000" y="115.580952"
transform="scale(-1 1) translate(-463.000000 0)"
textLength="1.966190" font-size="1.066666" lengthAdjust="spacingAndGlyphs"
text-anchor="middle" opacity="0" stroke-opacity="0">V+</text>
</g>
<g class="stroked-text"><desc>V+</desc>
<path d="M231.062295 114.419047
L231.862295 114.685714
" />
<path d="M231.862295 114.685714
L231.062295 114.952380
" />
<path d="M231.557533 115.219047
L231.557533 115.828571
" />
<path d="M231.862295 115.523809
L231.252771 115.523809
" />
</g><g transform="rotate(-90.000000 219.000000 114.800000)">
<text x="219.000000" y="115.200000"
transform="scale(-1 1) translate(-438.000000 0)"
textLength="2.728095" font-size="1.066666" lengthAdjust="spacingAndGlyphs"
text-anchor="middle" opacity="0" stroke-opacity="0">GND</text>
</g>
<g class="stroked-text"><desc>GND</desc>
<path d="M218.600390 114.190476
L218.562295 114.114286
" />
<path d="M218.562295 114.114286
L218.562295 114.000000
" />
<path d="M218.562295 114.000000
L218.600390 113.885714
" />
<path d="M218.600390 113.885714
L218.676580 113.809524
" />
<path d="M218.676580 113.809524
L218.752771 113.771429
" />
<path d="M218.752771 113.771429
L218.905152 113.733333
" />
<path d="M218.905152 113.733333
L219.019438 113.733333
" />
<path d="M219.019438 113.733333
L219.171819 113.771429
" />
<path d="M219.171819 113.771429
L219.248009 113.809524
" />
<path d="M219.248009 113.809524
L219.324200 113.885714
" />
<path d="M219.324200 113.885714
L219.362295 114.000000
" />
<path d="M219.362295 114.000000
L219.362295 114.076191
" />
<path d="M219.362295 114.076191
L219.324200 114.190476
" />
<path d="M219.324200 114.190476
L219.286104 114.228572
" />
<path d="M219.286104 114.228572
L219.019438 114.228572
" />
<path d="M219.019438 114.228572
L219.019438 114.076191
" />
<path d="M219.362295 114.571429
L218.562295 114.571429
" />
<path d="M218.562295 114.571429
L219.362295 115.028572
" />
<path d="M219.362295 115.028572
L218.562295 115.028572
" />
<path d="M219.362295 115.409524
L218.562295 115.409524
" />
<path d="M218.562295 115.409524
L218.562295 115.600000
" />
<path d="M218.562295 115.600000
L218.600390 115.714286
" />
<path d="M218.600390 115.714286
L218.676580 115.790476
" />
<path d="M218.676580 115.790476
L218.752771 115.828571
" />
<path d="M218.752771 115.828571
L218.905152 115.866667
" />
<path d="M218.905152 115.866667
L219.019438 115.866667
" />
<path d="M219.019438 115.866667
L219.171819 115.828571
" />
<path d="M219.171819 115.828571
L219.248009 115.790476
" />
<path d="M219.248009 115.790476
L219.324200 115.714286
" />
<path d="M219.324200 115.714286
L219.362295 115.600000
" />
<path d="M219.362295 115.600000
L219.362295 115.409524
" />
</g><g transform="rotate(-90.000000 226.500000 115.409524)">
<text x="226.500000" y="115.809524"
transform="scale(-1 1) translate(-453.000000 0)"
textLength="1.509047" font-size="1.066666" lengthAdjust="spacingAndGlyphs"
text-anchor="middle" opacity="0" stroke-opacity="0">IN</text>
</g>
<g class="stroked-text"><desc>IN</desc>
<path d="M226.862295 114.990477
L226.062295 114.990477
" />
<path d="M226.862295 115.371429
L226.062295 115.371429
" />
<path d="M226.062295 115.371429
L226.862295 115.828572
" />
<path d="M226.862295 115.828572
L226.062295 115.828572
" />
</g><g transform="rotate(-90.000000 216.450000 114.876190)">
<text x="216.450000" y="115.276190"
transform="scale(-1 1) translate(-432.900000 0)"
textLength="2.575714" font-size="1.066666" lengthAdjust="spacingAndGlyphs"
text-anchor="middle" opacity="0" stroke-opacity="0">OUT</text>
</g>
<g class="stroked-text"><desc>OUT</desc>
<path d="M216.012295 114.076190
L216.012295 114.228571
" />
<path d="M216.012295 114.228571
L216.050390 114.304761
" />
<path d="M216.050390 114.304761
L216.126580 114.380952
" />
<path d="M216.126580 114.380952
L216.278961 114.419047
" />
<path d="M216.278961 114.419047
L216.545628 114.419047
" />
<path d="M216.545628 114.419047
L216.698009 114.380952
" />
<path d="M216.698009 114.380952
L216.774200 114.304761
" />
<path d="M216.774200 114.304761
L216.812295 114.228571
" />
<path d="M216.812295 114.228571
L216.812295 114.076190
" />
<path d="M216.812295 114.076190
L216.774200 113.999999
" />
<path d="M216.774200 113.999999
L216.698009 113.923809
" />
<path d="M216.698009 113.923809
L216.545628 113.885713
" />
<path d="M216.545628 113.885713
L216.278961 113.885713
" />
<path d="M216.278961 113.885713
L216.126580 113.923809
" />
<path d="M216.126580 113.923809
L216.050390 113.999999
" />
<path d="M216.050390 113.999999
L216.012295 114.076190
" />
<path d="M216.012295 114.761904
L216.659914 114.761904
" />
<path d="M216.659914 114.761904
L216.736104 114.799999
" />
<path d="M216.736104 114.799999
L216.774200 114.838094
" />
<path d="M216.774200 114.838094
L216.812295 114.914285
" />
<path d="M216.812295 114.914285
L216.812295 115.066666
" />
<path d="M216.812295 115.066666
L216.774200 115.142856
" />
<path d="M216.774200 115.142856
L216.736104 115.180951
" />
<path d="M216.736104 115.180951
L216.659914 115.219047
" />
<path d="M216.659914 115.219047
L216.012295 115.219047
" />
<path d="M216.012295 115.485713
L216.012295 115.942856
" />
<path d="M216.812295 115.714284
L216.012295 115.714284
" />
</g><path style="fill:#000000; fill-opacity:1.000000; 
stroke:#000000; stroke-width:0.010000; stroke-opacity:1; 
stroke-linecap:round; stroke-linejoin:round;fill-rule:evenodd;"
d="M 234.208459,117.219542
234.213231,117.364369
234.218886,117.521915
234.224732,117.672888
234.230306,117.805374
234.235147,117.907459
234.248106,118.156167
233.613830,118.156167
233.599786,117.632292
233.597260,117.542531
233.592390,117.388242
233.587182,117.242951
233.581964,117.114989
233.577063,117.012686
233.572804,116.944375
233.559867,116.780334
234.194729,116.780334
Z" /> 
<path style="fill:#000000; fill-opacity:1.000000; 
stroke:#000000; stroke-width:0.010000; stroke-opacity:1; 
stroke-linecap:round; stroke-linejoin:round;fill-rule:evenodd;"
d="M 235.485394,116.785361
235.512463,116.785551
235.769842,116.787454
235.988889,116.789476
236.173250,116.791943
236.326572,116.795180
236.452504,116.799513
236.554692,116.805267
236.636782,116.812769
236.702424,116.822344
236.755263,116.834317
236.798946,116.849014
236.837122,116.866761
236.873436,116.887884
236.911537,116.912709
236.954279,116.946199
236.990502,116.988260
237.020053,117.042511
237.043814,117.113258
237.062666,117.204806
237.077493,117.321460
237.089175,117.467528
237.098594,117.647314
237.106634,117.865125
237.115971,118.156167
236.486333,118.156167
236.486333,117.754000
235.025833,117.754000
235.025833,117.373563
236.454583,117.362417
236.447855,117.298917
236.437483,117.249356
236.420353,117.214250
236.416635,117.212562
236.377661,117.207278
236.298965,117.202222
236.182538,117.197455
236.030371,117.193039
235.844454,117.189034
235.626778,117.185501
235.379332,117.182500
234.359083,117.171917
234.352978,116.974651
234.346872,116.777387
Z" /> 
<path style="fill:#000000; fill-opacity:1.000000; 
stroke:#000000; stroke-width:0.010000; stroke-opacity:1; 
stroke-linecap:round; stroke-linejoin:round;fill-rule:evenodd;"
d="M 240.952500,117.183973
241.744052,117.177945
241.937025,117.176615
242.119167,117.175129
242.266079,117.172670
242.381529,117.168201
242.469286,117.160688
242.533117,117.149094
242.576790,117.132382
242.604073,117.109517
242.618735,117.079463
242.624542,117.041183
242.625263,116.993642
242.624666,116.935803
242.624666,116.780334
243.238500,116.780334
243.238035,116.986709
243.237424,117.031783
243.225410,117.174819
243.195253,117.286325
243.143268,117.373074
243.065769,117.441836
242.959072,117.499384
242.936853,117.508712
242.882087,117.527499
242.818425,117.542985
242.741688,117.555469
242.647698,117.565248
242.532276,117.572621
242.391245,117.577887
242.220426,117.581341
242.015639,117.583284
241.772708,117.584013
240.994833,117.584667
240.994833,117.645575
240.994979,117.659759
240.998034,117.689981
241.008433,117.713805
241.030549,117.732065
241.068755,117.745599
241.127425,117.755241
241.210932,117.761828
241.323652,117.766196
241.469956,117.769181
241.654219,117.771619
242.243666,117.778655
242.243666,118.159555
241.518708,118.151082
241.450809,118.150264
241.261696,118.147598
241.108656,118.144623
240.986931,118.141081
240.891761,118.136716
240.818388,118.131272
240.762052,118.124490
240.717996,118.116114
240.681458,118.105888
240.617327,118.079636
240.512013,118.009534
240.431879,117.918739
240.385404,117.815567
240.382753,117.802574
240.374957,117.740640
240.366963,117.646846
240.359294,117.528892
240.352474,117.394474
240.347027,117.251292
240.332129,116.780334
240.952500,116.780334
Z" /> 
<path style="fill:#000000; fill-opacity:1.000000; 
stroke:#000000; stroke-width:0.010000; stroke-opacity:1; 
stroke-linecap:round; stroke-linejoin:round;fill-rule:evenodd;"
d="M 244.588281,116.780339
244.864955,116.780765
245.103142,116.781992
245.306233,116.784193
245.477623,116.787538
245.620701,116.792198
245.738861,116.798344
245.835494,116.806149
245.913992,116.815782
245.977749,116.827416
246.030154,116.841222
246.074602,116.857370
246.140910,116.893202
246.233427,116.971186
246.301019,117.063697
246.303955,117.069988
246.320079,117.128018
246.334681,117.216472
246.347076,117.325225
246.356581,117.444152
246.362512,117.563127
246.364185,117.672024
246.360918,117.760719
246.352026,117.819085
246.299432,117.929729
246.211051,118.023044
246.091356,118.091407
245.943241,118.132599
245.923630,118.134675
245.858961,118.138144
245.758751,118.141441
245.627290,118.144496
245.468870,118.147240
245.287778,118.149601
245.088305,118.151510
244.874741,118.152897
244.651375,118.153692
243.471333,118.156167
243.471100,118.045042
243.470481,118.009580
243.465768,117.925199
243.457990,117.856034
243.445112,117.778151
244.581940,117.771367
245.718769,117.764584
245.761682,117.711667
245.777888,117.689440
245.791149,117.658934
245.796820,117.616947
245.796037,117.553263
245.789938,117.457667
245.778991,117.347384
245.762828,117.264217
245.742025,117.219724
245.736168,117.214302
245.722861,117.207019
245.701317,117.200892
245.668126,117.195798
245.619880,117.191613
245.553168,117.188214
245.464580,117.185476
245.350708,117.183277
245.208141,117.181492
245.033470,117.179999
244.823285,117.178673
244.574176,117.177391
243.439583,117.171917
243.433497,116.976125
243.427411,116.780334
244.548507,116.780334
Z" /> 
<path style="fill:#000000; fill-opacity:1.000000; 
stroke:#000000; stroke-width:0.010000; stroke-opacity:1; 
stroke-linecap:round; stroke-linejoin:round;fill-rule:evenodd;"
d="M 237.864235,116.782632
238.057684,116.783154
238.267446,116.784057
238.489659,116.785343
238.663371,116.786513
238.896767,116.788287
239.093689,116.790150
239.257680,116.792222
239.392287,116.794628
239.501053,116.797490
239.587523,116.800931
239.655242,116.805074
239.707754,116.810043
239.748605,116.815959
239.781338,116.822947
239.809500,116.831128
239.937940,116.886191
240.038670,116.962556
240.110077,117.062018
240.117370,117.076453
240.132506,117.112403
240.143203,117.152949
240.150256,117.205637
240.154460,117.278015
240.156612,117.377630
240.157507,117.512028
240.158750,117.873305
240.099447,117.951258
240.059866,117.997244
239.990638,118.051688
239.901207,118.092132
239.780532,118.124575
239.776862,118.125347
239.734262,118.131810
239.673020,118.137308
239.590173,118.141910
239.482760,118.145682
239.347822,118.148694
239.182396,118.151012
238.983522,118.152705
238.748239,118.153839
238.473585,118.154484
237.296421,118.156167
237.282960,118.057963
237.280572,118.039093
237.272683,117.950662
237.269500,117.868979
237.269500,117.778200
239.474602,117.764584
239.517665,117.711667
239.533536,117.690049
239.547098,117.659480
239.553041,117.617538
239.552546,117.553968
239.546791,117.458516
239.545995,117.447381
239.534546,117.335537
239.519023,117.261294
239.498563,117.220391
239.492273,117.214452
239.479334,117.206986
239.458767,117.200777
239.427103,117.195712
239.380871,117.191674
239.316600,117.188548
239.230820,117.186220
239.120059,117.184573
238.980848,117.183493
238.809716,117.182865
238.603192,117.182572
238.357805,117.182500
237.251338,117.182500
237.244544,116.989252
237.244178,116.978306
237.243493,116.874891
237.249385,116.811575
237.261993,116.786754
237.276759,116.785556
237.330753,116.784247
237.420357,116.783297
237.541711,116.782707
237.690957,116.782484
Z" /> 
</g>
<g style="fill:none; 
stroke:#000000; stroke-width:0.120000; stroke-opacity:1; 
stroke-linecap:round; stroke-linejoin:round;">
<path d="M221.000000 112.500000
L221.000000 113.000000
" />
<path d="M221.000000 113.000000
L223.000000 113.000000
" />
</g>
<g style="fill:none; 
stroke:#000000; stroke-width:0.200000; stroke-opacity:1; 
stroke-linecap:round; stroke-linejoin:round;">
<path d="M231.150000 101.500000
L231.150000 104.460000
" />
<path d="M231.150000 113.500000
L231.150000 109.540000
" />
<path d="M232.400000 113.500000
L231.150000 113.500000
" />
</g>
<g style="fill:#000000; fill-opacity:1.000000; stroke:none;">
<circle cx="238.500000" cy="115.100000" r="0.050000" /> 
<circle cx="238.500000" cy="115.200000" r="0.050000" /> 
</g>
<g style="fill:none; 
stroke:#000000; stroke-width:0.200000; stroke-opacity:1; 
stroke-linecap:round; stroke-linejoin:round;">
<path d="M240.850000 101.500000
L231.150000 101.500000
" />
<path d="M240.850000 104.460000
L240.850000 101.500000
" />
<path d="M240.850000 109.540000
L240.850000 113.500000
" />
<path d="M240.850000 113.500000
L239.600000 113.500000
" />
</g>
<g style="fill:none; 
stroke:#000000; stroke-width:0.100000; stroke-opacity:1; 
stroke-linecap:round; stroke-linejoin:round;">
<path d="M238.500000 115.200000 A0.050000 0.050000 0.0 0 0 238.500000 115.100000" />
<path d="M238.500000 115.100000 A0.050000 0.050000 0.0 0 0 238.500000 115.200000" />
</g>
<g style="fill:none; 
stroke:#000000; stroke-width:0.200000; stroke-opacity:1; 
stroke-linecap:round; stroke-linejoin:round;">
<path d="M207.150000 101.500000
L207.150000 104.460000
" />
<path d="M207.150000 113.500000
L207.150000 109.540000
" />
<path d="M208.400000 113.500000
L207.150000 113.500000
" />
</g>
<g style="fill:#000000; fill-opacity:1.000000; stroke:none;">
<circle cx="214.500000" cy="115.100000" r="0.050000" /> 
<circle cx="214.500000" cy="115.200000" r="0.050000" /> 
</g>
<g style="fill:none; 
stroke:#000000; stroke-width:0.200000; stroke-opacity:1; 
stroke-linecap:round; stroke-linejoin:round;">
<path d="M216.850000 101.500000
L207.150000 101.500000
" />
<path d="M216.850000 104.460000
L216.850000 101.500000
" />
<path d="M216.850000 109.540000
L216.850000 113.500000
" />
<path d="M216.850000 113.500000
L215.600000 113.500000
" />
</g>
<g style="fill:none; 
stroke:#000000; stroke-width:0.100000; stroke-opacity:1; 
stroke-linecap:round; stroke-linejoin:round;">
<path d="M214.500000 115.200000 A0.050000 0.050000 0.0 0 0 214.500000 115.100000" />
<path d="M214.500000 115.100000 A0.050000 0.050000 0.0 0 0 214.500000 115.200000" />
</g> 
</svg>
