<?xml version="1.0" standalone="no"?>
 <!DOCTYPE svg PUBLIC "-//W3C//DTD SVG 1.1//EN" 
 "http://www.w3.org/Graphics/SVG/1.1/DTD/svg11.dtd"> 
<svg
  xmlns:svg="http://www.w3.org/2000/svg"
  xmlns="http://www.w3.org/2000/svg"
  xmlns:xlink="http://www.w3.org/1999/xlink"
  version="1.1"
  width="297.002200mm" height="210.007200mm" viewBox="0.000000 0.000000 297.002200 210.007200">
<title>SVG Image created as tone_block-B_Cu.svg date 2025/01/03 15:08:53 </title>
  <desc>Image generated by PCBNEW </desc>
<g style="fill:#000000; fill-opacity:1.000000;stroke:#000000; stroke-opacity:1.000000;
stroke-linecap:round; stroke-linejoin:round;"
 transform="translate(0 0) scale(1 1)">
</g>
<g style="fill:#000000; fill-opacity:1.000000; stroke:none;">
<circle cx="226.500000" cy="105.000000" r="1.000000" /> 
</g>
<g style="fill:#000000; fill-opacity:1.000000; stroke:none;">
<circle cx="221.500000" cy="105.000000" r="1.000000" /> 
<path style="fill:#000000; fill-opacity:1.000000; stroke:none;fill-rule:evenodd;"
d="M 230.690000,116.650000
232.390000,116.650000
232.390000,118.350000
230.690000,118.350000
Z" /> 
</g>
<g style="fill:#000000; fill-opacity:1.000000; stroke:none;">
<circle cx="229.000000" cy="117.500000" r="0.850000" /> 
<circle cx="226.460000" cy="117.500000" r="0.850000" /> 
<path style="fill:#000000; fill-opacity:1.000000; stroke:none;fill-rule:evenodd;"
d="M 220.690000,116.650000
222.390000,116.650000
222.390000,118.350000
220.690000,118.350000
Z" /> 
<circle cx="219.000000" cy="117.500000" r="0.850000" /> 
<circle cx="216.460000" cy="117.500000" r="0.850000" /> 
<path style="fill:#000000; fill-opacity:1.000000; stroke:none;fill-rule:evenodd;"
d="M 222.400000,112.325000
222.388926,112.409116
222.341224,112.511412
222.261412,112.591224
222.159116,112.638926
222.075000,112.650000
221.425000,112.650000
221.340884,112.638926
221.238588,112.591224
221.158776,112.511412
221.111074,112.409116
221.100000,112.325000
221.100000,111.675000
221.111074,111.590884
221.158776,111.488588
221.238588,111.408776
221.340884,111.361074
221.425000,111.350000
222.075000,111.350000
222.159116,111.361074
222.261412,111.408776
222.341224,111.488588
222.388926,111.590884
222.400000,111.675000
Z" /> 
<path style="fill:#000000; fill-opacity:1.000000; stroke:none;fill-rule:evenodd;"
d="M 222.400000,110.325000
222.388926,110.409116
222.341224,110.511412
222.261412,110.591224
222.159116,110.638926
222.075000,110.650000
221.425000,110.650000
221.340884,110.638926
221.238588,110.591224
221.158776,110.511412
221.111074,110.409116
221.100000,110.325000
221.100000,109.675000
221.111074,109.590884
221.158776,109.488588
221.238588,109.408776
221.340884,109.361074
221.425000,109.350000
222.075000,109.350000
222.159116,109.361074
222.261412,109.408776
222.341224,109.488588
222.388926,109.590884
222.400000,109.675000
Z" /> 
<path style="fill:#000000; fill-opacity:1.000000; stroke:none;fill-rule:evenodd;"
d="M 222.400000,108.325000
222.388926,108.409116
222.341224,108.511412
222.261412,108.591224
222.159116,108.638926
222.075000,108.650000
221.425000,108.650000
221.340884,108.638926
221.238588,108.591224
221.158776,108.511412
221.111074,108.409116
221.100000,108.325000
221.100000,107.675000
221.111074,107.590884
221.158776,107.488588
221.238588,107.408776
221.340884,107.361074
221.425000,107.350000
222.075000,107.350000
222.159116,107.361074
222.261412,107.408776
222.341224,107.488588
222.388926,107.590884
222.400000,107.675000
Z" /> 
<path style="fill:#000000; fill-opacity:1.000000; stroke:none;fill-rule:evenodd;"
d="M 226.900000,112.325000
226.888926,112.409116
226.841224,112.511412
226.761412,112.591224
226.659116,112.638926
226.575000,112.650000
225.925000,112.650000
225.840884,112.638926
225.738588,112.591224
225.658776,112.511412
225.611074,112.409116
225.600000,112.325000
225.600000,111.675000
225.611074,111.590884
225.658776,111.488588
225.738588,111.408776
225.840884,111.361074
225.925000,111.350000
226.575000,111.350000
226.659116,111.361074
226.761412,111.408776
226.841224,111.488588
226.888926,111.590884
226.900000,111.675000
Z" /> 
<path style="fill:#000000; fill-opacity:1.000000; stroke:none;fill-rule:evenodd;"
d="M 226.900000,110.325000
226.888926,110.409116
226.841224,110.511412
226.761412,110.591224
226.659116,110.638926
226.575000,110.650000
225.925000,110.650000
225.840884,110.638926
225.738588,110.591224
225.658776,110.511412
225.611074,110.409116
225.600000,110.325000
225.600000,109.675000
225.611074,109.590884
225.658776,109.488588
225.738588,109.408776
225.840884,109.361074
225.925000,109.350000
226.575000,109.350000
226.659116,109.361074
226.761412,109.408776
226.841224,109.488588
226.888926,109.590884
226.900000,109.675000
Z" /> 
<path style="fill:#000000; fill-opacity:1.000000; stroke:none;fill-rule:evenodd;"
d="M 226.900000,108.325000
226.888926,108.409116
226.841224,108.511412
226.761412,108.591224
226.659116,108.638926
226.575000,108.650000
225.925000,108.650000
225.840884,108.638926
225.738588,108.591224
225.658776,108.511412
225.611074,108.409116
225.600000,108.325000
225.600000,107.675000
225.611074,107.590884
225.658776,107.488588
225.738588,107.408776
225.840884,107.361074
225.925000,107.350000
226.575000,107.350000
226.659116,107.361074
226.761412,107.408776
226.841224,107.488588
226.888926,107.590884
226.900000,107.675000
Z" /> 
<path style="fill:#000000; fill-opacity:1.000000; stroke:none;fill-rule:evenodd;"
d="M 239.400000,113.100000
239.400000,114.900000
237.600000,114.900000
237.600000,113.100000
Z" /> 
<path style="fill:#000000; fill-opacity:1.000000; stroke:none;fill-rule:evenodd;"
d="M 236.900000,113.100000
236.900000,114.900000
235.100000,114.900000
235.100000,113.100000
Z" /> 
<path style="fill:#000000; fill-opacity:1.000000; stroke:none;fill-rule:evenodd;"
d="M 234.400000,113.100000
234.400000,114.900000
232.600000,114.900000
232.600000,113.100000
Z" /> 
<path style="fill:#000000; fill-opacity:1.000000; stroke:none;fill-rule:evenodd;"
d="M 242.250000,105.500000
242.250000,108.500000
239.750000,108.500000
239.750000,105.500000
Z" /> 
<path style="fill:#000000; fill-opacity:1.000000; stroke:none;fill-rule:evenodd;"
d="M 232.250000,105.500000
232.250000,108.500000
229.750000,108.500000
229.750000,105.500000
Z" /> 
<path style="fill:#000000; fill-opacity:1.000000; stroke:none;fill-rule:evenodd;"
d="M 215.400000,113.100000
215.400000,114.900000
213.600000,114.900000
213.600000,113.100000
Z" /> 
<path style="fill:#000000; fill-opacity:1.000000; stroke:none;fill-rule:evenodd;"
d="M 212.900000,113.100000
212.900000,114.900000
211.100000,114.900000
211.100000,113.100000
Z" /> 
<path style="fill:#000000; fill-opacity:1.000000; stroke:none;fill-rule:evenodd;"
d="M 210.400000,113.100000
210.400000,114.900000
208.600000,114.900000
208.600000,113.100000
Z" /> 
<path style="fill:#000000; fill-opacity:1.000000; stroke:none;fill-rule:evenodd;"
d="M 218.250000,105.500000
218.250000,108.500000
215.750000,108.500000
215.750000,105.500000
Z" /> 
<path style="fill:#000000; fill-opacity:1.000000; stroke:none;fill-rule:evenodd;"
d="M 208.250000,105.500000
208.250000,108.500000
205.750000,108.500000
205.750000,105.500000
Z" /> 
<circle cx="242.000000" cy="103.000000" r="0.400000" /> 
</g>
<g style="fill:#000000; fill-opacity:1.000000; stroke:none;">
<circle cx="202.200000" cy="115.000000" r="0.400000" /> 
</g>
<g style="fill:#000000; fill-opacity:1.000000; stroke:none;">
<circle cx="238.000000" cy="105.000000" r="0.400000" /> 
</g>
<g style="fill:#000000; fill-opacity:1.000000; stroke:none;">
<circle cx="238.000000" cy="107.000000" r="0.400000" /> 
</g>
<g style="fill:#000000; fill-opacity:1.000000; stroke:none;">
<circle cx="236.000000" cy="103.000000" r="0.400000" /> 
</g>
<g style="fill:#000000; fill-opacity:1.000000; stroke:none;">
<circle cx="202.200000" cy="105.000000" r="0.400000" /> 
</g>
<g style="fill:#000000; fill-opacity:1.000000; stroke:none;">
<circle cx="204.200000" cy="115.000000" r="0.400000" /> 
</g>
<g style="fill:#000000; fill-opacity:1.000000; stroke:none;">
<circle cx="246.000000" cy="103.000000" r="0.400000" /> 
</g>
<g style="fill:#000000; fill-opacity:1.000000; stroke:none;">
<circle cx="210.000000" cy="104.325000" r="0.400000" /> 
</g>
<g style="fill:#000000; fill-opacity:1.000000; stroke:none;">
<circle cx="206.000000" cy="117.000000" r="0.400000" /> 
</g>
<g style="fill:#000000; fill-opacity:1.000000; stroke:none;">
<circle cx="244.000000" cy="115.000000" r="0.400000" /> 
</g>
<g style="fill:#000000; fill-opacity:1.000000; stroke:none;">
<circle cx="224.000000" cy="102.000000" r="0.400000" /> 
</g>
<g style="fill:#000000; fill-opacity:1.000000; stroke:none;">
<circle cx="204.200000" cy="105.000000" r="0.400000" /> 
</g>
<g style="fill:#000000; fill-opacity:1.000000; stroke:none;">
<circle cx="236.000000" cy="105.000000" r="0.400000" /> 
</g>
<g style="fill:#000000; fill-opacity:1.000000; stroke:none;">
<circle cx="202.200000" cy="103.000000" r="0.400000" /> 
</g>
<g style="fill:#000000; fill-opacity:1.000000; stroke:none;">
<circle cx="238.000000" cy="111.000000" r="0.400000" /> 
</g>
<g style="fill:#000000; fill-opacity:1.000000; stroke:none;">
<circle cx="242.000000" cy="115.000000" r="0.400000" /> 
</g>
<g style="fill:#000000; fill-opacity:1.000000; stroke:none;">
<circle cx="206.000000" cy="115.000000" r="0.400000" /> 
</g>
<g style="fill:#000000; fill-opacity:1.000000; stroke:none;">
<circle cx="214.850000" cy="110.850000" r="0.400000" /> 
</g>
<g style="fill:#000000; fill-opacity:1.000000; stroke:none;">
<circle cx="222.000000" cy="102.000000" r="0.400000" /> 
</g>
<g style="fill:#000000; fill-opacity:1.000000; stroke:none;">
<circle cx="240.000000" cy="111.000000" r="0.400000" /> 
</g>
<g style="fill:#000000; fill-opacity:1.000000; stroke:none;">
<circle cx="204.200000" cy="117.000000" r="0.400000" /> 
</g>
<g style="fill:#000000; fill-opacity:1.000000; stroke:none;">
<circle cx="246.000000" cy="115.000000" r="0.400000" /> 
</g>
<g style="fill:#000000; fill-opacity:1.000000; stroke:none;">
<circle cx="202.200000" cy="117.000000" r="0.400000" /> 
</g>
<g style="fill:#000000; fill-opacity:1.000000; stroke:none;">
<circle cx="246.000000" cy="105.000000" r="0.400000" /> 
</g>
<g style="fill:#000000; fill-opacity:1.000000; stroke:none;">
<circle cx="238.000000" cy="103.000000" r="0.400000" /> 
</g>
<g style="fill:#000000; fill-opacity:1.000000; stroke:none;">
<circle cx="244.000000" cy="103.000000" r="0.400000" /> 
</g>
<g style="fill:#000000; fill-opacity:1.000000; stroke:none;">
<circle cx="240.000000" cy="103.000000" r="0.400000" /> 
</g>
<g style="fill:#000000; fill-opacity:1.000000; stroke:none;">
<circle cx="234.000000" cy="103.000000" r="0.400000" /> 
</g>
<g style="fill:#000000; fill-opacity:1.000000; stroke:none;">
<circle cx="204.200000" cy="103.000000" r="0.400000" /> 
</g>
<g style="fill:#000000; fill-opacity:1.000000; stroke:none;">
<circle cx="207.000000" cy="111.800000" r="0.400000" /> 
</g>
<g style="fill:#000000; fill-opacity:1.000000; stroke:none;">
<circle cx="238.000000" cy="109.000000" r="0.400000" /> 
</g>
<g style="fill:#000000; fill-opacity:1.000000; stroke:none;">
<circle cx="226.000000" cy="102.000000" r="0.400000" /> 
</g>
<g style="fill:#000000; fill-opacity:1.000000; stroke:none;">
<circle cx="244.000000" cy="105.000000" r="0.400000" /> 
</g>
<g style="fill:#000000; fill-opacity:1.000000; stroke:none;">
<circle cx="232.300000" cy="110.800000" r="0.400000" /> 
</g>
<g style="fill:none; 
stroke:#000000; stroke-width:0.250000; stroke-opacity:1; 
stroke-linecap:round; stroke-linejoin:round;">
<path d="M221.750000 112.000000
L226.250000 112.000000
" />
</g>
<g style="fill:none; 
stroke:#000000; stroke-width:0.500000; stroke-opacity:1; 
stroke-linecap:round; stroke-linejoin:round;">
<path d="M230.120000 115.100000
L231.540000 116.520000
" />
<path d="M221.540000 117.500000
L221.540000 116.460000
" />
<path d="M231.540000 116.520000
L231.540000 117.500000
" />
<path d="M221.540000 116.460000
L222.900000 115.100000
" />
<path d="M222.900000 115.100000
L230.120000 115.100000
" />
</g>
<g style="fill:none; 
stroke:#000000; stroke-width:0.250000; stroke-opacity:1; 
stroke-linecap:round; stroke-linejoin:round;">
<path d="M232.600000 115.500000
L234.500000 115.500000
" />
<path d="M212.000000 114.000000
L213.175000 115.175000
" />
<path d="M234.500000 115.500000
L236.000000 114.000000
" />
<path d="M213.175000 115.175000
L215.675000 115.175000
" />
<path d="M215.675000 115.175000
L216.350000 114.500000
" />
<path d="M231.600000 114.500000
L232.600000 115.500000
" />
<path d="M216.350000 114.500000
L231.600000 114.500000
" />
<path d="M214.500000 114.000000
L229.100000 114.000000
" />
<path d="M229.100000 114.000000
L232.300000 110.800000
" />
<path style="fill:#000000; fill-opacity:1.000000; stroke:none;fill-rule:evenodd;"
d="M 246.004118,100.025770
246.032134,100.027606
246.249492,100.041852
246.265810,100.044000
246.502945,100.091169
246.518850,100.095430
246.747799,100.173149
246.763005,100.179448
246.979851,100.286384
246.994108,100.294615
247.195135,100.428937
247.208204,100.438966
247.389972,100.598372
247.401627,100.610027
247.561033,100.791795
247.571063,100.804867
247.616106,100.872278
247.705379,101.005883
247.713620,101.020157
247.820547,101.236984
247.826854,101.252210
247.904566,101.481141
247.908832,101.497062
247.955997,101.734177
247.958148,101.750517
247.974230,101.995880
247.974500,102.004121
247.974500,117.995878
247.974230,118.004119
247.958148,118.249482
247.955997,118.265822
247.908832,118.502937
247.904566,118.518858
247.826854,118.747789
247.820547,118.763015
247.713620,118.979842
247.705379,118.994116
247.571066,119.195129
247.561033,119.208204
247.401627,119.389972
247.389972,119.401627
247.208204,119.561033
247.195129,119.571066
246.994116,119.705379
246.979842,119.713620
246.763015,119.820547
246.747789,119.826854
246.518858,119.904566
246.502937,119.908832
246.265822,119.955997
246.249482,119.958148
246.004119,119.974230
245.995878,119.974500
202.004122,119.974500
201.995881,119.974230
201.750517,119.958148
201.734177,119.955997
201.497062,119.908832
201.481141,119.904566
201.252210,119.826854
201.236984,119.820547
201.020153,119.713618
201.005887,119.705381
200.804867,119.571063
200.791795,119.561033
200.610027,119.401627
200.598372,119.389972
200.438966,119.208204
200.428937,119.195135
200.294615,118.994108
200.286384,118.979851
200.179448,118.763005
200.173149,118.747799
200.095430,118.518850
200.091169,118.502945
200.044000,118.265810
200.041852,118.249492
200.025770,118.004118
200.025500,117.995878
200.025500,113.051350
208.091500,113.051350
208.091500,114.948649
208.098009,115.009196
208.098011,115.009204
208.149110,115.146202
208.149112,115.146207
208.236738,115.263261
208.353792,115.350887
208.353794,115.350888
208.353796,115.350889
208.412875,115.372924
208.490795,115.401988
208.490803,115.401990
208.551350,115.408499
208.551355,115.408499
208.551362,115.408500
208.551368,115.408500
210.448632,115.408500
210.448638,115.408500
210.448645,115.408499
210.448649,115.408499
210.509196,115.401990
210.509199,115.401989
210.509201,115.401989
210.646204,115.350889
210.674489,115.329714
210.741008,115.304902
210.810383,115.319992
210.825511,115.329715
210.853791,115.350886
210.853793,115.350887
210.853796,115.350889
210.912875,115.372924
210.990795,115.401988
210.990803,115.401990
211.051350,115.408499
211.051355,115.408499
211.051362,115.408500
212.460406,115.408500
212.528527,115.428502
212.549501,115.445405
212.682929,115.578833
212.771167,115.667071
212.874925,115.736400
212.990215,115.784155
213.112606,115.808500
213.112607,115.808500
215.737393,115.808500
215.737394,115.808500
215.859785,115.784155
215.975075,115.736400
216.078833,115.667071
216.575499,115.170405
216.637811,115.136379
216.664594,115.133500
221.489629,115.133500
221.557750,115.153502
221.604243,115.207158
221.614347,115.277432
221.584853,115.342012
221.578724,115.348595
220.950838,115.976480
220.950834,115.976485
220.894096,116.061401
220.877992,116.085502
220.823515,116.131030
220.773227,116.141500
220.641350,116.141500
220.580803,116.148009
220.580795,116.148011
220.443797,116.199110
220.443792,116.199112
220.326738,116.286738
220.239112,116.403792
220.239111,116.403795
220.194804,116.522584
220.152257,116.579419
220.085736,116.604229
220.016362,116.589137
219.984047,116.563887
219.922902,116.497465
219.745301,116.359232
219.745300,116.359231
219.547371,116.252117
219.547369,116.252116
219.334512,116.179043
219.334501,116.179040
219.254000,116.165606
219.254000,117.069297
219.192993,117.034075
219.065826,117.000000
218.934174,117.000000
218.807007,117.034075
218.746000,117.069297
218.746000,116.165607
218.745999,116.165606
218.665498,116.179040
218.665487,116.179043
218.452630,116.252116
218.452628,116.252117
218.254699,116.359231
218.254698,116.359232
218.077097,116.497465
217.924670,116.663045
217.835780,116.799101
217.781776,116.845189
217.711428,116.854764
217.647071,116.824786
217.624816,116.799101
217.585884,116.739511
217.535724,116.662734
217.535720,116.662729
217.406705,116.522584
217.383240,116.497094
217.383239,116.497093
217.383237,116.497091
217.263372,116.403796
217.205576,116.358811
217.007574,116.251658
217.007572,116.251657
217.007571,116.251656
216.794639,116.178557
216.794630,116.178555
216.717029,116.165606
216.572569,116.141500
216.347431,116.141500
216.202971,116.165606
216.125369,116.178555
216.125360,116.178557
215.912428,116.251656
215.912426,116.251658
215.774485,116.326308
215.714426,116.358810
215.714424,116.358811
215.536762,116.497091
215.384279,116.662729
215.384275,116.662734
215.261141,116.851206
215.170703,117.057386
215.170702,117.057387
215.115437,117.275624
215.115436,117.275630
215.115436,117.275632
215.096844,117.500000
215.112836,117.692993
215.115437,117.724375
215.170702,117.942612
215.170703,117.942613
215.170704,117.942616
215.254107,118.132758
215.261141,118.148793
215.384275,118.337265
215.384279,118.337270
215.536762,118.502908
215.557255,118.518858
215.714424,118.641189
215.912426,118.748342
215.912427,118.748342
215.912428,118.748343
216.024227,118.786723
216.125365,118.821444
216.347431,118.858500
216.347435,118.858500
216.572565,118.858500
216.572569,118.858500
216.794635,118.821444
217.007574,118.748342
217.205576,118.641189
217.383240,118.502906
217.535722,118.337268
217.624816,118.200898
217.678819,118.154810
217.749167,118.145235
217.813524,118.175212
217.835782,118.200898
217.924674,118.336958
218.077097,118.502534
218.254698,118.640767
218.254699,118.640768
218.452628,118.747882
218.452630,118.747883
218.665483,118.820955
218.665492,118.820957
218.746000,118.834391
218.746000,117.930702
218.807007,117.965925
218.934174,118.000000
219.065826,118.000000
219.192993,117.965925
219.254000,117.930702
219.254000,118.834390
219.334507,118.820957
219.334516,118.820955
219.547369,118.747883
219.547371,118.747882
219.745300,118.640768
219.745301,118.640767
219.922905,118.502532
219.984047,118.436113
220.044899,118.399541
220.115863,118.401674
220.174409,118.441835
220.194804,118.477415
220.239111,118.596204
220.239112,118.596207
220.326738,118.713261
220.443792,118.800887
220.443794,118.800888
220.443796,118.800889
220.497600,118.820957
220.580795,118.851988
220.580803,118.851990
220.641350,118.858499
220.641355,118.858499
220.641362,118.858500
220.641368,118.858500
222.438632,118.858500
222.438638,118.858500
222.438645,118.858499
222.438649,118.858499
222.499196,118.851990
222.499199,118.851989
222.499201,118.851989
222.636204,118.800889
222.706399,118.748342
222.753261,118.713261
222.840887,118.596207
222.840887,118.596206
222.840889,118.596204
222.891989,118.459201
222.898500,118.398638
222.898500,116.601362
222.896141,116.579419
222.891990,116.540803
222.891988,116.540795
222.840889,116.403797
222.840887,116.403792
222.832680,116.392829
222.807870,116.326308
222.822962,116.256934
222.844450,116.228229
223.177277,115.895404
223.239589,115.861379
223.266372,115.858500
229.753629,115.858500
229.821750,115.878502
229.842724,115.895405
230.212279,116.264960
230.246305,116.327272
230.241240,116.398087
230.241239,116.398088
230.194804,116.522583
230.152257,116.579419
230.085737,116.604229
230.016363,116.589137
229.984047,116.563887
229.922902,116.497465
229.745301,116.359232
229.745300,116.359231
229.547371,116.252117
229.547369,116.252116
229.334512,116.179043
229.334501,116.179040
229.254000,116.165606
229.254000,117.069297
229.192993,117.034075
229.065826,117.000000
228.934174,117.000000
228.807007,117.034075
228.746000,117.069297
228.746000,116.165607
228.745999,116.165606
228.665498,116.179040
228.665487,116.179043
228.452630,116.252116
228.452628,116.252117
228.254699,116.359231
228.254698,116.359232
228.077097,116.497465
227.924670,116.663045
227.835780,116.799101
227.781776,116.845189
227.711428,116.854764
227.647071,116.824786
227.624816,116.799101
227.585884,116.739511
227.535724,116.662734
227.535720,116.662729
227.406705,116.522584
227.383240,116.497094
227.383239,116.497093
227.383237,116.497091
227.263372,116.403796
227.205576,116.358811
227.007574,116.251658
227.007572,116.251657
227.007571,116.251656
226.794639,116.178557
226.794630,116.178555
226.717029,116.165606
226.572569,116.141500
226.347431,116.141500
226.202971,116.165606
226.125369,116.178555
226.125360,116.178557
225.912428,116.251656
225.912426,116.251658
225.774485,116.326308
225.714426,116.358810
225.714424,116.358811
225.536762,116.497091
225.384279,116.662729
225.384275,116.662734
225.261141,116.851206
225.170703,117.057386
225.170702,117.057387
225.115437,117.275624
225.115436,117.275630
225.115436,117.275632
225.096844,117.500000
225.112836,117.692993
225.115437,117.724375
225.170702,117.942612
225.170703,117.942613
225.170704,117.942616
225.254107,118.132758
225.261141,118.148793
225.384275,118.337265
225.384279,118.337270
225.536762,118.502908
225.557255,118.518858
225.714424,118.641189
225.912426,118.748342
225.912427,118.748342
225.912428,118.748343
226.024227,118.786723
226.125365,118.821444
226.347431,118.858500
226.347435,118.858500
226.572565,118.858500
226.572569,118.858500
226.794635,118.821444
227.007574,118.748342
227.205576,118.641189
227.383240,118.502906
227.535722,118.337268
227.624816,118.200898
227.678819,118.154810
227.749167,118.145235
227.813524,118.175212
227.835782,118.200898
227.924674,118.336958
228.077097,118.502534
228.254698,118.640767
228.254699,118.640768
228.452628,118.747882
228.452630,118.747883
228.665483,118.820955
228.665492,118.820957
228.746000,118.834391
228.746000,117.930702
228.807007,117.965925
228.934174,118.000000
229.065826,118.000000
229.192993,117.965925
229.254000,117.930702
229.254000,118.834390
229.334507,118.820957
229.334516,118.820955
229.547369,118.747883
229.547371,118.747882
229.745300,118.640768
229.745301,118.640767
229.922905,118.502532
229.984047,118.436113
230.044899,118.399541
230.115863,118.401674
230.174409,118.441835
230.194804,118.477415
230.239111,118.596204
230.239112,118.596207
230.326738,118.713261
230.443792,118.800887
230.443794,118.800888
230.443796,118.800889
230.497600,118.820957
230.580795,118.851988
230.580803,118.851990
230.641350,118.858499
230.641355,118.858499
230.641362,118.858500
230.641368,118.858500
232.438632,118.858500
232.438638,118.858500
232.438645,118.858499
232.438649,118.858499
232.499196,118.851990
232.499199,118.851989
232.499201,118.851989
232.636204,118.800889
232.706399,118.748342
232.753261,118.713261
232.840887,118.596207
232.840887,118.596206
232.840889,118.596204
232.891989,118.459201
232.898500,118.398638
232.898500,116.601362
232.896141,116.579419
232.891990,116.540803
232.891988,116.540795
232.840889,116.403797
232.840887,116.403792
232.789396,116.335009
232.764585,116.268489
232.779676,116.199115
232.829878,116.148913
232.890264,116.133500
234.562393,116.133500
234.562394,116.133500
234.684785,116.109155
234.800075,116.061400
234.903833,115.992071
235.450499,115.445405
235.512811,115.411379
235.539594,115.408500
236.948632,115.408500
236.948638,115.408500
236.948645,115.408499
236.948649,115.408499
237.009196,115.401990
237.009199,115.401989
237.009201,115.401989
237.146204,115.350889
237.174489,115.329714
237.241008,115.304902
237.310383,115.319992
237.325511,115.329715
237.353791,115.350886
237.353793,115.350887
237.353796,115.350889
237.412875,115.372924
237.490795,115.401988
237.490803,115.401990
237.551350,115.408499
237.551355,115.408499
237.551362,115.408500
237.551368,115.408500
239.448632,115.408500
239.448638,115.408500
239.448645,115.408499
239.448649,115.408499
239.509196,115.401990
239.509199,115.401989
239.509201,115.401989
239.646204,115.350889
239.649269,115.348595
239.763261,115.263261
239.850887,115.146207
239.850887,115.146206
239.850889,115.146204
239.901989,115.009201
239.908500,114.948638
239.908500,113.051362
239.908499,113.051350
239.901990,112.990803
239.901988,112.990795
239.850889,112.853797
239.850887,112.853792
239.763261,112.736738
239.646207,112.649112
239.646202,112.649110
239.509204,112.598011
239.509196,112.598009
239.448649,112.591500
239.448638,112.591500
237.551362,112.591500
237.551350,112.591500
237.490803,112.598009
237.490795,112.598011
237.353796,112.649110
237.353793,112.649112
237.325506,112.670287
237.258985,112.695096
237.189612,112.680003
237.174494,112.670287
237.146206,112.649112
237.146203,112.649110
237.009204,112.598011
237.009196,112.598009
236.948649,112.591500
236.948638,112.591500
235.051362,112.591500
235.051350,112.591500
234.990803,112.598009
234.990795,112.598011
234.853796,112.649110
234.853793,112.649112
234.825506,112.670287
234.758985,112.695096
234.689612,112.680003
234.674494,112.670287
234.646206,112.649112
234.646203,112.649110
234.509204,112.598011
234.509196,112.598009
234.448649,112.591500
234.448638,112.591500
232.551362,112.591500
232.551350,112.591500
232.490803,112.598009
232.490795,112.598011
232.353797,112.649110
232.353792,112.649112
232.236738,112.736738
232.149112,112.853792
232.149110,112.853797
232.098011,112.990795
232.098009,112.990803
232.091500,113.051350
232.091500,113.830776
232.071498,113.898897
232.017842,113.945390
231.947568,113.955494
231.906466,113.939768
231.905532,113.941517
231.900078,113.938601
231.784787,113.890846
231.784785,113.890845
231.711086,113.876185
231.662396,113.866500
231.662394,113.866500
230.433594,113.866500
230.365473,113.846498
230.318980,113.792842
230.308876,113.722568
230.338370,113.657988
230.344499,113.651405
232.250499,111.745405
232.312811,111.711379
232.339594,111.708500
232.395487,111.708500
232.582288,111.668794
232.756752,111.591118
232.911253,111.478866
232.994981,111.385877
233.039034,111.336951
233.039035,111.336949
233.039040,111.336944
233.134527,111.171556
233.193542,110.989928
233.213504,110.800000
233.193542,110.610072
233.134527,110.428444
233.039040,110.263056
233.039038,110.263054
233.039034,110.263048
232.911255,110.121135
232.756752,110.008882
232.582288,109.931206
232.395487,109.891500
232.204513,109.891500
232.017711,109.931206
231.843247,110.008882
231.688744,110.121135
231.560965,110.263048
231.560958,110.263058
231.470629,110.419513
231.465473,110.428444
231.462308,110.438186
231.406457,110.610072
231.389092,110.775293
231.362079,110.840950
231.352877,110.851217
228.874501,113.329595
228.812189,113.363620
228.785406,113.366500
226.869448,113.366500
226.801327,113.346498
226.754834,113.292842
226.744730,113.222568
226.774224,113.157988
226.833950,113.119604
226.839021,113.118228
226.864124,113.111986
227.026543,113.031433
227.167849,112.917849
227.281433,112.776543
227.361986,112.614124
227.405740,112.438186
227.408500,112.397483
227.408499,111.602518
227.408499,111.602517
227.408499,111.602510
227.408498,111.602504
227.405740,111.561818
227.405740,111.561814
227.361986,111.385876
227.281433,111.223457
227.167849,111.082151
227.167846,111.082148
227.165267,111.078940
227.138179,111.013314
227.150871,110.943461
227.165267,110.921060
227.167846,110.917851
227.167849,110.917849
227.281433,110.776543
227.361986,110.614124
227.405740,110.438186
227.408500,110.397483
227.408499,109.602518
227.408499,109.602517
227.408499,109.602510
227.408498,109.602504
227.407006,109.580491
227.405740,109.561814
227.361986,109.385876
227.281433,109.223457
227.167849,109.082151
227.167846,109.082148
227.165267,109.078940
227.138179,109.013314
227.150871,108.943461
227.165267,108.921060
227.167846,108.917851
227.167849,108.917849
227.281433,108.776543
227.361986,108.614124
227.405740,108.438186
227.408500,108.397483
227.408499,107.602518
227.408499,107.602517
227.408499,107.602510
227.408498,107.602504
227.405740,107.561818
227.405740,107.561814
227.361986,107.385876
227.281433,107.223457
227.167849,107.082151
227.026543,106.968567
226.864124,106.888014
226.688186,106.844260
226.688182,106.844259
226.647492,106.841500
225.852510,106.841500
225.852504,106.841501
225.811818,106.844259
225.811814,106.844260
225.635876,106.888014
225.555324,106.927964
225.473458,106.968566
225.332151,107.082151
225.218566,107.223458
225.138014,107.385877
225.094259,107.561815
225.094259,107.561818
225.091500,107.602507
225.091500,108.397489
225.091501,108.397495
225.094259,108.438181
225.094259,108.438184
225.094260,108.438186
225.138014,108.614124
225.218567,108.776543
225.281141,108.854389
225.334732,108.921061
225.361820,108.986687
225.349127,109.056540
225.334732,109.078939
225.310316,109.109315
225.218567,109.223457
225.177291,109.306682
225.138014,109.385877
225.094259,109.561815
225.094259,109.561818
225.091500,109.602507
225.091500,110.397489
225.091501,110.397495
225.094259,110.438181
225.094259,110.438184
225.094260,110.438186
225.138014,110.614124
225.218567,110.776543
225.278591,110.851217
225.334732,110.921061
225.361820,110.986687
225.349127,111.056540
225.334732,111.078939
225.218568,111.223455
225.218565,111.223460
225.182349,111.296484
225.134163,111.348624
225.069469,111.366500
222.930531,111.366500
222.862410,111.346498
222.817651,111.296484
222.781434,111.223460
222.781433,111.223457
222.667849,111.082151
222.667846,111.082148
222.665267,111.078940
222.638179,111.013314
222.650871,110.943461
222.665267,110.921060
222.667846,110.917851
222.667849,110.917849
222.781433,110.776543
222.861986,110.614124
222.905740,110.438186
222.908500,110.397483
222.908499,109.602518
222.908499,109.602517
222.908499,109.602510
222.908498,109.602504
222.907006,109.580491
222.905740,109.561814
222.861986,109.385876
222.781433,109.223457
222.667849,109.082151
222.667846,109.082148
222.665267,109.078940
222.638179,109.013314
222.650871,108.943461
222.665267,108.921060
222.667846,108.917851
222.667849,108.917849
222.781433,108.776543
222.861986,108.614124
222.905740,108.438186
222.908500,108.397483
222.908499,107.602518
222.908499,107.602517
222.908499,107.602510
222.908498,107.602504
222.905740,107.561818
222.905740,107.561814
222.861986,107.385876
222.781433,107.223457
222.667849,107.082151
222.526543,106.968567
222.364124,106.888014
222.188186,106.844260
222.188182,106.844259
222.147492,106.841500
221.352510,106.841500
221.352504,106.841501
221.311818,106.844259
221.311814,106.844260
221.135876,106.888014
221.055324,106.927964
220.973458,106.968566
220.832151,107.082151
220.718566,107.223458
220.638014,107.385877
220.594259,107.561815
220.594259,107.561818
220.591500,107.602507
220.591500,108.397489
220.591501,108.397495
220.594259,108.438181
220.594259,108.438184
220.594260,108.438186
220.638014,108.614124
220.718567,108.776543
220.781141,108.854389
220.834732,108.921061
220.861820,108.986687
220.849127,109.056540
220.834732,109.078939
220.810316,109.109315
220.718567,109.223457
220.677291,109.306682
220.638014,109.385877
220.594259,109.561815
220.594259,109.561818
220.591500,109.602507
220.591500,110.397489
220.591501,110.397495
220.594259,110.438181
220.594259,110.438184
220.594260,110.438186
220.638014,110.614124
220.718567,110.776543
220.778591,110.851217
220.834732,110.921061
220.861820,110.986687
220.849127,111.056540
220.834732,111.078939
220.760287,111.171554
220.718567,111.223457
220.647624,111.366500
220.638014,111.385877
220.594259,111.561815
220.594259,111.561818
220.591500,111.602507
220.591500,112.397489
220.591501,112.397495
220.594259,112.438181
220.594259,112.438184
220.594260,112.438186
220.638014,112.614124
220.718567,112.776543
220.832151,112.917849
220.973457,113.031433
221.135876,113.111986
221.160962,113.118224
221.222241,113.154076
221.254410,113.217366
221.247255,113.288001
221.203048,113.343555
221.135824,113.366390
221.130552,113.366500
216.034500,113.366500
215.966379,113.346498
215.919886,113.292842
215.908500,113.240500
215.908500,113.051367
215.908499,113.051350
215.901990,112.990803
215.901988,112.990795
215.850889,112.853797
215.850887,112.853792
215.763261,112.736738
215.646207,112.649112
215.646202,112.649110
215.509204,112.598011
215.509196,112.598009
215.448649,112.591500
215.448638,112.591500
213.551362,112.591500
213.551350,112.591500
213.490803,112.598009
213.490795,112.598011
213.353796,112.649110
213.353793,112.649112
213.325506,112.670287
213.258985,112.695096
213.189612,112.680003
213.174494,112.670287
213.146206,112.649112
213.146203,112.649110
213.009204,112.598011
213.009196,112.598009
212.948649,112.591500
212.948638,112.591500
211.051362,112.591500
211.051350,112.591500
210.990803,112.598009
210.990795,112.598011
210.853796,112.649110
210.853793,112.649112
210.825506,112.670287
210.758985,112.695096
210.689612,112.680003
210.674494,112.670287
210.646206,112.649112
210.646203,112.649110
210.509204,112.598011
210.509196,112.598009
210.448649,112.591500
210.448638,112.591500
208.551362,112.591500
208.551350,112.591500
208.490803,112.598009
208.490795,112.598011
208.353797,112.649110
208.353792,112.649112
208.236738,112.736738
208.149112,112.853792
208.149110,112.853797
208.098011,112.990795
208.098009,112.990803
208.091500,113.051350
200.025500,113.051350
200.025500,109.859574
200.499500,109.859574
200.499500,110.140425
200.530945,110.419513
200.567911,110.581469
200.593440,110.693318
200.593442,110.693324
200.593441,110.693324
200.686192,110.958390
200.686203,110.958417
200.808056,111.211448
200.957474,111.449245
201.132586,111.668828
201.331171,111.867413
201.550754,112.042525
201.788551,112.191943
201.788554,112.191944
201.788555,112.191945
202.041592,112.313801
202.041608,112.313806
202.041609,112.313807
202.306675,112.406558
202.306678,112.406558
202.306682,112.406560
202.445245,112.438186
202.580486,112.469054
202.580487,112.469054
202.580491,112.469055
202.802328,112.494049
202.859574,112.500500
202.859575,112.500500
203.140426,112.500500
203.187927,112.495147
203.419509,112.469055
203.693318,112.406560
203.719242,112.397489
203.759590,112.383370
203.958408,112.313801
204.211445,112.191945
204.449248,112.042523
204.668825,111.867416
204.867416,111.668825
205.042523,111.449248
205.191945,111.211445
205.313801,110.958408
205.406560,110.693318
205.469055,110.419509
205.500500,110.140425
205.500500,109.859575
205.469055,109.580491
205.406560,109.306682
205.337497,109.109313
205.333878,109.038411
205.369167,108.976806
205.432160,108.944059
205.500460,108.949645
205.640795,109.001988
205.640803,109.001990
205.701350,109.008499
205.701355,109.008499
205.701362,109.008500
205.701368,109.008500
208.298632,109.008500
208.298638,109.008500
208.298645,109.008499
208.298649,109.008499
208.359196,109.001990
208.359199,109.001989
208.359201,109.001989
208.496204,108.950889
208.536050,108.921061
208.613261,108.863261
208.700887,108.746207
208.700887,108.746206
208.700889,108.746204
208.751989,108.609201
208.758500,108.548638
208.758500,105.451362
208.758499,105.451350
215.241500,105.451350
215.241500,108.548649
215.248009,108.609196
215.248011,108.609204
215.299110,108.746202
215.299112,108.746207
215.386738,108.863261
215.503792,108.950887
215.503794,108.950888
215.503796,108.950889
215.562875,108.972924
215.640795,109.001988
215.640803,109.001990
215.701350,109.008499
215.701355,109.008499
215.701362,109.008500
215.701368,109.008500
218.298632,109.008500
218.298638,109.008500
218.298645,109.008499
218.298649,109.008499
218.359196,109.001990
218.359199,109.001989
218.359201,109.001989
218.496204,108.950889
218.536050,108.921061
218.613261,108.863261
218.700887,108.746207
218.700887,108.746206
218.700889,108.746204
218.751989,108.609201
218.758500,108.548638
218.758500,105.451362
218.758499,105.451350
218.751990,105.390803
218.751988,105.390795
218.700889,105.253797
218.700887,105.253792
218.613261,105.136738
218.496207,105.049112
218.496202,105.049110
218.364537,105.000000
219.986835,105.000000
220.005465,105.236710
220.060894,105.467592
220.151759,105.686961
220.275825,105.889417
220.275826,105.889419
220.430030,106.069969
220.610580,106.224173
220.610584,106.224176
220.813037,106.348240
221.032406,106.439105
221.263289,106.494535
221.500000,106.513165
221.736711,106.494535
221.967594,106.439105
222.186963,106.348240
222.389416,106.224176
222.569969,106.069969
222.724176,105.889416
222.848240,105.686963
222.939105,105.467594
222.994535,105.236711
223.013165,105.000000
224.986835,105.000000
225.005465,105.236710
225.060894,105.467592
225.151759,105.686961
225.275825,105.889417
225.275826,105.889419
225.430030,106.069969
225.610580,106.224173
225.610584,106.224176
225.813037,106.348240
226.032406,106.439105
226.263289,106.494535
226.500000,106.513165
226.736711,106.494535
226.967594,106.439105
227.186963,106.348240
227.389416,106.224176
227.569969,106.069969
227.724176,105.889416
227.848240,105.686963
227.939105,105.467594
227.943005,105.451350
229.241500,105.451350
229.241500,108.548649
229.248009,108.609196
229.248011,108.609204
229.299110,108.746202
229.299112,108.746207
229.386738,108.863261
229.503792,108.950887
229.503794,108.950888
229.503796,108.950889
229.562875,108.972924
229.640795,109.001988
229.640803,109.001990
229.701350,109.008499
229.701355,109.008499
229.701362,109.008500
229.701368,109.008500
232.298632,109.008500
232.298638,109.008500
232.298645,109.008499
232.298649,109.008499
232.359196,109.001990
232.359199,109.001989
232.359201,109.001989
232.496204,108.950889
232.536050,108.921061
232.613261,108.863261
232.700887,108.746207
232.700887,108.746206
232.700889,108.746204
232.751989,108.609201
232.758500,108.548638
232.758500,105.451362
232.758499,105.451350
239.241500,105.451350
239.241500,108.548649
239.248009,108.609196
239.248011,108.609204
239.299110,108.746202
239.299112,108.746207
239.386738,108.863261
239.503792,108.950887
239.503794,108.950888
239.503796,108.950889
239.562875,108.972924
239.640795,109.001988
239.640803,109.001990
239.701350,109.008499
239.701355,109.008499
239.701362,109.008500
239.701368,109.008500
242.298632,109.008500
242.298638,109.008500
242.298645,109.008499
242.298649,109.008499
242.359196,109.001990
242.359199,109.001989
242.359201,109.001989
242.496204,108.950889
242.496204,108.950888
242.499539,108.949645
242.570354,108.944579
242.632667,108.978604
242.666692,109.040916
242.662501,109.109315
242.593441,109.306675
242.530945,109.580486
242.499500,109.859574
242.499500,110.140425
242.530945,110.419513
242.567911,110.581469
242.593440,110.693318
242.593442,110.693324
242.593441,110.693324
242.686192,110.958390
242.686203,110.958417
242.808056,111.211448
242.957474,111.449245
243.132586,111.668828
243.331171,111.867413
243.550754,112.042525
243.788551,112.191943
243.788554,112.191944
243.788555,112.191945
244.041592,112.313801
244.041608,112.313806
244.041609,112.313807
244.306675,112.406558
244.306678,112.406558
244.306682,112.406560
244.445245,112.438186
244.580486,112.469054
244.580487,112.469054
244.580491,112.469055
244.802328,112.494049
244.859574,112.500500
244.859575,112.500500
245.140426,112.500500
245.187927,112.495147
245.419509,112.469055
245.693318,112.406560
245.719242,112.397489
245.759590,112.383370
245.958408,112.313801
246.211445,112.191945
246.449248,112.042523
246.668825,111.867416
246.867416,111.668825
247.042523,111.449248
247.191945,111.211445
247.313801,110.958408
247.406560,110.693318
247.469055,110.419509
247.500500,110.140425
247.500500,109.859575
247.469055,109.580491
247.406560,109.306682
247.377438,109.223457
247.313807,109.041609
247.313806,109.041608
247.313801,109.041592
247.191945,108.788555
247.191944,108.788554
247.191943,108.788551
247.042525,108.550754
246.867413,108.331171
246.668828,108.132586
246.449245,107.957474
246.211448,107.808056
245.958417,107.686203
245.958412,107.686201
245.958408,107.686199
245.958402,107.686196
245.958390,107.686192
245.693324,107.593441
245.419513,107.530945
245.140426,107.499500
245.140425,107.499500
244.859575,107.499500
244.859574,107.499500
244.580486,107.530945
244.306675,107.593441
244.041609,107.686192
244.041582,107.686203
243.788551,107.808056
243.550754,107.957474
243.331171,108.132586
243.132586,108.331171
242.983011,108.518733
242.924900,108.559521
242.853962,108.562416
242.792720,108.526501
242.760618,108.463177
242.758500,108.440173
242.758500,105.451367
242.758499,105.451350
242.751990,105.390803
242.751988,105.390795
242.700889,105.253797
242.700887,105.253792
242.613261,105.136738
242.496207,105.049112
242.496202,105.049110
242.359204,104.998011
242.359196,104.998009
242.298649,104.991500
242.298638,104.991500
239.701362,104.991500
239.701350,104.991500
239.640803,104.998009
239.640795,104.998011
239.503797,105.049110
239.503792,105.049112
239.386738,105.136738
239.299112,105.253792
239.299110,105.253797
239.248011,105.390795
239.248009,105.390803
239.241500,105.451350
232.758499,105.451350
232.751990,105.390803
232.751988,105.390795
232.700889,105.253797
232.700887,105.253792
232.613261,105.136738
232.496207,105.049112
232.496202,105.049110
232.359204,104.998011
232.359196,104.998009
232.298649,104.991500
232.298638,104.991500
229.701362,104.991500
229.701350,104.991500
229.640803,104.998009
229.640795,104.998011
229.503797,105.049110
229.503792,105.049112
229.386738,105.136738
229.299112,105.253792
229.299110,105.253797
229.248011,105.390795
229.248009,105.390803
229.241500,105.451350
227.943005,105.451350
227.994535,105.236711
228.013165,105.000000
227.994535,104.763289
227.939105,104.532406
227.848240,104.313037
227.724176,104.110584
227.724173,104.110580
227.569969,103.930030
227.389419,103.775826
227.389417,103.775825
227.389416,103.775824
227.186963,103.651760
226.967594,103.560895
226.967592,103.560894
226.809651,103.522976
226.736711,103.505465
226.500000,103.486835
226.263289,103.505465
226.032407,103.560894
225.813038,103.651759
225.610582,103.775825
225.610580,103.775826
225.430030,103.930030
225.275826,104.110580
225.275825,104.110582
225.151759,104.313038
225.060894,104.532407
225.005465,104.763289
224.986835,105.000000
223.013165,105.000000
222.994535,104.763289
222.939105,104.532406
222.848240,104.313037
222.724176,104.110584
222.724173,104.110580
222.569969,103.930030
222.389419,103.775826
222.389417,103.775825
222.389416,103.775824
222.186963,103.651760
221.967594,103.560895
221.967592,103.560894
221.809651,103.522976
221.736711,103.505465
221.500000,103.486835
221.263289,103.505465
221.032407,103.560894
220.813038,103.651759
220.610582,103.775825
220.610580,103.775826
220.430030,103.930030
220.275826,104.110580
220.275825,104.110582
220.151759,104.313038
220.060894,104.532407
220.005465,104.763289
219.986835,105.000000
218.364537,105.000000
218.359204,104.998011
218.359196,104.998009
218.298649,104.991500
218.298638,104.991500
215.701362,104.991500
215.701350,104.991500
215.640803,104.998009
215.640795,104.998011
215.503797,105.049110
215.503792,105.049112
215.386738,105.136738
215.299112,105.253792
215.299110,105.253797
215.248011,105.390795
215.248009,105.390803
215.241500,105.451350
208.758499,105.451350
208.751990,105.390803
208.751988,105.390795
208.700889,105.253797
208.700887,105.253792
208.613261,105.136738
208.496207,105.049112
208.496202,105.049110
208.359204,104.998011
208.359196,104.998009
208.298649,104.991500
208.298638,104.991500
205.701362,104.991500
205.701350,104.991500
205.640803,104.998009
205.640795,104.998011
205.503797,105.049110
205.503792,105.049112
205.386738,105.136738
205.299112,105.253792
205.299110,105.253797
205.248011,105.390795
205.248009,105.390803
205.241500,105.451350
205.241500,108.440173
205.221498,108.508294
205.167842,108.554787
205.097568,108.564891
205.032988,108.535397
205.016989,108.518733
204.867413,108.331171
204.668828,108.132586
204.449245,107.957474
204.211448,107.808056
203.958417,107.686203
203.958412,107.686201
203.958408,107.686199
203.958402,107.686196
203.958390,107.686192
203.693324,107.593441
203.419513,107.530945
203.140426,107.499500
203.140425,107.499500
202.859575,107.499500
202.859574,107.499500
202.580486,107.530945
202.306675,107.593441
202.041609,107.686192
202.041582,107.686203
201.788551,107.808056
201.550754,107.957474
201.331171,108.132586
201.132586,108.331171
200.957474,108.550754
200.808056,108.788551
200.686203,109.041582
200.686192,109.041609
200.593441,109.306675
200.530945,109.580486
200.499500,109.859574
200.025500,109.859574
200.025500,102.004121
200.025770,101.995881
200.034201,101.867242
200.041852,101.750505
200.044000,101.734191
200.091170,101.497050
200.095429,101.481153
200.173151,101.252194
200.179445,101.236999
200.286387,101.020141
200.294611,101.005898
200.428942,100.804857
200.438962,100.791799
200.598378,100.610020
200.610020,100.598378
200.791799,100.438962
200.804857,100.428942
201.005898,100.294611
201.020141,100.286387
201.236999,100.179445
201.252194,100.173151
201.481153,100.095429
201.497050,100.091170
201.734191,100.044000
201.750505,100.041852
201.969931,100.027470
201.995882,100.025770
202.004122,100.025500
202.008285,100.025500
245.991715,100.025500
245.995878,100.025500
Z" /> 
</g> 
</svg>
