<?xml version="1.0" standalone="no"?>
 <!DOCTYPE svg PUBLIC "-//W3C//DTD SVG 1.1//EN" 
 "http://www.w3.org/Graphics/SVG/1.1/DTD/svg11.dtd"> 
<svg
  xmlns:svg="http://www.w3.org/2000/svg"
  xmlns="http://www.w3.org/2000/svg"
  xmlns:xlink="http://www.w3.org/1999/xlink"
  version="1.1"
  width="297.002200mm" height="210.007200mm" viewBox="0.000000 0.000000 297.002200 210.007200">
<title>SVG Image created as tone_block-F_Cu.svg date 2025/01/03 15:08:53 </title>
  <desc>Image generated by PCBNEW </desc>
<g style="fill:#000000; fill-opacity:1.000000;stroke:#000000; stroke-opacity:1.000000;
stroke-linecap:round; stroke-linejoin:round;"
 transform="translate(0 0) scale(1 1)">
<path style="fill:#000000; fill-opacity:1.000000; stroke:none;fill-rule:evenodd;"
d="M 213.630000,110.660000
213.576424,110.649343
213.531005,110.618995
213.500657,110.573576
213.490000,110.520000
213.490000,110.240000
213.500657,110.186424
213.531005,110.141005
213.576424,110.110657
213.630000,110.100000
213.970000,110.100000
214.023576,110.110657
214.068995,110.141005
214.099343,110.186424
214.110000,110.240000
214.110000,110.520000
214.099343,110.573576
214.068995,110.618995
214.023576,110.649343
213.970000,110.660000
Z" /> 
<path style="fill:#000000; fill-opacity:1.000000; stroke:none;fill-rule:evenodd;"
d="M 213.630000,109.700000
213.576424,109.689343
213.531005,109.658995
213.500657,109.613576
213.490000,109.560000
213.490000,109.280000
213.500657,109.226424
213.531005,109.181005
213.576424,109.150657
213.630000,109.140000
213.970000,109.140000
214.023576,109.150657
214.068995,109.181005
214.099343,109.226424
214.110000,109.280000
214.110000,109.560000
214.099343,109.613576
214.068995,109.658995
214.023576,109.689343
213.970000,109.700000
Z" /> 
<path style="fill:#000000; fill-opacity:1.000000; stroke:none;fill-rule:evenodd;"
d="M 219.475000,109.650000
219.570671,109.669030
219.651777,109.723223
219.705970,109.804329
219.725000,109.900000
219.725000,110.400000
219.705970,110.495671
219.651777,110.576777
219.570671,110.630970
219.475000,110.650000
218.525000,110.650000
218.429329,110.630970
218.348223,110.576777
218.294030,110.495671
218.275000,110.400000
218.275000,109.900000
218.294030,109.804329
218.348223,109.723223
218.429329,109.669030
218.525000,109.650000
Z" /> 
<path style="fill:#000000; fill-opacity:1.000000; stroke:none;fill-rule:evenodd;"
d="M 219.475000,111.550000
219.570671,111.569030
219.651777,111.623223
219.705970,111.704329
219.725000,111.800000
219.725000,112.300000
219.705970,112.395671
219.651777,112.476777
219.570671,112.530970
219.475000,112.550000
218.525000,112.550000
218.429329,112.530970
218.348223,112.476777
218.294030,112.395671
218.275000,112.300000
218.275000,111.800000
218.294030,111.704329
218.348223,111.623223
218.429329,111.569030
218.525000,111.550000
Z" /> 
</g>
<g style="fill:#000000; fill-opacity:1.000000; stroke:none;">
<circle cx="226.500000" cy="105.000000" r="1.000000" /> 
</g>
<g style="fill:#000000; fill-opacity:1.000000; stroke:none;">
<circle cx="221.500000" cy="105.000000" r="1.000000" /> 
<path style="fill:#000000; fill-opacity:1.000000; stroke:none;fill-rule:evenodd;"
d="M 206.485000,102.510000
206.536662,102.520276
206.580459,102.549541
206.609724,102.593338
206.620000,102.645000
206.620000,102.915000
206.609724,102.966662
206.580459,103.010459
206.536662,103.039724
206.485000,103.050000
206.115000,103.050000
206.063338,103.039724
206.019541,103.010459
205.990276,102.966662
205.980000,102.915000
205.980000,102.645000
205.990276,102.593338
206.019541,102.549541
206.063338,102.520276
206.115000,102.510000
Z" /> 
<path style="fill:#000000; fill-opacity:1.000000; stroke:none;fill-rule:evenodd;"
d="M 206.485000,103.530000
206.536662,103.540276
206.580459,103.569541
206.609724,103.613338
206.620000,103.665000
206.620000,103.935000
206.609724,103.986662
206.580459,104.030459
206.536662,104.059724
206.485000,104.070000
206.115000,104.070000
206.063338,104.059724
206.019541,104.030459
205.990276,103.986662
205.980000,103.935000
205.980000,103.665000
205.990276,103.613338
206.019541,103.569541
206.063338,103.540276
206.115000,103.530000
Z" /> 
<path style="fill:#000000; fill-opacity:1.000000; stroke:none;fill-rule:evenodd;"
d="M 233.475000,110.425000
233.490224,110.348463
233.533579,110.283579
233.598463,110.240224
233.675000,110.225000
234.075000,110.225000
234.151537,110.240224
234.216421,110.283579
234.259776,110.348463
234.275000,110.425000
234.275000,110.975000
234.259776,111.051537
234.216421,111.116421
234.151537,111.159776
234.075000,111.175000
233.675000,111.175000
233.598463,111.159776
233.533579,111.116421
233.490224,111.051537
233.475000,110.975000
Z" /> 
<path style="fill:#000000; fill-opacity:1.000000; stroke:none;fill-rule:evenodd;"
d="M 235.125000,110.425000
235.140224,110.348463
235.183579,110.283579
235.248463,110.240224
235.325000,110.225000
235.725000,110.225000
235.801537,110.240224
235.866421,110.283579
235.909776,110.348463
235.925000,110.425000
235.925000,110.975000
235.909776,111.051537
235.866421,111.116421
235.801537,111.159776
235.725000,111.175000
235.325000,111.175000
235.248463,111.159776
235.183579,111.116421
235.140224,111.051537
235.125000,110.975000
Z" /> 
<path style="fill:#000000; fill-opacity:1.000000; stroke:none;fill-rule:evenodd;"
d="M 214.325000,112.075000
214.309776,112.151537
214.266421,112.216421
214.201537,112.259776
214.125000,112.275000
213.725000,112.275000
213.648463,112.259776
213.583579,112.216421
213.540224,112.151537
213.525000,112.075000
213.525000,111.525000
213.540224,111.448463
213.583579,111.383579
213.648463,111.340224
213.725000,111.325000
214.125000,111.325000
214.201537,111.340224
214.266421,111.383579
214.309776,111.448463
214.325000,111.525000
Z" /> 
<path style="fill:#000000; fill-opacity:1.000000; stroke:none;fill-rule:evenodd;"
d="M 212.675000,112.075000
212.659776,112.151537
212.616421,112.216421
212.551537,112.259776
212.475000,112.275000
212.075000,112.275000
211.998463,112.259776
211.933579,112.216421
211.890224,112.151537
211.875000,112.075000
211.875000,111.525000
211.890224,111.448463
211.933579,111.383579
211.998463,111.340224
212.075000,111.325000
212.475000,111.325000
212.551537,111.340224
212.616421,111.383579
212.659776,111.448463
212.675000,111.525000
Z" /> 
<path style="fill:#000000; fill-opacity:1.000000; stroke:none;fill-rule:evenodd;"
d="M 207.975000,109.625000
207.990224,109.548463
208.033579,109.483579
208.098463,109.440224
208.175000,109.425000
208.575000,109.425000
208.651537,109.440224
208.716421,109.483579
208.759776,109.548463
208.775000,109.625000
208.775000,110.175000
208.759776,110.251537
208.716421,110.316421
208.651537,110.359776
208.575000,110.375000
208.175000,110.375000
208.098463,110.359776
208.033579,110.316421
207.990224,110.251537
207.975000,110.175000
Z" /> 
<path style="fill:#000000; fill-opacity:1.000000; stroke:none;fill-rule:evenodd;"
d="M 209.625000,109.625000
209.640224,109.548463
209.683579,109.483579
209.748463,109.440224
209.825000,109.425000
210.225000,109.425000
210.301537,109.440224
210.366421,109.483579
210.409776,109.548463
210.425000,109.625000
210.425000,110.175000
210.409776,110.251537
210.366421,110.316421
210.301537,110.359776
210.225000,110.375000
209.825000,110.375000
209.748463,110.359776
209.683579,110.316421
209.640224,110.251537
209.625000,110.175000
Z" /> 
<path style="fill:#000000; fill-opacity:1.000000; stroke:none;fill-rule:evenodd;"
d="M 207.715000,104.070000
207.663338,104.059724
207.619541,104.030459
207.590276,103.986662
207.580000,103.935000
207.580000,103.665000
207.590276,103.613338
207.619541,103.569541
207.663338,103.540276
207.715000,103.530000
208.085000,103.530000
208.136662,103.540276
208.180459,103.569541
208.209724,103.613338
208.220000,103.665000
208.220000,103.935000
208.209724,103.986662
208.180459,104.030459
208.136662,104.059724
208.085000,104.070000
Z" /> 
<path style="fill:#000000; fill-opacity:1.000000; stroke:none;fill-rule:evenodd;"
d="M 207.715000,103.050000
207.663338,103.039724
207.619541,103.010459
207.590276,102.966662
207.580000,102.915000
207.580000,102.645000
207.590276,102.593338
207.619541,102.549541
207.663338,102.520276
207.715000,102.510000
208.085000,102.510000
208.136662,102.520276
208.180459,102.549541
208.209724,102.593338
208.220000,102.645000
208.220000,102.915000
208.209724,102.966662
208.180459,103.010459
208.136662,103.039724
208.085000,103.050000
Z" /> 
<path style="fill:#000000; fill-opacity:1.000000; stroke:none;fill-rule:evenodd;"
d="M 207.925000,119.450000
207.829329,119.430970
207.748223,119.376777
207.694030,119.295671
207.675000,119.200000
207.675000,118.700000
207.694030,118.604329
207.748223,118.523223
207.829329,118.469030
207.925000,118.450000
208.875000,118.450000
208.970671,118.469030
209.051777,118.523223
209.105970,118.604329
209.125000,118.700000
209.125000,119.200000
209.105970,119.295671
209.051777,119.376777
208.970671,119.430970
208.875000,119.450000
Z" /> 
<path style="fill:#000000; fill-opacity:1.000000; stroke:none;fill-rule:evenodd;"
d="M 207.925000,117.550000
207.829329,117.530970
207.748223,117.476777
207.694030,117.395671
207.675000,117.300000
207.675000,116.800000
207.694030,116.704329
207.748223,116.623223
207.829329,116.569030
207.925000,116.550000
208.875000,116.550000
208.970671,116.569030
209.051777,116.623223
209.105970,116.704329
209.125000,116.800000
209.125000,117.300000
209.105970,117.395671
209.051777,117.476777
208.970671,117.530970
208.875000,117.550000
Z" /> 
<path style="fill:#000000; fill-opacity:1.000000; stroke:none;fill-rule:evenodd;"
d="M 213.375000,119.100000
213.363582,119.157403
213.331066,119.206066
213.282403,119.238582
213.225000,119.250000
212.050000,119.250000
211.992597,119.238582
211.943934,119.206066
211.911418,119.157403
211.900000,119.100000
211.900000,118.800000
211.911418,118.742597
211.943934,118.693934
211.992597,118.661418
212.050000,118.650000
213.225000,118.650000
213.282403,118.661418
213.331066,118.693934
213.363582,118.742597
213.375000,118.800000
Z" /> 
<path style="fill:#000000; fill-opacity:1.000000; stroke:none;fill-rule:evenodd;"
d="M 213.375000,117.200000
213.363582,117.257403
213.331066,117.306066
213.282403,117.338582
213.225000,117.350000
212.050000,117.350000
211.992597,117.338582
211.943934,117.306066
211.911418,117.257403
211.900000,117.200000
211.900000,116.900000
211.911418,116.842597
211.943934,116.793934
211.992597,116.761418
212.050000,116.750000
213.225000,116.750000
213.282403,116.761418
213.331066,116.793934
213.363582,116.842597
213.375000,116.900000
Z" /> 
<path style="fill:#000000; fill-opacity:1.000000; stroke:none;fill-rule:evenodd;"
d="M 211.500000,118.150000
211.488582,118.207403
211.456066,118.256066
211.407403,118.288582
211.350000,118.300000
210.175000,118.300000
210.117597,118.288582
210.068934,118.256066
210.036418,118.207403
210.025000,118.150000
210.025000,117.850000
210.036418,117.792597
210.068934,117.743934
210.117597,117.711418
210.175000,117.700000
211.350000,117.700000
211.407403,117.711418
211.456066,117.743934
211.488582,117.792597
211.500000,117.850000
Z" /> 
<path style="fill:#000000; fill-opacity:1.000000; stroke:none;fill-rule:evenodd;"
d="M 230.690000,116.650000
232.390000,116.650000
232.390000,118.350000
230.690000,118.350000
Z" /> 
</g>
<g style="fill:#000000; fill-opacity:1.000000; stroke:none;">
<circle cx="229.000000" cy="117.500000" r="0.850000" /> 
<circle cx="226.460000" cy="117.500000" r="0.850000" /> 
<path style="fill:#000000; fill-opacity:1.000000; stroke:none;fill-rule:evenodd;"
d="M 229.385000,109.420000
229.436662,109.430276
229.480459,109.459541
229.509724,109.503338
229.520000,109.555000
229.520000,109.825000
229.509724,109.876662
229.480459,109.920459
229.436662,109.949724
229.385000,109.960000
229.015000,109.960000
228.963338,109.949724
228.919541,109.920459
228.890276,109.876662
228.880000,109.825000
228.880000,109.555000
228.890276,109.503338
228.919541,109.459541
228.963338,109.430276
229.015000,109.420000
Z" /> 
<path style="fill:#000000; fill-opacity:1.000000; stroke:none;fill-rule:evenodd;"
d="M 229.385000,110.440000
229.436662,110.450276
229.480459,110.479541
229.509724,110.523338
229.520000,110.575000
229.520000,110.845000
229.509724,110.896662
229.480459,110.940459
229.436662,110.969724
229.385000,110.980000
229.015000,110.980000
228.963338,110.969724
228.919541,110.940459
228.890276,110.896662
228.880000,110.845000
228.880000,110.575000
228.890276,110.523338
228.919541,110.479541
228.963338,110.450276
229.015000,110.440000
Z" /> 
<path style="fill:#000000; fill-opacity:1.000000; stroke:none;fill-rule:evenodd;"
d="M 213.950000,101.825000
214.007403,101.836418
214.056066,101.868934
214.088582,101.917597
214.100000,101.975000
214.100000,103.625000
214.088582,103.682403
214.056066,103.731066
214.007403,103.763582
213.950000,103.775000
213.650000,103.775000
213.592597,103.763582
213.543934,103.731066
213.511418,103.682403
213.500000,103.625000
213.500000,101.975000
213.511418,101.917597
213.543934,101.868934
213.592597,101.836418
213.650000,101.825000
Z" /> 
<path style="fill:#000000; fill-opacity:1.000000; stroke:none;fill-rule:evenodd;"
d="M 212.680000,101.825000
212.737403,101.836418
212.786066,101.868934
212.818582,101.917597
212.830000,101.975000
212.830000,103.625000
212.818582,103.682403
212.786066,103.731066
212.737403,103.763582
212.680000,103.775000
212.380000,103.775000
212.322597,103.763582
212.273934,103.731066
212.241418,103.682403
212.230000,103.625000
212.230000,101.975000
212.241418,101.917597
212.273934,101.868934
212.322597,101.836418
212.380000,101.825000
Z" /> 
<path style="fill:#000000; fill-opacity:1.000000; stroke:none;fill-rule:evenodd;"
d="M 211.410000,101.825000
211.467403,101.836418
211.516066,101.868934
211.548582,101.917597
211.560000,101.975000
211.560000,103.625000
211.548582,103.682403
211.516066,103.731066
211.467403,103.763582
211.410000,103.775000
211.110000,103.775000
211.052597,103.763582
211.003934,103.731066
210.971418,103.682403
210.960000,103.625000
210.960000,101.975000
210.971418,101.917597
211.003934,101.868934
211.052597,101.836418
211.110000,101.825000
Z" /> 
<path style="fill:#000000; fill-opacity:1.000000; stroke:none;fill-rule:evenodd;"
d="M 210.140000,101.825000
210.197403,101.836418
210.246066,101.868934
210.278582,101.917597
210.290000,101.975000
210.290000,103.625000
210.278582,103.682403
210.246066,103.731066
210.197403,103.763582
210.140000,103.775000
209.840000,103.775000
209.782597,103.763582
209.733934,103.731066
209.701418,103.682403
209.690000,103.625000
209.690000,101.975000
209.701418,101.917597
209.733934,101.868934
209.782597,101.836418
209.840000,101.825000
Z" /> 
<path style="fill:#000000; fill-opacity:1.000000; stroke:none;fill-rule:evenodd;"
d="M 210.140000,106.775000
210.197403,106.786418
210.246066,106.818934
210.278582,106.867597
210.290000,106.925000
210.290000,108.575000
210.278582,108.632403
210.246066,108.681066
210.197403,108.713582
210.140000,108.725000
209.840000,108.725000
209.782597,108.713582
209.733934,108.681066
209.701418,108.632403
209.690000,108.575000
209.690000,106.925000
209.701418,106.867597
209.733934,106.818934
209.782597,106.786418
209.840000,106.775000
Z" /> 
<path style="fill:#000000; fill-opacity:1.000000; stroke:none;fill-rule:evenodd;"
d="M 211.410000,106.775000
211.467403,106.786418
211.516066,106.818934
211.548582,106.867597
211.560000,106.925000
211.560000,108.575000
211.548582,108.632403
211.516066,108.681066
211.467403,108.713582
211.410000,108.725000
211.110000,108.725000
211.052597,108.713582
211.003934,108.681066
210.971418,108.632403
210.960000,108.575000
210.960000,106.925000
210.971418,106.867597
211.003934,106.818934
211.052597,106.786418
211.110000,106.775000
Z" /> 
<path style="fill:#000000; fill-opacity:1.000000; stroke:none;fill-rule:evenodd;"
d="M 212.680000,106.775000
212.737403,106.786418
212.786066,106.818934
212.818582,106.867597
212.830000,106.925000
212.830000,108.575000
212.818582,108.632403
212.786066,108.681066
212.737403,108.713582
212.680000,108.725000
212.380000,108.725000
212.322597,108.713582
212.273934,108.681066
212.241418,108.632403
212.230000,108.575000
212.230000,106.925000
212.241418,106.867597
212.273934,106.818934
212.322597,106.786418
212.380000,106.775000
Z" /> 
<path style="fill:#000000; fill-opacity:1.000000; stroke:none;fill-rule:evenodd;"
d="M 213.950000,106.775000
214.007403,106.786418
214.056066,106.818934
214.088582,106.867597
214.100000,106.925000
214.100000,108.575000
214.088582,108.632403
214.056066,108.681066
214.007403,108.713582
213.950000,108.725000
213.650000,108.725000
213.592597,108.713582
213.543934,108.681066
213.511418,108.632403
213.500000,108.575000
213.500000,106.925000
213.511418,106.867597
213.543934,106.818934
213.592597,106.786418
213.650000,106.775000
Z" /> 
<path style="fill:#000000; fill-opacity:1.000000; stroke:none;fill-rule:evenodd;"
d="M 220.690000,116.650000
222.390000,116.650000
222.390000,118.350000
220.690000,118.350000
Z" /> 
<circle cx="219.000000" cy="117.500000" r="0.850000" /> 
<circle cx="216.460000" cy="117.500000" r="0.850000" /> 
<path style="fill:#000000; fill-opacity:1.000000; stroke:none;fill-rule:evenodd;"
d="M 227.915000,110.980000
227.863338,110.969724
227.819541,110.940459
227.790276,110.896662
227.780000,110.845000
227.780000,110.575000
227.790276,110.523338
227.819541,110.479541
227.863338,110.450276
227.915000,110.440000
228.285000,110.440000
228.336662,110.450276
228.380459,110.479541
228.409724,110.523338
228.420000,110.575000
228.420000,110.845000
228.409724,110.896662
228.380459,110.940459
228.336662,110.969724
228.285000,110.980000
Z" /> 
<path style="fill:#000000; fill-opacity:1.000000; stroke:none;fill-rule:evenodd;"
d="M 227.915000,109.960000
227.863338,109.949724
227.819541,109.920459
227.790276,109.876662
227.780000,109.825000
227.780000,109.555000
227.790276,109.503338
227.819541,109.459541
227.863338,109.430276
227.915000,109.420000
228.285000,109.420000
228.336662,109.430276
228.380459,109.459541
228.409724,109.503338
228.420000,109.555000
228.420000,109.825000
228.409724,109.876662
228.380459,109.920459
228.336662,109.949724
228.285000,109.960000
Z" /> 
<path style="fill:#000000; fill-opacity:1.000000; stroke:none;fill-rule:evenodd;"
d="M 233.250000,108.325000
233.269030,108.229329
233.323223,108.148223
233.404329,108.094030
233.500000,108.075000
234.000000,108.075000
234.095671,108.094030
234.176777,108.148223
234.230970,108.229329
234.250000,108.325000
234.250000,109.275000
234.230970,109.370671
234.176777,109.451777
234.095671,109.505970
234.000000,109.525000
233.500000,109.525000
233.404329,109.505970
233.323223,109.451777
233.269030,109.370671
233.250000,109.275000
Z" /> 
<path style="fill:#000000; fill-opacity:1.000000; stroke:none;fill-rule:evenodd;"
d="M 235.150000,108.325000
235.169030,108.229329
235.223223,108.148223
235.304329,108.094030
235.400000,108.075000
235.900000,108.075000
235.995671,108.094030
236.076777,108.148223
236.130970,108.229329
236.150000,108.325000
236.150000,109.275000
236.130970,109.370671
236.076777,109.451777
235.995671,109.505970
235.900000,109.525000
235.400000,109.525000
235.304329,109.505970
235.223223,109.451777
235.169030,109.370671
235.150000,109.275000
Z" /> 
<path style="fill:#000000; fill-opacity:1.000000; stroke:none;fill-rule:evenodd;"
d="M 207.750000,111.325000
207.769030,111.229329
207.823223,111.148223
207.904329,111.094030
208.000000,111.075000
208.500000,111.075000
208.595671,111.094030
208.676777,111.148223
208.730970,111.229329
208.750000,111.325000
208.750000,112.275000
208.730970,112.370671
208.676777,112.451777
208.595671,112.505970
208.500000,112.525000
208.000000,112.525000
207.904329,112.505970
207.823223,112.451777
207.769030,112.370671
207.750000,112.275000
Z" /> 
<path style="fill:#000000; fill-opacity:1.000000; stroke:none;fill-rule:evenodd;"
d="M 209.650000,111.325000
209.669030,111.229329
209.723223,111.148223
209.804329,111.094030
209.900000,111.075000
210.400000,111.075000
210.495671,111.094030
210.576777,111.148223
210.630970,111.229329
210.650000,111.325000
210.650000,112.275000
210.630970,112.370671
210.576777,112.451777
210.495671,112.505970
210.400000,112.525000
209.900000,112.525000
209.804329,112.505970
209.723223,112.451777
209.669030,112.370671
209.650000,112.275000
Z" /> 
<path style="fill:#000000; fill-opacity:1.000000; stroke:none;fill-rule:evenodd;"
d="M 222.400000,112.325000
222.388926,112.409116
222.341224,112.511412
222.261412,112.591224
222.159116,112.638926
222.075000,112.650000
221.425000,112.650000
221.340884,112.638926
221.238588,112.591224
221.158776,112.511412
221.111074,112.409116
221.100000,112.325000
221.100000,111.675000
221.111074,111.590884
221.158776,111.488588
221.238588,111.408776
221.340884,111.361074
221.425000,111.350000
222.075000,111.350000
222.159116,111.361074
222.261412,111.408776
222.341224,111.488588
222.388926,111.590884
222.400000,111.675000
Z" /> 
<path style="fill:#000000; fill-opacity:1.000000; stroke:none;fill-rule:evenodd;"
d="M 222.400000,110.325000
222.388926,110.409116
222.341224,110.511412
222.261412,110.591224
222.159116,110.638926
222.075000,110.650000
221.425000,110.650000
221.340884,110.638926
221.238588,110.591224
221.158776,110.511412
221.111074,110.409116
221.100000,110.325000
221.100000,109.675000
221.111074,109.590884
221.158776,109.488588
221.238588,109.408776
221.340884,109.361074
221.425000,109.350000
222.075000,109.350000
222.159116,109.361074
222.261412,109.408776
222.341224,109.488588
222.388926,109.590884
222.400000,109.675000
Z" /> 
<path style="fill:#000000; fill-opacity:1.000000; stroke:none;fill-rule:evenodd;"
d="M 222.400000,108.325000
222.388926,108.409116
222.341224,108.511412
222.261412,108.591224
222.159116,108.638926
222.075000,108.650000
221.425000,108.650000
221.340884,108.638926
221.238588,108.591224
221.158776,108.511412
221.111074,108.409116
221.100000,108.325000
221.100000,107.675000
221.111074,107.590884
221.158776,107.488588
221.238588,107.408776
221.340884,107.361074
221.425000,107.350000
222.075000,107.350000
222.159116,107.361074
222.261412,107.408776
222.341224,107.488588
222.388926,107.590884
222.400000,107.675000
Z" /> 
<path style="fill:#000000; fill-opacity:1.000000; stroke:none;fill-rule:evenodd;"
d="M 226.900000,112.325000
226.888926,112.409116
226.841224,112.511412
226.761412,112.591224
226.659116,112.638926
226.575000,112.650000
225.925000,112.650000
225.840884,112.638926
225.738588,112.591224
225.658776,112.511412
225.611074,112.409116
225.600000,112.325000
225.600000,111.675000
225.611074,111.590884
225.658776,111.488588
225.738588,111.408776
225.840884,111.361074
225.925000,111.350000
226.575000,111.350000
226.659116,111.361074
226.761412,111.408776
226.841224,111.488588
226.888926,111.590884
226.900000,111.675000
Z" /> 
<path style="fill:#000000; fill-opacity:1.000000; stroke:none;fill-rule:evenodd;"
d="M 226.900000,110.325000
226.888926,110.409116
226.841224,110.511412
226.761412,110.591224
226.659116,110.638926
226.575000,110.650000
225.925000,110.650000
225.840884,110.638926
225.738588,110.591224
225.658776,110.511412
225.611074,110.409116
225.600000,110.325000
225.600000,109.675000
225.611074,109.590884
225.658776,109.488588
225.738588,109.408776
225.840884,109.361074
225.925000,109.350000
226.575000,109.350000
226.659116,109.361074
226.761412,109.408776
226.841224,109.488588
226.888926,109.590884
226.900000,109.675000
Z" /> 
<path style="fill:#000000; fill-opacity:1.000000; stroke:none;fill-rule:evenodd;"
d="M 226.900000,108.325000
226.888926,108.409116
226.841224,108.511412
226.761412,108.591224
226.659116,108.638926
226.575000,108.650000
225.925000,108.650000
225.840884,108.638926
225.738588,108.591224
225.658776,108.511412
225.611074,108.409116
225.600000,108.325000
225.600000,107.675000
225.611074,107.590884
225.658776,107.488588
225.738588,107.408776
225.840884,107.361074
225.925000,107.350000
226.575000,107.350000
226.659116,107.361074
226.761412,107.408776
226.841224,107.488588
226.888926,107.590884
226.900000,107.675000
Z" /> 
<path style="fill:#000000; fill-opacity:1.000000; stroke:none;fill-rule:evenodd;"
d="M 239.400000,113.100000
239.400000,114.900000
237.600000,114.900000
237.600000,113.100000
Z" /> 
<path style="fill:#000000; fill-opacity:1.000000; stroke:none;fill-rule:evenodd;"
d="M 236.900000,113.100000
236.900000,114.900000
235.100000,114.900000
235.100000,113.100000
Z" /> 
<path style="fill:#000000; fill-opacity:1.000000; stroke:none;fill-rule:evenodd;"
d="M 234.400000,113.100000
234.400000,114.900000
232.600000,114.900000
232.600000,113.100000
Z" /> 
<path style="fill:#000000; fill-opacity:1.000000; stroke:none;fill-rule:evenodd;"
d="M 242.250000,105.500000
242.250000,108.500000
239.750000,108.500000
239.750000,105.500000
Z" /> 
<path style="fill:#000000; fill-opacity:1.000000; stroke:none;fill-rule:evenodd;"
d="M 232.250000,105.500000
232.250000,108.500000
229.750000,108.500000
229.750000,105.500000
Z" /> 
<path style="fill:#000000; fill-opacity:1.000000; stroke:none;fill-rule:evenodd;"
d="M 215.400000,113.100000
215.400000,114.900000
213.600000,114.900000
213.600000,113.100000
Z" /> 
<path style="fill:#000000; fill-opacity:1.000000; stroke:none;fill-rule:evenodd;"
d="M 212.900000,113.100000
212.900000,114.900000
211.100000,114.900000
211.100000,113.100000
Z" /> 
<path style="fill:#000000; fill-opacity:1.000000; stroke:none;fill-rule:evenodd;"
d="M 210.400000,113.100000
210.400000,114.900000
208.600000,114.900000
208.600000,113.100000
Z" /> 
<path style="fill:#000000; fill-opacity:1.000000; stroke:none;fill-rule:evenodd;"
d="M 218.250000,105.500000
218.250000,108.500000
215.750000,108.500000
215.750000,105.500000
Z" /> 
<path style="fill:#000000; fill-opacity:1.000000; stroke:none;fill-rule:evenodd;"
d="M 208.250000,105.500000
208.250000,108.500000
205.750000,108.500000
205.750000,105.500000
Z" /> 
<circle cx="242.000000" cy="103.000000" r="0.400000" /> 
</g>
<g style="fill:#000000; fill-opacity:1.000000; stroke:none;">
<circle cx="202.200000" cy="115.000000" r="0.400000" /> 
</g>
<g style="fill:#000000; fill-opacity:1.000000; stroke:none;">
<circle cx="238.000000" cy="105.000000" r="0.400000" /> 
</g>
<g style="fill:#000000; fill-opacity:1.000000; stroke:none;">
<circle cx="238.000000" cy="107.000000" r="0.400000" /> 
</g>
<g style="fill:#000000; fill-opacity:1.000000; stroke:none;">
<circle cx="236.000000" cy="103.000000" r="0.400000" /> 
</g>
<g style="fill:#000000; fill-opacity:1.000000; stroke:none;">
<circle cx="202.200000" cy="105.000000" r="0.400000" /> 
</g>
<g style="fill:#000000; fill-opacity:1.000000; stroke:none;">
<circle cx="204.200000" cy="115.000000" r="0.400000" /> 
</g>
<g style="fill:#000000; fill-opacity:1.000000; stroke:none;">
<circle cx="246.000000" cy="103.000000" r="0.400000" /> 
</g>
<g style="fill:#000000; fill-opacity:1.000000; stroke:none;">
<circle cx="210.000000" cy="104.325000" r="0.400000" /> 
</g>
<g style="fill:#000000; fill-opacity:1.000000; stroke:none;">
<circle cx="206.000000" cy="117.000000" r="0.400000" /> 
</g>
<g style="fill:#000000; fill-opacity:1.000000; stroke:none;">
<circle cx="244.000000" cy="115.000000" r="0.400000" /> 
</g>
<g style="fill:#000000; fill-opacity:1.000000; stroke:none;">
<circle cx="224.000000" cy="102.000000" r="0.400000" /> 
</g>
<g style="fill:#000000; fill-opacity:1.000000; stroke:none;">
<circle cx="204.200000" cy="105.000000" r="0.400000" /> 
</g>
<g style="fill:#000000; fill-opacity:1.000000; stroke:none;">
<circle cx="236.000000" cy="105.000000" r="0.400000" /> 
</g>
<g style="fill:#000000; fill-opacity:1.000000; stroke:none;">
<circle cx="202.200000" cy="103.000000" r="0.400000" /> 
</g>
<g style="fill:#000000; fill-opacity:1.000000; stroke:none;">
<circle cx="238.000000" cy="111.000000" r="0.400000" /> 
</g>
<g style="fill:#000000; fill-opacity:1.000000; stroke:none;">
<circle cx="242.000000" cy="115.000000" r="0.400000" /> 
</g>
<g style="fill:#000000; fill-opacity:1.000000; stroke:none;">
<circle cx="206.000000" cy="115.000000" r="0.400000" /> 
</g>
<g style="fill:#000000; fill-opacity:1.000000; stroke:none;">
<circle cx="214.850000" cy="110.850000" r="0.400000" /> 
</g>
<g style="fill:#000000; fill-opacity:1.000000; stroke:none;">
<circle cx="222.000000" cy="102.000000" r="0.400000" /> 
</g>
<g style="fill:#000000; fill-opacity:1.000000; stroke:none;">
<circle cx="240.000000" cy="111.000000" r="0.400000" /> 
</g>
<g style="fill:#000000; fill-opacity:1.000000; stroke:none;">
<circle cx="204.200000" cy="117.000000" r="0.400000" /> 
</g>
<g style="fill:#000000; fill-opacity:1.000000; stroke:none;">
<circle cx="246.000000" cy="115.000000" r="0.400000" /> 
</g>
<g style="fill:#000000; fill-opacity:1.000000; stroke:none;">
<circle cx="202.200000" cy="117.000000" r="0.400000" /> 
</g>
<g style="fill:#000000; fill-opacity:1.000000; stroke:none;">
<circle cx="246.000000" cy="105.000000" r="0.400000" /> 
</g>
<g style="fill:#000000; fill-opacity:1.000000; stroke:none;">
<circle cx="238.000000" cy="103.000000" r="0.400000" /> 
</g>
<g style="fill:#000000; fill-opacity:1.000000; stroke:none;">
<circle cx="244.000000" cy="103.000000" r="0.400000" /> 
</g>
<g style="fill:#000000; fill-opacity:1.000000; stroke:none;">
<circle cx="240.000000" cy="103.000000" r="0.400000" /> 
</g>
<g style="fill:#000000; fill-opacity:1.000000; stroke:none;">
<circle cx="234.000000" cy="103.000000" r="0.400000" /> 
</g>
<g style="fill:#000000; fill-opacity:1.000000; stroke:none;">
<circle cx="204.200000" cy="103.000000" r="0.400000" /> 
</g>
<g style="fill:#000000; fill-opacity:1.000000; stroke:none;">
<circle cx="207.000000" cy="111.800000" r="0.400000" /> 
</g>
<g style="fill:#000000; fill-opacity:1.000000; stroke:none;">
<circle cx="238.000000" cy="109.000000" r="0.400000" /> 
</g>
<g style="fill:#000000; fill-opacity:1.000000; stroke:none;">
<circle cx="226.000000" cy="102.000000" r="0.400000" /> 
</g>
<g style="fill:#000000; fill-opacity:1.000000; stroke:none;">
<circle cx="244.000000" cy="105.000000" r="0.400000" /> 
</g>
<g style="fill:#000000; fill-opacity:1.000000; stroke:none;">
<circle cx="232.300000" cy="110.800000" r="0.400000" /> 
</g>
<g style="fill:none; 
stroke:#000000; stroke-width:0.500000; stroke-opacity:1; 
stroke-linecap:round; stroke-linejoin:round;">
<path d="M213.800000 110.380000
L214.380000 110.380000
" />
</g>
<g style="fill:none; 
stroke:#000000; stroke-width:0.250000; stroke-opacity:1; 
stroke-linecap:round; stroke-linejoin:round;">
<path d="M210.000000 104.325000
L209.990000 104.315000
" />
</g>
<g style="fill:none; 
stroke:#000000; stroke-width:0.500000; stroke-opacity:1; 
stroke-linecap:round; stroke-linejoin:round;">
<path d="M208.250000 111.800000
L207.000000 111.800000
" />
<path d="M214.380000 110.380000
L214.850000 110.850000
" />
</g>
<g style="fill:none; 
stroke:#000000; stroke-width:0.250000; stroke-opacity:1; 
stroke-linecap:round; stroke-linejoin:round;">
<path d="M209.990000 104.315000
L209.990000 102.800000
" />
<path d="M221.412500 105.087500
L221.500000 105.000000
" />
<path d="M213.800000 102.800000
L212.530000 102.800000
" />
<path d="M216.000000 105.000000
L221.500000 105.000000
" />
<path d="M213.800000 102.800000
L216.000000 105.000000
" />
<path d="M226.460000 117.500000
L226.460000 112.460000
" />
<path d="M221.450000 112.050000
L221.500000 112.000000
" />
<path d="M219.000000 112.050000
L221.450000 112.050000
" />
<path d="M226.460000 112.460000
L226.000000 112.000000
" />
<path d="M213.800000 105.800000
L213.800000 107.750000
" />
</g>
<g style="fill:none; 
stroke:#000000; stroke-width:0.500000; stroke-opacity:1; 
stroke-linecap:round; stroke-linejoin:round;">
<path d="M213.800000 109.420000
L213.800000 107.750000
" />
<path d="M214.820000 109.420000
L213.800000 109.420000
" />
</g>
<g style="fill:none; 
stroke:#000000; stroke-width:0.250000; stroke-opacity:1; 
stroke-linecap:round; stroke-linejoin:round;">
<path d="M209.100000 105.000000
L213.000000 105.000000
" />
</g>
<g style="fill:none; 
stroke:#000000; stroke-width:0.500000; stroke-opacity:1; 
stroke-linecap:round; stroke-linejoin:round;">
<path d="M212.637500 117.050000
L214.050000 117.050000
" />
<path d="M216.000000 115.100000
L216.000000 110.600000
" />
<path d="M216.000000 110.600000
L214.820000 109.420000
" />
<path d="M214.050000 117.050000
L216.000000 115.100000
" />
</g>
<g style="fill:none; 
stroke:#000000; stroke-width:0.250000; stroke-opacity:1; 
stroke-linecap:round; stroke-linejoin:round;">
<path d="M213.000000 105.000000
L213.800000 105.800000
" />
<path d="M207.900000 103.800000
L209.100000 105.000000
" />
</g>
<g style="fill:none; 
stroke:#000000; stroke-width:0.500000; stroke-opacity:1; 
stroke-linecap:round; stroke-linejoin:round;">
<path d="M208.400000 117.050000
L212.637500 117.050000
" />
</g>
<g style="fill:none; 
stroke:#000000; stroke-width:0.250000; stroke-opacity:1; 
stroke-linecap:round; stroke-linejoin:round;">
<path d="M234.700000 107.400000
L232.300000 105.000000
" />
<path d="M233.500000 114.000000
L233.500000 112.790000
" />
<path d="M234.700000 111.590000
L234.700000 107.400000
" />
<path d="M232.300000 105.000000
L226.500000 105.000000
" />
<path d="M234.190000 112.100000
L234.700000 111.590000
" />
<path d="M233.500000 112.790000
L234.190000 112.100000
" />
<path d="M226.250000 110.000000
L223.200000 110.000000
" />
<path d="M223.200000 110.000000
L221.750000 110.000000
" />
<path d="M216.460000 117.500000
L217.600000 116.360000
" />
<path d="M218.100000 111.100000
L220.400000 111.100000
" />
<path d="M217.600000 116.360000
L217.600000 111.600000
" />
<path d="M220.400000 111.100000
L221.500000 110.000000
" />
<path d="M217.600000 111.600000
L218.100000 111.100000
" />
</g>
<g style="fill:none; 
stroke:#000000; stroke-width:0.500000; stroke-opacity:1; 
stroke-linecap:round; stroke-linejoin:round;">
<path d="M214.460000 118.000000
L215.360000 118.900000
" />
<path d="M230.140000 118.900000
L231.540000 117.500000
" />
<path d="M210.762500 118.000000
L214.460000 118.000000
" />
<path d="M215.360000 118.900000
L230.140000 118.900000
" />
</g>
<g style="fill:none; 
stroke:#000000; stroke-width:0.250000; stroke-opacity:1; 
stroke-linecap:round; stroke-linejoin:round;">
<path d="M227.690000 109.690000
L226.000000 108.000000
" />
<path d="M226.250000 108.000000
L221.750000 108.000000
" />
<path d="M228.100000 109.690000
L227.690000 109.690000
" />
<path d="M211.260000 102.800000
L211.260000 101.825001
" />
<path d="M211.260000 103.560000
L212.100000 104.400000
" />
<path d="M216.650000 110.150000
L219.000000 110.150000
" />
<path d="M206.420000 102.780000
L206.400000 102.800000
" />
<path d="M211.260000 102.800000
L211.260000 103.560000
" />
<path d="M210.434999 101.000000
L208.800000 101.000000
" />
<path d="M208.800000 101.000000
L207.900000 101.900000
" />
<path d="M207.900000 102.780000
L206.420000 102.780000
" />
<path d="M212.100000 104.400000
L213.100000 104.400000
" />
<path d="M215.100000 106.400000
L215.100000 108.600000
" />
<path d="M213.100000 104.400000
L215.100000 106.400000
" />
<path d="M211.260000 101.825001
L210.434999 101.000000
" />
<path d="M215.100000 108.600000
L216.650000 110.150000
" />
<path d="M207.900000 101.900000
L207.900000 102.780000
" />
<path d="M209.990000 109.865000
L209.990000 107.750000
" />
<path d="M210.025000 109.900000
L210.025000 111.675000
" />
<path d="M210.025000 109.900000
L209.990000 109.865000
" />
<path d="M210.025000 111.675000
L210.150000 111.800000
" />
<path d="M229.200000 110.710000
L230.290000 110.710000
" />
<path d="M232.200000 108.800000
L233.750000 108.800000
" />
<path d="M230.290000 110.710000
L232.200000 108.800000
" />
<path d="M228.100000 110.710000
L229.200000 110.710000
" />
<path d="M235.650000 110.575000
L235.525000 110.700000
" />
<path d="M238.500000 114.000000
L236.000000 114.000000
" />
<path d="M235.210000 111.015000
L235.525000 110.700000
" />
<path d="M236.000000 112.890000
L235.210000 112.100000
" />
<path d="M236.000000 114.000000
L236.000000 112.890000
" />
<path d="M235.650000 108.800000
L235.650000 110.575000
" />
<path d="M235.210000 112.100000
L235.210000 111.015000
" />
<path d="M212.530000 107.750000
L211.260000 107.750000
" />
<path d="M212.530000 107.750000
L212.530000 111.545000
" />
<path d="M212.530000 111.545000
L212.275000 111.800000
" />
<path d="M213.925000 113.425000
L214.500000 114.000000
" />
<path d="M213.925000 111.800000
L213.925000 113.425000
" />
<path d="M233.775000 110.800000
L233.875000 110.700000
" />
<path d="M232.300000 110.800000
L233.775000 110.800000
" />
<path d="M206.100000 111.200000
L206.100000 112.500000
" />
<path d="M207.600000 114.000000
L209.500000 114.000000
" />
<path d="M208.375000 109.900000
L207.400000 109.900000
" />
<path d="M207.400000 109.900000
L206.100000 111.200000
" />
<path d="M206.100000 112.500000
L207.600000 114.000000
" />
<path style="fill:#000000; fill-opacity:1.000000; stroke:none;fill-rule:evenodd;"
d="M 225.137590,110.653502
225.182348,110.703515
225.192428,110.723838
225.218565,110.776539
225.218568,110.776544
225.334732,110.921061
225.361820,110.986687
225.349127,111.056540
225.334732,111.078939
225.261075,111.170574
225.218567,111.223457
225.138014,111.385876
225.134996,111.398013
225.094259,111.561815
225.094259,111.561818
225.091500,111.602507
225.091500,112.397489
225.091501,112.397495
225.094259,112.438181
225.094259,112.438184
225.094260,112.438186
225.138014,112.614124
225.218567,112.776543
225.332151,112.917849
225.473457,113.031433
225.635876,113.111986
225.730909,113.135619
225.792188,113.171470
225.824358,113.234760
225.826500,113.257895
225.826500,116.223078
225.806498,116.291199
225.760471,116.333891
225.714426,116.358810
225.714424,116.358811
225.536762,116.497091
225.384279,116.662729
225.384275,116.662734
225.261141,116.851206
225.170703,117.057386
225.170702,117.057387
225.115437,117.275624
225.115436,117.275630
225.115436,117.275632
225.096844,117.500000
225.112836,117.692993
225.115437,117.724375
225.170702,117.942612
225.170703,117.942613
225.180473,117.964887
225.189519,118.035305
225.159058,118.099435
225.098762,118.136916
225.065085,118.141500
223.024500,118.141500
222.956379,118.121498
222.909886,118.067842
222.898500,118.015500
222.898500,116.601367
222.898499,116.601350
222.891990,116.540803
222.891988,116.540795
222.840889,116.403797
222.840887,116.403792
222.753261,116.286738
222.636207,116.199112
222.636202,116.199110
222.499204,116.148011
222.499196,116.148009
222.438649,116.141500
222.438638,116.141500
220.641362,116.141500
220.641350,116.141500
220.580803,116.148009
220.580795,116.148011
220.443797,116.199110
220.443792,116.199112
220.326738,116.286738
220.239112,116.403792
220.239111,116.403795
220.194804,116.522584
220.152257,116.579419
220.085736,116.604229
220.016362,116.589137
219.984047,116.563887
219.922902,116.497465
219.745301,116.359232
219.745300,116.359231
219.547371,116.252117
219.547369,116.252116
219.334512,116.179043
219.334501,116.179040
219.254000,116.165606
219.254000,117.069297
219.192993,117.034075
219.065826,117.000000
218.934174,117.000000
218.807007,117.034075
218.746000,117.069297
218.746000,116.165607
218.745999,116.165606
218.665498,116.179040
218.665487,116.179043
218.452630,116.252116
218.452626,116.252118
218.419467,116.270063
218.350037,116.284892
218.283611,116.259830
218.241279,116.202834
218.233500,116.159248
218.233500,113.173411
218.253502,113.105290
218.307158,113.058797
218.372306,113.048064
218.474455,113.058500
219.525544,113.058499
219.629426,113.047887
219.797738,112.992115
219.948652,112.899030
220.074030,112.773652
220.092718,112.743354
220.145504,112.695875
220.199959,112.683500
220.594267,112.683500
220.662388,112.703502
220.707147,112.753517
220.718563,112.776536
220.718565,112.776539
220.718567,112.776543
220.832151,112.917849
220.973457,113.031433
221.135876,113.111986
221.311814,113.155740
221.352517,113.158500
222.147482,113.158499
222.147489,113.158499
222.147493,113.158498
222.188186,113.155740
222.364124,113.111986
222.526543,113.031433
222.667849,112.917849
222.781433,112.776543
222.861986,112.614124
222.905740,112.438186
222.908500,112.397483
222.908499,111.602518
222.908499,111.602517
222.908499,111.602510
222.908498,111.602504
222.905740,111.561818
222.905740,111.561816
222.905740,111.561814
222.861986,111.385876
222.781433,111.223457
222.667849,111.082151
222.667846,111.082148
222.665267,111.078940
222.638179,111.013314
222.650871,110.943461
222.665267,110.921060
222.667846,110.917851
222.667849,110.917849
222.781433,110.776543
222.817651,110.703515
222.865837,110.651376
222.930531,110.633500
223.137606,110.633500
225.069469,110.633500
Z" /> 
<path style="fill:#000000; fill-opacity:1.000000; stroke:none;fill-rule:evenodd;"
d="M 214.832768,110.505449
215.204595,110.877276
215.238621,110.939588
215.241500,110.966371
215.241500,112.465500
215.221498,112.533621
215.167842,112.580114
215.115500,112.591500
214.864067,112.591500
214.795946,112.571498
214.749453,112.517842
214.739349,112.447568
214.756239,112.400315
214.757944,112.397495
214.775827,112.367913
214.827013,112.203649
214.833500,112.132265
214.833499,111.467736
214.827013,111.396351
214.786990,111.267911
214.775829,111.232093
214.775827,111.232088
214.775827,111.232087
214.686816,111.084845
214.686815,111.084844
214.686811,111.084839
214.568652,110.966680
214.534626,110.904368
214.539691,110.833553
214.549295,110.813443
214.569430,110.779398
214.615107,110.622177
214.618061,110.584657
214.643347,110.518316
214.700485,110.476177
214.771335,110.471618
Z" /> 
<path style="fill:#000000; fill-opacity:1.000000; stroke:none;fill-rule:evenodd;"
d="M 207.161166,111.138903
207.218002,111.181450
207.242813,111.247970
207.242483,111.269750
207.242000,111.274482
207.242000,111.546000
208.124000,111.546000
208.192121,111.566002
208.238614,111.619658
208.250000,111.672000
208.250000,111.928000
208.229998,111.996121
208.176342,112.042614
208.124000,112.054000
207.242000,112.054000
207.242000,112.325516
207.253305,112.436166
207.251938,112.436305
207.247198,112.499622
207.204462,112.556316
207.137859,112.580904
207.068536,112.565581
207.040195,112.544291
206.770405,112.274501
206.736379,112.212189
206.733500,112.185406
206.733500,111.514594
206.753502,111.446473
206.770399,111.425504
207.028042,111.167861
207.090351,111.133839
Z" /> 
<path style="fill:#000000; fill-opacity:1.000000; stroke:none;fill-rule:evenodd;"
d="M 209.118592,101.681477
209.175428,101.724024
209.200239,101.790544
209.195557,101.834685
209.184935,101.871245
209.184934,101.871249
209.182000,101.908543
209.182000,102.546000
209.864000,102.546000
209.932121,102.566002
209.978614,102.619658
209.990000,102.672000
209.990000,102.928000
209.969998,102.996121
209.916342,103.042614
209.864000,103.054000
209.182001,103.054000
209.182001,103.691456
209.184934,103.728750
209.231320,103.888407
209.233719,103.893951
209.242413,103.964413
209.211632,104.028390
209.151149,104.065569
209.080166,104.064147
209.028985,104.033081
208.765404,103.769500
208.731378,103.707188
208.728499,103.680405
208.728499,103.600012
208.725629,103.563535
208.708758,103.505465
208.680269,103.407404
208.648767,103.354137
208.631308,103.285325
208.648766,103.225862
208.680269,103.172596
208.725629,103.016466
208.728500,102.979989
208.728499,102.580012
208.725629,102.543534
208.680269,102.387404
208.680267,102.387402
208.680267,102.387399
208.593471,102.240636
208.595763,102.239279
208.574528,102.185222
208.588417,102.115598
208.610935,102.084968
208.985467,101.710436
209.047777,101.676412
Z" /> 
<path style="fill:#000000; fill-opacity:1.000000; stroke:none;fill-rule:evenodd;"
d="M 246.004118,100.025770
246.032134,100.027606
246.249492,100.041852
246.265810,100.044000
246.502945,100.091169
246.518850,100.095430
246.747799,100.173149
246.763005,100.179448
246.979851,100.286384
246.994108,100.294615
247.195135,100.428937
247.208204,100.438966
247.389972,100.598372
247.401627,100.610027
247.561033,100.791795
247.571063,100.804867
247.616106,100.872278
247.705379,101.005883
247.713620,101.020157
247.820547,101.236984
247.826854,101.252210
247.904566,101.481141
247.908832,101.497062
247.955997,101.734177
247.958148,101.750517
247.974230,101.995880
247.974500,102.004121
247.974500,117.995878
247.974230,118.004119
247.958148,118.249482
247.955997,118.265822
247.908832,118.502937
247.904566,118.518858
247.826854,118.747789
247.820547,118.763015
247.713620,118.979842
247.705379,118.994116
247.571066,119.195129
247.561033,119.208204
247.401627,119.389972
247.389972,119.401627
247.208204,119.561033
247.195129,119.571066
246.994116,119.705379
246.979842,119.713620
246.763015,119.820547
246.747789,119.826854
246.518858,119.904566
246.502937,119.908832
246.265822,119.955997
246.249482,119.958148
246.004119,119.974230
245.995878,119.974500
213.458771,119.974500
213.390650,119.954498
213.344157,119.900842
213.334053,119.830568
213.363547,119.765988
213.423273,119.727604
213.423618,119.727503
213.488400,119.708681
213.631501,119.624051
213.631503,119.624050
213.749050,119.506503
213.749051,119.506501
213.833681,119.363401
213.879993,119.204000
211.395007,119.204000
211.441318,119.363401
211.525948,119.506501
211.525949,119.506503
211.643496,119.624050
211.643498,119.624051
211.786598,119.708681
211.851382,119.727503
211.911217,119.765717
211.940894,119.830213
211.930990,119.900516
211.884650,119.954303
211.816587,119.974499
211.816228,119.974500
209.476665,119.974500
209.408544,119.954498
209.362051,119.900842
209.351947,119.830568
209.381441,119.765988
209.387570,119.759405
209.473629,119.673345
209.473634,119.673339
209.566657,119.522525
209.622393,119.354321
209.622394,119.354318
209.632999,119.250516
209.633000,119.250516
209.633000,119.204000
207.167000,119.204000
207.167000,119.250516
207.177605,119.354318
207.177606,119.354321
207.233342,119.522525
207.326365,119.673339
207.326370,119.673345
207.412430,119.759405
207.446456,119.821717
207.441391,119.892532
207.398844,119.949368
207.332324,119.974179
207.323335,119.974500
202.004122,119.974500
201.995881,119.974230
201.750517,119.958148
201.734177,119.955997
201.497062,119.908832
201.481141,119.904566
201.263151,119.830568
201.252208,119.826853
201.236984,119.820547
201.020153,119.713618
201.005887,119.705381
200.804867,119.571063
200.791795,119.561033
200.610027,119.401627
200.598372,119.389972
200.438966,119.208204
200.428937,119.195135
200.294615,118.994108
200.286384,118.979851
200.179448,118.763005
200.173149,118.747799
200.095430,118.518850
200.091169,118.502945
200.044000,118.265810
200.041852,118.249492
200.025770,118.004118
200.025500,117.995878
200.025500,109.859574
200.499500,109.859574
200.499500,110.140425
200.530945,110.419513
200.550560,110.505449
200.593440,110.693318
200.593442,110.693324
200.593441,110.693324
200.686192,110.958390
200.686203,110.958417
200.808056,111.211448
200.957474,111.449245
201.132586,111.668828
201.331171,111.867413
201.550754,112.042525
201.788551,112.191943
201.788554,112.191944
201.788555,112.191945
202.041592,112.313801
202.041608,112.313806
202.041609,112.313807
202.306675,112.406558
202.306678,112.406558
202.306682,112.406560
202.445245,112.438186
202.580486,112.469054
202.580487,112.469054
202.580491,112.469055
202.802328,112.494049
202.859574,112.500500
202.859575,112.500500
203.140426,112.500500
203.187927,112.495147
203.419509,112.469055
203.693318,112.406560
203.719242,112.397489
203.803785,112.367906
203.958408,112.313801
204.211445,112.191945
204.449248,112.042523
204.668825,111.867416
204.867416,111.668825
205.042523,111.449248
205.191945,111.211445
205.226979,111.138695
205.274555,111.086001
205.343070,111.067392
205.410768,111.088779
205.456157,111.143372
205.466500,111.193366
205.466500,112.562396
205.472518,112.592648
205.490845,112.684785
205.538600,112.800075
205.607929,112.903833
207.196167,114.492071
207.299925,114.561400
207.415215,114.609155
207.537606,114.633500
207.662393,114.633500
207.965500,114.633500
208.033621,114.653502
208.080114,114.707158
208.091500,114.759500
208.091500,114.948649
208.098009,115.009196
208.098011,115.009204
208.149110,115.146202
208.149112,115.146207
208.236738,115.263261
208.353792,115.350887
208.353794,115.350888
208.353796,115.350889
208.412875,115.372924
208.490795,115.401988
208.490803,115.401990
208.551350,115.408499
208.551355,115.408499
208.551362,115.408500
208.551368,115.408500
210.448632,115.408500
210.448638,115.408500
210.448645,115.408499
210.448649,115.408499
210.509196,115.401990
210.509199,115.401989
210.509201,115.401989
210.646204,115.350889
210.674489,115.329714
210.741008,115.304902
210.810383,115.319992
210.825511,115.329715
210.853791,115.350886
210.853793,115.350887
210.853796,115.350889
210.912875,115.372924
210.990795,115.401988
210.990803,115.401990
211.051350,115.408499
211.051355,115.408499
211.051362,115.408500
211.051368,115.408500
212.948632,115.408500
212.948638,115.408500
212.948645,115.408499
212.948649,115.408499
213.009196,115.401990
213.009199,115.401989
213.009201,115.401989
213.146204,115.350889
213.174489,115.329714
213.241008,115.304902
213.310383,115.319992
213.325511,115.329715
213.353791,115.350886
213.353793,115.350887
213.353796,115.350889
213.412875,115.372924
213.490795,115.401988
213.490803,115.401990
213.551350,115.408499
213.551355,115.408499
213.551362,115.408500
214.314629,115.408500
214.382750,115.428502
214.429243,115.482158
214.439347,115.552432
214.409853,115.617012
214.403724,115.623595
213.772724,116.254595
213.710412,116.288621
213.683629,116.291500
213.508754,116.291500
213.473602,116.286497
213.328832,116.244438
213.328828,116.244437
213.291511,116.241500
213.291502,116.241500
211.983498,116.241500
211.983489,116.241500
211.946171,116.244437
211.946167,116.244438
211.801398,116.286497
211.766246,116.291500
209.491372,116.291500
209.423251,116.271498
209.402281,116.254599
209.348652,116.200970
209.197738,116.107885
209.106792,116.077749
209.029427,116.052113
209.029420,116.052112
208.925553,116.041500
207.874455,116.041500
207.770574,116.052112
207.602261,116.107885
207.451347,116.200970
207.451341,116.200975
207.325975,116.326341
207.325970,116.326347
207.232885,116.477262
207.177113,116.645572
207.177112,116.645579
207.166500,116.749446
207.166500,117.350544
207.177112,117.454425
207.232885,117.622738
207.325970,117.773652
207.325975,117.773658
207.451345,117.899028
207.454450,117.901483
207.456027,117.903710
207.456537,117.904220
207.456449,117.904307
207.495481,117.959422
207.498673,118.030347
207.463014,118.091739
207.454454,118.099157
207.451654,118.101370
207.326370,118.226654
207.326365,118.226660
207.233342,118.377474
207.177606,118.545678
207.177605,118.545681
207.167000,118.649483
207.167000,118.696000
209.637430,118.696000
209.689981,118.667304
209.760797,118.672368
209.780901,118.681969
209.911399,118.759145
210.071169,118.805562
210.108488,118.808499
210.108489,118.808500
210.108498,118.808500
211.416511,118.808500
211.416511,118.808499
211.453831,118.805562
211.546973,118.778502
211.598602,118.763503
211.633754,118.758500
214.093629,118.758500
214.161750,118.778502
214.182724,118.795405
214.770834,119.383515
214.770835,119.383516
214.876484,119.489165
215.000716,119.572174
215.081576,119.605667
215.138753,119.629351
215.212022,119.643924
215.212023,119.643925
215.226598,119.646824
215.285294,119.658500
215.285295,119.658500
215.285299,119.658500
230.214701,119.658500
230.214705,119.658500
230.214706,119.658500
230.287976,119.643925
230.361247,119.629351
230.499284,119.572174
230.623515,119.489166
231.217276,118.895405
231.279588,118.861379
231.306371,118.858500
232.438632,118.858500
232.438638,118.858500
232.438645,118.858499
232.438649,118.858499
232.499196,118.851990
232.499199,118.851989
232.499201,118.851989
232.636204,118.800889
232.666110,118.778502
232.753261,118.713261
232.840887,118.596207
232.840887,118.596206
232.840889,118.596204
232.891989,118.459201
232.896892,118.413601
232.898499,118.398649
232.898500,118.398632
232.898500,116.601367
232.898499,116.601350
232.891990,116.540803
232.891988,116.540795
232.840889,116.403797
232.840887,116.403792
232.753261,116.286738
232.636207,116.199112
232.636202,116.199110
232.499204,116.148011
232.499196,116.148009
232.438649,116.141500
232.438638,116.141500
230.641362,116.141500
230.641350,116.141500
230.580803,116.148009
230.580795,116.148011
230.443797,116.199110
230.443792,116.199112
230.326738,116.286738
230.239112,116.403792
230.239111,116.403795
230.194804,116.522584
230.152257,116.579419
230.085736,116.604229
230.016362,116.589137
229.984047,116.563887
229.922902,116.497465
229.745301,116.359232
229.745300,116.359231
229.547371,116.252117
229.547369,116.252116
229.334512,116.179043
229.334501,116.179040
229.254000,116.165606
229.254000,117.069297
229.192993,117.034075
229.065826,117.000000
228.934174,117.000000
228.807007,117.034075
228.746000,117.069297
228.746000,116.165607
228.745999,116.165606
228.665498,116.179040
228.665487,116.179043
228.452630,116.252116
228.452628,116.252117
228.254699,116.359231
228.254698,116.359232
228.077097,116.497465
227.924670,116.663045
227.835780,116.799101
227.781776,116.845189
227.711428,116.854764
227.647071,116.824786
227.624816,116.799101
227.585884,116.739511
227.535724,116.662734
227.535720,116.662729
227.406705,116.522584
227.383240,116.497094
227.383239,116.497093
227.383237,116.497091
227.301382,116.433381
227.205576,116.358811
227.177620,116.343681
227.159529,116.333891
227.109139,116.283877
227.093500,116.223078
227.093500,113.037990
227.113502,112.969869
227.140562,112.939782
227.167849,112.917849
227.281433,112.776543
227.361986,112.614124
227.405740,112.438186
227.408500,112.397483
227.408499,111.602518
227.408499,111.602517
227.408499,111.602510
227.408498,111.602504
227.405740,111.561816
227.405740,111.561814
227.401807,111.546000
227.399538,111.536875
227.402507,111.465942
227.443356,111.407874
227.509114,111.381108
227.578903,111.394142
227.585950,111.398011
227.657404,111.440269
227.813534,111.485629
227.850011,111.488500
228.349988,111.488499
228.386466,111.485629
228.542596,111.440269
228.585862,111.414681
228.654675,111.397222
228.714137,111.414680
228.757404,111.440269
228.913534,111.485629
228.950011,111.488500
229.449988,111.488499
229.486466,111.485629
229.642596,111.440269
229.642598,111.440267
229.642600,111.440267
229.776554,111.361047
229.840693,111.343500
230.352393,111.343500
230.352394,111.343500
230.474785,111.319155
230.590075,111.271400
230.693833,111.202071
231.172065,110.723837
231.234378,110.689813
231.305193,110.694877
231.362029,110.737424
231.386471,110.799763
231.406457,110.989927
231.414674,111.015215
231.465473,111.171556
231.465476,111.171561
231.560958,111.336941
231.560965,111.336951
231.688744,111.478864
231.702007,111.488500
231.843248,111.591118
232.017712,111.668794
232.204513,111.708500
232.395487,111.708500
232.582288,111.668794
232.756752,111.591118
232.911253,111.478866
232.914563,111.475190
232.975009,111.437950
233.008200,111.433500
233.079339,111.433500
233.147460,111.453502
233.168429,111.470400
233.234845,111.536816
233.382087,111.625827
233.382090,111.625828
233.382095,111.625830
233.445350,111.645540
233.477525,111.655566
233.536612,111.694927
233.565038,111.759985
233.553779,111.830083
233.529138,111.864956
233.096167,112.297929
233.007927,112.386169
233.007926,112.386171
232.938599,112.489925
232.938598,112.489927
232.928745,112.513717
232.884197,112.568998
232.816834,112.591420
232.812336,112.591500
232.551350,112.591500
232.490803,112.598009
232.490795,112.598011
232.353797,112.649110
232.353792,112.649112
232.236738,112.736738
232.149112,112.853792
232.149110,112.853797
232.098011,112.990795
232.098009,112.990803
232.091500,113.051350
232.091500,114.948649
232.098009,115.009196
232.098011,115.009204
232.149110,115.146202
232.149112,115.146207
232.236738,115.263261
232.353792,115.350887
232.353794,115.350888
232.353796,115.350889
232.412875,115.372924
232.490795,115.401988
232.490803,115.401990
232.551350,115.408499
232.551355,115.408499
232.551362,115.408500
232.551368,115.408500
234.448632,115.408500
234.448638,115.408500
234.448645,115.408499
234.448649,115.408499
234.509196,115.401990
234.509199,115.401989
234.509201,115.401989
234.646204,115.350889
234.674489,115.329714
234.741008,115.304902
234.810383,115.319992
234.825511,115.329715
234.853791,115.350886
234.853793,115.350887
234.853796,115.350889
234.912875,115.372924
234.990795,115.401988
234.990803,115.401990
235.051350,115.408499
235.051355,115.408499
235.051362,115.408500
235.051368,115.408500
236.948632,115.408500
236.948638,115.408500
236.948645,115.408499
236.948649,115.408499
237.009196,115.401990
237.009199,115.401989
237.009201,115.401989
237.146204,115.350889
237.174489,115.329714
237.241008,115.304902
237.310383,115.319992
237.325511,115.329715
237.353791,115.350886
237.353793,115.350887
237.353796,115.350889
237.412875,115.372924
237.490795,115.401988
237.490803,115.401990
237.551350,115.408499
237.551355,115.408499
237.551362,115.408500
237.551368,115.408500
239.448632,115.408500
239.448638,115.408500
239.448645,115.408499
239.448649,115.408499
239.509196,115.401990
239.509199,115.401989
239.509201,115.401989
239.646204,115.350889
239.668839,115.333945
239.763261,115.263261
239.850887,115.146207
239.850887,115.146206
239.850889,115.146204
239.901989,115.009201
239.908500,114.948638
239.908500,113.051362
239.908499,113.051350
239.901990,112.990803
239.901988,112.990795
239.869550,112.903828
239.850889,112.853796
239.850888,112.853794
239.850887,112.853792
239.763261,112.736738
239.646207,112.649112
239.646202,112.649110
239.509204,112.598011
239.509196,112.598009
239.448649,112.591500
239.448638,112.591500
237.551362,112.591500
237.551350,112.591500
237.490803,112.598009
237.490795,112.598011
237.353796,112.649110
237.353793,112.649112
237.325506,112.670287
237.258985,112.695096
237.189612,112.680003
237.174494,112.670287
237.146206,112.649112
237.146203,112.649110
237.009204,112.598011
237.009196,112.598009
236.948649,112.591500
236.948638,112.591500
236.629802,112.591500
236.561681,112.571498
236.525037,112.535502
236.492075,112.486171
236.492069,112.486164
235.880405,111.874500
235.846379,111.812188
235.843500,111.785405
235.843500,111.772888
235.863502,111.704767
235.917158,111.658274
235.932013,111.652594
236.017913,111.625827
236.165155,111.536816
236.286816,111.415155
236.375827,111.267913
236.427013,111.103649
236.433500,111.032265
236.433499,110.367736
236.427013,110.296351
236.383123,110.155501
236.375829,110.132093
236.375828,110.132090
236.375827,110.132089
236.375827,110.132087
236.326207,110.050006
236.308085,109.981364
236.329950,109.913818
236.367892,109.877582
236.373652,109.874030
236.499030,109.748652
236.592115,109.597738
236.647887,109.429426
236.658500,109.325545
236.658499,108.274456
236.647887,108.170574
236.592115,108.002262
236.499030,107.851348
236.499029,107.851347
236.499024,107.851341
236.373658,107.725975
236.373652,107.725970
236.314731,107.689627
236.222738,107.632885
236.131071,107.602510
236.054427,107.577113
236.054420,107.577112
235.950553,107.566500
235.459500,107.566500
235.391379,107.546498
235.344886,107.492842
235.333500,107.440500
235.333500,107.337607
235.333499,107.337603
235.325320,107.296484
235.309155,107.215215
235.278350,107.140845
235.261401,107.099925
235.192072,106.996167
235.192067,106.996161
233.647255,105.451350
239.241500,105.451350
239.241500,108.548649
239.248009,108.609196
239.248011,108.609204
239.299110,108.746202
239.299112,108.746207
239.386738,108.863261
239.503792,108.950887
239.503794,108.950888
239.503796,108.950889
239.527505,108.959732
239.640795,109.001988
239.640803,109.001990
239.701350,109.008499
239.701355,109.008499
239.701362,109.008500
239.701368,109.008500
242.298632,109.008500
242.298638,109.008500
242.298645,109.008499
242.298649,109.008499
242.359196,109.001990
242.359199,109.001989
242.359201,109.001989
242.391833,108.989818
242.499539,108.949645
242.570354,108.944579
242.632667,108.978604
242.666692,109.040916
242.662501,109.109315
242.593441,109.306675
242.530945,109.580486
242.499500,109.859574
242.499500,110.140425
242.530945,110.419513
242.550560,110.505449
242.593440,110.693318
242.593442,110.693324
242.593441,110.693324
242.686192,110.958390
242.686203,110.958417
242.808056,111.211448
242.957474,111.449245
243.132586,111.668828
243.331171,111.867413
243.550754,112.042525
243.788551,112.191943
243.788554,112.191944
243.788555,112.191945
244.041592,112.313801
244.041608,112.313806
244.041609,112.313807
244.306675,112.406558
244.306678,112.406558
244.306682,112.406560
244.445245,112.438186
244.580486,112.469054
244.580487,112.469054
244.580491,112.469055
244.802328,112.494049
244.859574,112.500500
244.859575,112.500500
245.140426,112.500500
245.187927,112.495147
245.419509,112.469055
245.693318,112.406560
245.719242,112.397489
245.803785,112.367906
245.958408,112.313801
246.211445,112.191945
246.449248,112.042523
246.668825,111.867416
246.867416,111.668825
247.042523,111.449248
247.063908,111.415215
247.191943,111.211448
247.191942,111.211448
247.191945,111.211445
247.313801,110.958408
247.404872,110.698143
247.406558,110.693324
247.406558,110.693323
247.406560,110.693318
247.469055,110.419509
247.500500,110.140425
247.500500,109.859575
247.469055,109.580491
247.406560,109.306682
247.404561,109.300970
247.313807,109.041609
247.313806,109.041608
247.313801,109.041592
247.191945,108.788555
247.191944,108.788554
247.191943,108.788551
247.042525,108.550754
246.867413,108.331171
246.668828,108.132586
246.449245,107.957474
246.211448,107.808056
245.958417,107.686203
245.958412,107.686201
245.958408,107.686199
245.958402,107.686196
245.958390,107.686192
245.693324,107.593441
245.419513,107.530945
245.140426,107.499500
245.140425,107.499500
244.859575,107.499500
244.859574,107.499500
244.580486,107.530945
244.306675,107.593441
244.041609,107.686192
244.041582,107.686203
243.788551,107.808056
243.550754,107.957474
243.331171,108.132586
243.132586,108.331171
242.983011,108.518733
242.924900,108.559521
242.853962,108.562416
242.792720,108.526501
242.760618,108.463177
242.758500,108.440173
242.758500,105.451367
242.758499,105.451350
242.751990,105.390803
242.751988,105.390795
242.700889,105.253797
242.700887,105.253792
242.613261,105.136738
242.496207,105.049112
242.496202,105.049110
242.359204,104.998011
242.359196,104.998009
242.298649,104.991500
242.298638,104.991500
239.701362,104.991500
239.701350,104.991500
239.640803,104.998009
239.640795,104.998011
239.503797,105.049110
239.503792,105.049112
239.386738,105.136738
239.299112,105.253792
239.299110,105.253797
239.248011,105.390795
239.248009,105.390803
239.241500,105.451350
233.647255,105.451350
232.703835,104.507931
232.703833,104.507929
232.600075,104.438600
232.484785,104.390845
232.411086,104.376185
232.362396,104.366500
232.362394,104.366500
227.951565,104.366500
227.883444,104.346498
227.844134,104.306337
227.724176,104.110584
227.685730,104.065569
227.569969,103.930030
227.389419,103.775826
227.389417,103.775825
227.389416,103.775824
227.186963,103.651760
227.139635,103.632156
226.967592,103.560894
226.809651,103.522976
226.736711,103.505465
226.500000,103.486835
226.263289,103.505465
226.032407,103.560894
225.813038,103.651759
225.610582,103.775825
225.610580,103.775826
225.430030,103.930030
225.275826,104.110580
225.275825,104.110582
225.151759,104.313038
225.060894,104.532407
225.005465,104.763289
224.986835,105.000000
225.005465,105.236710
225.060894,105.467592
225.151759,105.686961
225.275825,105.889417
225.275826,105.889419
225.430030,106.069969
225.610580,106.224173
225.610584,106.224176
225.813037,106.348240
226.032406,106.439105
226.263289,106.494535
226.500000,106.513165
226.736711,106.494535
226.967594,106.439105
227.186963,106.348240
227.389416,106.224176
227.569969,106.069969
227.724176,105.889416
227.844134,105.693662
227.896780,105.646034
227.951565,105.633500
229.115500,105.633500
229.183621,105.653502
229.230114,105.707158
229.241500,105.759500
229.241500,108.548649
229.248009,108.609196
229.248011,108.609204
229.299110,108.746202
229.299112,108.746207
229.386738,108.863260
229.386739,108.863261
229.403508,108.875814
229.446055,108.932650
229.454000,108.976683
229.454000,109.436000
230.020015,109.436000
229.979805,109.297600
229.921280,109.198639
229.903820,109.129823
229.926337,109.062492
229.981681,109.018022
230.029733,109.008500
230.791406,109.008500
230.859527,109.028502
230.906020,109.082158
230.916124,109.152432
230.886630,109.217012
230.880514,109.223581
230.526835,109.577261
230.182760,109.921336
230.120448,109.955361
230.049632,109.950296
230.041209,109.944000
229.537542,109.944000
229.502390,109.938997
229.486468,109.934371
229.486464,109.934370
229.449998,109.931500
229.326000,109.931500
229.257879,109.911498
229.211386,109.857842
229.200000,109.805500
229.200000,109.690000
229.072000,109.690000
229.003879,109.669998
228.957386,109.616342
228.946000,109.564000
228.946000,108.912319
228.913610,108.914869
228.913607,108.914869
228.757602,108.960193
228.714628,108.985608
228.645811,109.003067
228.586350,108.985607
228.542598,108.959732
228.542597,108.959731
228.542596,108.959731
228.449383,108.932650
228.386464,108.914370
228.349998,108.911500
227.859594,108.911500
227.791473,108.891498
227.770499,108.874595
227.441338,108.545434
227.407312,108.483122
227.406164,108.443776
227.405365,108.443722
227.408499,108.397492
227.408500,108.397483
227.408499,107.602518
227.408499,107.602517
227.408499,107.602510
227.408498,107.602504
227.406168,107.568130
227.405740,107.561814
227.361986,107.385876
227.281433,107.223457
227.167849,107.082151
227.026543,106.968567
226.864124,106.888014
226.688186,106.844260
226.688182,106.844259
226.647492,106.841500
225.852510,106.841500
225.852504,106.841501
225.811818,106.844259
225.811814,106.844260
225.635876,106.888014
225.555324,106.927964
225.473458,106.968566
225.473457,106.968567
225.332151,107.082151
225.284974,107.140843
225.218565,107.223460
225.182349,107.296484
225.134163,107.348624
225.069469,107.366500
222.930531,107.366500
222.862410,107.346498
222.817651,107.296484
222.781434,107.223460
222.781433,107.223457
222.667849,107.082151
222.526543,106.968567
222.364124,106.888014
222.188186,106.844260
222.188182,106.844259
222.147492,106.841500
221.352510,106.841500
221.352504,106.841501
221.311818,106.844259
221.311814,106.844260
221.135876,106.888014
221.055324,106.927964
220.973458,106.968566
220.832151,107.082151
220.718566,107.223458
220.682349,107.296484
220.656490,107.348624
220.638014,107.385877
220.594259,107.561815
220.594259,107.561818
220.591500,107.602507
220.591500,108.397489
220.591501,108.397495
220.594259,108.438181
220.594259,108.438184
220.594260,108.438186
220.638014,108.614124
220.718567,108.776543
220.781141,108.854389
220.834732,108.921061
220.861820,108.986687
220.849127,109.056540
220.834732,109.078939
220.750167,109.184144
220.718567,109.223457
220.647624,109.366500
220.638014,109.385877
220.594259,109.561815
220.594259,109.561818
220.591500,109.602507
220.591500,109.960405
220.571498,110.028526
220.554595,110.049500
220.448594,110.155501
220.386282,110.189527
220.315467,110.184462
220.258631,110.141915
220.233820,110.075395
220.233499,110.066406
220.233499,109.849455
220.222887,109.745574
220.197844,109.669998
220.167115,109.577262
220.074030,109.426348
220.074029,109.426347
220.074024,109.426341
219.948658,109.300975
219.948652,109.300970
219.903669,109.273224
219.797738,109.207885
219.713582,109.179999
219.629427,109.152113
219.629420,109.152112
219.525553,109.141500
218.620146,109.141500
218.552025,109.121498
218.505532,109.067842
218.495428,108.997568
218.524922,108.932988
218.544634,108.914634
218.613261,108.863261
218.700889,108.746204
218.751989,108.609201
218.758500,108.548638
218.758500,105.759500
218.778502,105.691379
218.832158,105.644886
218.884500,105.633500
220.048435,105.633500
220.116556,105.653502
220.155865,105.693662
220.275824,105.889416
220.275825,105.889417
220.275826,105.889419
220.430030,106.069969
220.610580,106.224173
220.610584,106.224176
220.813037,106.348240
221.032406,106.439105
221.263289,106.494535
221.500000,106.513165
221.736711,106.494535
221.967594,106.439105
222.186963,106.348240
222.389416,106.224176
222.569969,106.069969
222.724176,105.889416
222.848240,105.686963
222.939105,105.467594
222.994535,105.236711
223.013165,105.000000
222.994535,104.763289
222.939105,104.532406
222.848240,104.313037
222.724176,104.110584
222.685730,104.065569
222.569969,103.930030
222.389419,103.775826
222.389417,103.775825
222.389416,103.775824
222.186963,103.651760
222.139635,103.632156
221.967592,103.560894
221.809651,103.522976
221.736711,103.505465
221.500000,103.486835
221.263289,103.505465
221.032407,103.560894
220.813038,103.651759
220.610582,103.775825
220.610580,103.775826
220.430030,103.930030
220.275826,104.110580
220.275825,104.110582
220.275824,104.110584
220.155865,104.306337
220.103220,104.353966
220.048435,104.366500
216.314594,104.366500
216.246473,104.346498
216.225499,104.329595
214.645405,102.749501
214.611379,102.687189
214.608500,102.660406
214.608500,101.908489
214.608499,101.908488
214.605562,101.871171
214.605562,101.871170
214.595810,101.837603
214.559145,101.711399
214.559143,101.711397
214.559143,101.711394
214.474455,101.568196
214.474450,101.568189
214.356810,101.450549
214.356803,101.450544
214.213605,101.365856
214.053829,101.319437
214.016511,101.316500
214.016502,101.316500
213.583498,101.316500
213.583489,101.316500
213.546171,101.319437
213.546170,101.319437
213.386394,101.365856
213.243197,101.450543
213.242225,101.451298
213.241323,101.451652
213.236369,101.454582
213.235896,101.453782
213.176139,101.477244
213.106517,101.463342
213.087775,101.451298
213.086802,101.450543
212.943605,101.365856
212.783829,101.319437
212.746511,101.316500
212.746502,101.316500
212.313498,101.316500
212.313489,101.316500
212.276171,101.319437
212.276170,101.319437
212.116394,101.365856
211.973197,101.450543
211.972225,101.451298
211.971323,101.451652
211.966369,101.454582
211.965896,101.453782
211.906139,101.477244
211.836517,101.463342
211.817775,101.451298
211.816807,101.450547
211.816800,101.450543
211.743975,101.407474
211.719023,101.388119
211.567888,101.236984
210.838832,100.507929
210.735074,100.438600
210.619784,100.390845
210.546085,100.376185
210.497395,100.366500
210.497393,100.366500
208.862394,100.366500
208.737606,100.366500
208.737603,100.366500
208.664568,100.381028
208.615215,100.390845
208.615213,100.390845
208.615212,100.390846
208.547675,100.418821
208.512180,100.433524
208.499923,100.438601
208.396171,100.507926
208.396164,100.507931
207.407931,101.496164
207.407926,101.496171
207.338601,101.599923
207.290846,101.715212
207.266500,101.837603
207.266500,102.020500
207.246498,102.088621
207.192842,102.135114
207.140500,102.146500
206.940693,102.146500
206.876554,102.128953
206.742600,102.049732
206.586464,102.004370
206.549998,102.001500
206.050012,102.001500
206.013535,102.004370
205.857399,102.049732
205.717460,102.132492
205.717453,102.132498
205.602498,102.247453
205.602492,102.247460
205.519732,102.387399
205.474370,102.543534
205.474370,102.543535
205.471500,102.580001
205.471500,102.979987
205.474370,103.016464
205.519732,103.172599
205.551521,103.226352
205.568980,103.295168
205.551522,103.354626
205.520194,103.407601
205.479985,103.546000
205.962458,103.546000
205.997610,103.551003
206.009292,103.554396
206.013534,103.555629
206.050011,103.558500
206.174001,103.558499
206.242120,103.578501
206.288613,103.632156
206.300000,103.684499
206.300000,103.800000
206.428000,103.800000
206.496121,103.820002
206.542614,103.873658
206.554000,103.926000
206.554000,104.577679
206.586385,104.575132
206.742399,104.529805
206.882228,104.447110
206.882235,104.447105
206.997102,104.332238
207.000116,104.328353
207.057669,104.286782
207.128561,104.282926
207.190284,104.318010
207.199244,104.328351
207.202496,104.332544
207.317453,104.447501
207.317460,104.447507
207.457399,104.530267
207.457402,104.530267
207.457404,104.530269
207.613534,104.575629
207.650011,104.578500
207.730404,104.578499
207.798524,104.598500
207.819500,104.615404
207.980501,104.776405
208.014527,104.838717
208.009462,104.909532
207.966915,104.966368
207.900395,104.991179
207.891406,104.991500
205.701350,104.991500
205.640803,104.998009
205.640795,104.998011
205.503797,105.049110
205.503792,105.049112
205.386738,105.136738
205.299112,105.253792
205.299110,105.253797
205.248011,105.390795
205.248009,105.390803
205.241500,105.451350
205.241500,108.440173
205.221498,108.508294
205.167842,108.554787
205.097568,108.564891
205.032988,108.535397
205.016989,108.518733
204.867413,108.331171
204.668828,108.132586
204.449245,107.957474
204.211448,107.808056
203.958417,107.686203
203.958412,107.686201
203.958408,107.686199
203.958402,107.686196
203.958390,107.686192
203.693324,107.593441
203.419513,107.530945
203.140426,107.499500
203.140425,107.499500
202.859575,107.499500
202.859574,107.499500
202.580486,107.530945
202.306675,107.593441
202.041609,107.686192
202.041582,107.686203
201.788551,107.808056
201.550754,107.957474
201.331171,108.132586
201.132586,108.331171
200.957474,108.550754
200.808056,108.788551
200.686203,109.041582
200.686192,109.041609
200.593441,109.306675
200.530945,109.580486
200.499500,109.859574
200.025500,109.859574
200.025500,104.054000
205.479985,104.054000
205.520194,104.192399
205.602889,104.332228
205.602894,104.332235
205.717764,104.447105
205.717771,104.447110
205.857600,104.529805
206.013614,104.575132
206.045999,104.577679
206.046000,104.577679
206.046000,104.054000
205.479985,104.054000
200.025500,104.054000
200.025500,102.004121
200.025770,101.995881
200.031498,101.908488
200.041852,101.750505
200.044000,101.734191
200.091170,101.497050
200.095429,101.481153
200.173151,101.252194
200.179445,101.236999
200.286387,101.020141
200.294611,101.005898
200.428942,100.804857
200.438962,100.791799
200.598378,100.610020
200.610020,100.598378
200.791799,100.438962
200.804857,100.428942
201.005898,100.294611
201.020141,100.286387
201.236999,100.179445
201.252194,100.173151
201.481153,100.095429
201.497050,100.091170
201.734191,100.044000
201.750505,100.041852
201.969931,100.027470
201.995882,100.025770
202.004122,100.025500
202.008285,100.025500
245.991715,100.025500
245.995878,100.025500
Z" /> 
</g> 
</svg>
